SplineFontDB: 3.0
FontName: Istok-Italic
FullName: Istok Italic
FamilyName: Istok
Weight: Italic
Copyright: (C) 2008-2014 Andrey V. Panov (panov@canopus.iacp.dvo.ru), with Reserved Font Name Istok.
UComments: "2008-10-29: Created." 
Version: 1.0.3
ItalicAngle: -13
UnderlinePosition: -204
UnderlineWidth: 102
Ascent: 1548
Descent: 500
LayerCount: 2
Layer: 0 1 "+BBcEMAQ0BD0EOAQ5 +BD8EOwQwBD0A"  1
Layer: 1 1 "+BB8ENQRABDUENAQ9BDgEOQAA +BD8EOwQwBD0A"  0
XUID: [1021 513 629268104 9940963]
FSType: 0
OS2Version: 0
OS2_WeightWidthSlopeOnly: 0
OS2_UseTypoMetrics: 1
CreationTime: 1225286394
ModificationTime: 1418893537
PfmFamily: 33
TTFWeight: 500
TTFWidth: 5
LineGap: 0
VLineGap: 0
Panose: 2 15 6 3 3 4 3 9 2 4
OS2TypoAscent: 1548
OS2TypoAOffset: 0
OS2TypoDescent: -500
OS2TypoDOffset: 0
OS2TypoLinegap: 410
OS2WinAscent: 1950
OS2WinAOffset: 0
OS2WinDescent: 508
OS2WinDOffset: 0
HheadAscent: 1950
HheadAOffset: 0
HheadDescent: -508
HheadDOffset: 0
OS2FamilyClass: 2048
OS2Vendor: 'PfEd'
Lookup: 258 0 0 "LGC kerning"  {"LGC kerning subtable"  } ['kern' ('latn' <'dflt' > 'grek' <'dflt' > 'cyrl' <'dflt' > ) ]
MarkAttachClasses: 1
DEI: 91125
LangName: 1033 "" "" "" "" "" "" "" "" "Andrey V. Panov" "Andrey V. Panov" "" "http://code.google.com/p/istok" "http://code.google.com/u/andrej.panov/" "GNU General Public License with font exception" "http://www.gnu.org/licenses/gpl.html http://www.gnu.org/licenses/gpl-faq.html#FontException" 
LangName: 1049 "" "+BBgEQQRCBD4EOgAA" "" "" "" "" "" "" "" "+BBAA. +BBIA. +BB8EMAQ9BD4EMgAA" 
Encoding: UnicodeBmp
UnicodeInterp: none
NameList: Adobe Glyph List
DisplaySize: -48
AntiAlias: 1
FitToEm: 1
WinInfo: 8192 16 13
BeginPrivate: 8
BlueValues 47 [-30 0 1050 1067 1422 1423 1434 1464 1476 1493]
OtherBlues 41 [-417 -400 -370 -370 -350 -350 1136 1150]
BlueScale 9 0.0282857
StdHW 5 [130]
StdVW 5 [176]
StemSnapH 25 [120 130 132 156 164 172]
StemSnapV 29 [176 186 192 205 154 166 120]
ForceBold 5 false
EndPrivate
Grid
-2048 1150 m 5
 4096 1150 l 5

StartChar: dotlessi
Encoding: 305 305 0
Width: 460
Flags: W
HStem: 0 21G<44.5 175.5> 1030 20G<286.5 417.5>
VStem: 32 398
DStem2: 21.9775 0 197.977 0 0.224951 0.97437<29.6943 1087.43>
LayerCount: 2
Back
SplineSet
267 -1 m 2,0,-1
 244 0 l 1,1,-1
 178 0 l 1,2,3
 141 6 141 6 141 49 c 2,4,-1
 141 988 l 2,5,6
 141 1018 141 1018 153.5 1029.5 c 128,-1,7
 166 1041 166 1041 193 1041 c 2,8,-1
 215 1040 l 1,9,-1
 254 1040 l 1,10,-1
 272 1041 l 2,11,12
 317 1041 317 1041 317 991 c 2,13,-1
 317 70 l 1,14,-1
 318 50 l 2,15,16
 318 17 318 17 301 6 c 1,17,18
 300 6 300 6 291.5 2.5 c 128,-1,19
 283 -0.999984 283 -0.999984 267 -1 c 2,0,-1
EndSplineSet
Fore
SplineSet
67 0 m 2,0,1
 22 0 22 0 32 45 c 2,2,-1
 254 1005 l 2,3,4
 264 1050 264 1050 309 1050 c 2,5,-1
 395 1050 l 2,6,7
 440 1050 440 1050 430 1005 c 2,8,-1
 208 45 l 2,9,10
 198 0 198 0 153 0 c 2,11,-1
 67 0 l 2,0,1
EndSplineSet
EndChar

StartChar: afii10079
Encoding: 1085 1085 1
Width: 1120
Flags: W
HStem: 0 21G<44.5 175.5 704.5 835.5> 482 132<340 793> 1030 20G<286.5 417.5 946.5 1077.5>
DStem2: 21.6109 0 197.722 0 0.224951 0.97437<29.7767 534.295 669.885 1087.52> 681.611 0 857.611 0 0.224951 0.97437<29.7767 494.703 630.294 1087.52>
LayerCount: 2
Back
SplineSet
293 618 m 1,0,-1
 851 618 l 1,1,-1
 851 488 l 1,2,-1
 293 488 l 1,3,-1
 293 618 l 1,0,-1
815 1040 m 1,4,-1
 846 1041 l 2,5,6
 853 1041 853 1041 870 1040 c 0,7,8
 911 1040 911 1040 911 989 c 2,9,-1
 911 66 l 2,10,11
 911 43 911 43 909 33 c 2,12,13
 909 27.8333 909 27.8333 905.5 21.4167 c 128,-1,14
 902 15 902 15 897 10.5 c 0,15,16
 885.333 -1.81516e-05 885.333 -1.81516e-05 858 0 c 2,17,-1
 809 0 l 2,18,19
 769 0 769 0 755 8.5 c 128,-1,20
 741 17 741 17 741 51 c 2,21,-1
 741 504 l 1,22,-1
 313 504 l 1,23,-1
 313 53 l 2,24,25
 313 18 313 18 300.5 9 c 128,-1,26
 288 9.53674e-07 288 9.53674e-07 246 0 c 2,27,-1
 194 0 l 2,28,29
 177 0 177 0 166 4.5 c 128,-1,30
 155 9 155 9 152.5 13 c 128,-1,31
 150 17 150 17 150 20 c 1,32,33
 145 28 145 28 145 33 c 1,34,35
 143 43 143 43 143 66 c 2,36,-1
 143 989 l 2,37,38
 143 1040 143 1040 184 1040 c 1,39,40
 190 1041 190 1041 201 1041 c 2,41,-1
 238 1040 l 1,42,-1
 268 1041 l 2,43,44
 288 1041 288 1041 298.5 1032.5 c 128,-1,45
 309 1024 309 1024 311 1014 c 128,-1,46
 313 1004 313 1004 313 988 c 2,47,-1
 313 641 l 1,48,-1
 741 641 l 1,49,-1
 741 992 l 2,50,51
 741 1041 741 1041 786 1041 c 2,52,-1
 815 1040 l 1,4,-1
EndSplineSet
Fore
SplineSet
67 0 m 2,0,1
 22 0 22 0 32 45 c 2,2,-1
 254 1005 l 2,3,4
 264 1050 264 1050 309 1050 c 2,5,-1
 395 1050 l 2,6,7
 440 1050 440 1050 430 1005 c 2,8,-1
 340 614 l 1,9,-1
 824 614 l 1,10,-1
 914 1005 l 2,11,12
 924 1050 924 1050 969 1050 c 2,13,-1
 1055 1050 l 2,14,15
 1100 1050 1100 1050 1090 1005 c 2,16,-1
 868 45 l 2,17,18
 858 0 858 0 813 0 c 2,19,-1
 727 0 l 2,20,21
 682 0 682 0 692 45 c 2,22,-1
 793 482 l 1,23,-1
 309 482 l 1,24,-1
 208 45 l 2,25,26
 198 0 198 0 153 0 c 2,27,-1
 67 0 l 2,0,1
EndSplineSet
EndChar

StartChar: o
Encoding: 111 111 2
Width: 1148
Flags: W
HStem: -17 130<343.818 661.414> 937 130<486.586 804.182>
VStem: 68 186<207.174 658.593> 894 186<391.407 842.826>
LayerCount: 2
Back
SplineSet
85 525 m 256,0,1
 126.437 760 126.437 760 278.003 913.5 c 128,-1,2
 429.569 1067 429.569 1067 669.569 1067 c 256,3,4
 909.569 1067 909.569 1067 1007 913.5 c 128,-1,5
 1104.44 760 1104.44 760 1063 525 c 256,6,7
 1021.56 290 1021.56 290 869.997 136.5 c 128,-1,8
 718.431 -17 718.431 -17 478.431 -17 c 256,9,10
 238.431 -17 238.431 -17 140.997 136.5 c 128,-1,11
 43.5635 290 43.5635 290 85 525 c 256,0,1
271 525 m 256,12,13
 233.972 315 233.972 315 299.162 214 c 128,-1,14
 364.354 113 364.354 113 501.354 113 c 256,15,16
 638.354 113 638.354 113 739.162 214 c 128,-1,17
 839.972 315 839.972 315 877 525 c 256,18,19
 914.028 735 914.028 735 848.838 836 c 128,-1,20
 783.646 937 783.646 937 646.646 937 c 256,21,22
 509.646 937 509.646 937 408.838 836 c 128,-1,23
 308.028 735 308.028 735 271 525 c 256,12,13
EndSplineSet
Fore
SplineSet
68 402 m 0,0,1
 68 666 68 666 231.5 866.5 c 128,-1,2
 395 1067 395 1067 660 1067 c 256,3,4
 894 1067 894 1067 987 932.5 c 128,-1,5
 1080 798 1080 798 1080 648 c 0,6,7
 1080 384 1080 384 916.5 183.5 c 128,-1,8
 753 -17 753 -17 488 -17 c 256,9,10
 254 -17 254 -17 161 117.5 c 128,-1,11
 68 252 68 252 68 402 c 0,0,1
254 387 m 0,12,13
 254 262 254 262 312.5 187.5 c 128,-1,14
 371 113 371 113 501 113 c 256,15,16
 657 113 657 113 775.5 254.5 c 128,-1,17
 894 396 894 396 894 663 c 0,18,19
 894 788 894 788 835.5 862.5 c 128,-1,20
 777 937 777 937 647 937 c 256,21,22
 491 937 491 937 372.5 795.5 c 128,-1,23
 254 654 254 654 254 387 c 0,12,13
EndSplineSet
EndChar

StartChar: afii10088
Encoding: 1094 1094 5
Width: 1132
Flags: MW
HStem: -350 21G<809.5 923.5> -17 130<304.084 545.406> 0 132<870 948> 1030 20G<284.5 415.5 946.5 1077.5>
DStem2: -61.3016 -350 115.617 -350 0.224951 0.97437<598.05 1446.75> 601.174 -350 777.094 -350 0.224951 0.97437<611.106 1446.64> 789.611 -350 943.611 -350 0.224951 0.97437<24.5948 359.113>
LayerCount: 2
Back
SplineSet
67 0 m 2,0,1
 22 0 22 0 32.3887 45 c 2,2,-1
 254.022 1005 l 2,3,4
 264.411 1050 264.411 1050 309.411 1050 c 2,5,-1
 395.411 1050 l 2,6,7
 440.411 1050 440.411 1050 430.022 1005 c 2,8,-1
 228.475 132 l 1,9,-1
 700.475 132 l 1,10,-1
 902.022 1005 l 2,11,12
 912.412 1050 912.412 1050 957.412 1050 c 2,13,-1
 1043.41 1050 l 2,14,15
 1088.41 1050 1088.41 1050 1078.02 1005 c 2,16,-1
 876.475 132 l 1,17,-1
 997.475 132 l 2,18,19
 1042.47 132 1042.47 132 1032.09 87 c 2,20,-1
 941.585 -305 l 2,21,22
 931.196 -350 931.196 -350 891.196 -350 c 2,23,-1
 817.196 -350 l 2,24,25
 777.196 -350 777.196 -350 787.585 -305 c 2,26,-1
 858 0 l 1,27,-1
 67 0 l 2,0,1
EndSplineSet
Fore
SplineSet
104 366 m 2,0,-1
 252 1005 l 2,1,2
 262 1050 262 1050 307 1050 c 2,3,-1
 393 1050 l 2,4,5
 438 1050 438 1050 428 1005 c 2,6,-1
 292 414 l 2,7,8
 247 217 247 217 295 165 c 128,-1,9
 343 113 343 113 448 113 c 256,10,11
 595 113 595 113 678 229.5 c 128,-1,12
 761 346 761 346 796 496 c 2,13,-1
 914 1005 l 2,14,15
 924 1050 924 1050 969 1050 c 2,16,-1
 1055 1050 l 2,17,18
 1100 1050 1100 1050 1090 1005 c 2,19,-1
 917 256 l 2,20,21
 904 200 904 200 904 166 c 128,-1,22
 904 132 904 132 948 132 c 2,23,-1
 1009 132 l 2,24,25
 1054 132 1054 132 1044 87 c 2,26,-1
 954 -305 l 2,27,28
 944 -350 944 -350 903 -350 c 2,29,-1
 829 -350 l 2,30,31
 790 -350 790 -350 800 -305 c 2,32,-1
 870 0 l 1,33,-1
 848 0 l 2,34,35
 779 0 779 0 750.5 39 c 128,-1,36
 722 78 722 78 722 165 c 1,37,-1
 718 165 l 1,38,39
 659 92 659 92 563.5 37.5 c 128,-1,40
 468 -17 468 -17 353 -17 c 256,41,42
 193 -17 193 -17 128 85.5 c 128,-1,43
 63 188 63 188 104 366 c 2,0,-1
EndSplineSet
EndChar

StartChar: afii10077
Encoding: 1083 1083 7
Width: 1136
Flags: W
HStem: -17 136<-51.4219 142.957> 0 21G<720.5 851.5> 918 132<631.686 910>
DStem2: 197.702 -17 350.938 -17 0.224951 0.97437<277.1 932.947> 693.686 -17 869.686 -17 0.224951 0.97437<47.2239 959.696>
LayerCount: 2
Back
SplineSet
-60 -8 m 256,0,1
 -78 -0 -78 -0 -70 22 c 2,2,-1
 -41 105 l 2,3,4
 -34 125 -34 125 -12 119 c 256,5,6
 10 113 10 113 30 113 c 256,7,8
 132 113 132 113 211.5 250.5 c 128,-1,9
 291 388 291 388 377 762 c 2,10,-1
 433 1005 l 2,11,12
 443 1050 443 1050 506 1050 c 2,13,-1
 1071 1050 l 2,14,15
 1116 1050 1116 1050 1106 1005 c 2,16,-1
 884 45 l 2,17,18
 874 0 874 0 829 0 c 2,19,-1
 743 0 l 2,20,21
 698 0 698 0 708 45 c 2,22,-1
 910 918 l 1,23,-1
 567 918 l 1,24,-1
 519 711 l 2,25,26
 424 300 424 300 320 141.5 c 128,-1,27
 216 -17 216 -17 22 -17 c 256,28,29
 -41 -17 -41 -17 -60 -8 c 256,0,1
EndSplineSet
Fore
SplineSet
-60 -8 m 256,0,1
 -78 0 -78 0 -70 22 c 2,2,-1
 -41 105 l 2,3,4
 -34 125 -34 125 -12 119 c 256,5,6
 10 113 10 113 30 113 c 256,7,8
 138 113 138 113 219 266.5 c 128,-1,9
 300 420 300 420 354 660 c 2,10,-1
 375 754 l 2,11,12
 405 888 405 888 504.5 969 c 128,-1,13
 604 1050 604 1050 849 1050 c 2,14,-1
 1071 1050 l 2,15,16
 1116 1050 1116 1050 1106 1005 c 2,17,-1
 884 45 l 2,18,19
 874 0 874 0 829 0 c 2,20,-1
 743 0 l 2,21,22
 698 0 698 0 708 45 c 2,23,-1
 910 918 l 1,24,-1
 874 918 l 2,25,26
 700 918 700 918 621.5 868 c 128,-1,27
 543 818 543 818 514 691 c 2,28,-1
 495 607 l 2,29,30
 427 306 427 306 321.5 144.5 c 128,-1,31
 216 -17 216 -17 22 -17 c 256,32,33
 -41 -17 -41 -17 -60 -8 c 256,0,1
EndSplineSet
EndChar

StartChar: p
Encoding: 112 112 8
Width: 1119
Flags: W
HStem: -400 21G<-47.5 83.5> -17 130<322.176 639.842> 937 130<553.609 793.984> 1030 20G<286.5 411.5>
VStem: 865 186<417.919 858.035>
DStem2: -70.3891 -400 105.493 -400 0.224951 0.97437<29.7767 569.84 664.599 1243.84 1357.88 1498.19>
LayerCount: 2
Back
SplineSet
116 -355 m 2,2,-1
 430 1005 l 2,3,4
-25.3477 -400 m 2,0,1
 -70.3477 -400 -70.3477 -400 -59.958 -355 c 2,2,-1
 254.022 1005 l 2,3,4
 264.411 1050 264.411 1050 309.411 1050 c 2,5,-1
 393.411 1050 l 2,6,7
 429.036 1050 429.036 1050 422.022 1005 c 2,8,-1
 409.553 925 l 1,9,-1
 411.553 925 l 1,10,11
 481.79 991 481.79 991 559.563 1029 c 128,-1,12
 637.336 1067 637.336 1067 752.336 1067 c 256,13,14
 952.336 1067 952.336 1067 1018.59 903.5 c 128,-1,15
 1084.84 740 1084.84 740 1035.21 525 c 256,16,17
 985.569 310 985.569 310 843.822 146.5 c 128,-1,18
 702.075 -17 702.075 -17 502.075 -17 c 256,19,20
 387.075 -17 387.075 -17 326.849 21 c 128,-1,21
 266.621 59 266.621 59 226.858 125 c 1,22,-1
 224.858 125 l 1,23,24
 219.933 95 219.933 95 212.775 64 c 2,25,-1
 116.042 -355 l 2,26,27
 105.652 -400 105.652 -400 60.6523 -400 c 2,28,-1
 -25.3477 -400 l 2,0,1
292.656 410 m 2,29,30
 258.025 260 258.025 260 312.557 186.5 c 128,-1,31
 367.088 113 367.088 113 475.088 113 c 256,32,33
 627.088 113 627.088 113 716.907 227 c 128,-1,34
 806.727 341 806.727 341 849.206 525 c 256,35,36
 891.686 709 891.686 709 854.505 823 c 128,-1,37
 817.323 937 817.323 937 665.323 937 c 256,38,39
 557.323 937 557.323 937 468.854 863.5 c 128,-1,40
 380.386 790 380.386 790 345.756 640 c 2,41,-1
 292.656 410 l 2,29,30
EndSplineSet
Fore
SplineSet
-25 -400 m 2,0,1
 -70 -400 -70 -400 -60 -355 c 2,2,-1
 254 1005 l 2,3,4
 264 1050 264 1050 309 1050 c 2,5,-1
 393 1050 l 2,6,7
 430 1050 430 1050 422 1005 c 2,8,-1
 400 885 l 1,9,-1
 402 885 l 1,10,11
 446 964 446 964 539 1015.5 c 128,-1,12
 632 1067 632 1067 712 1067 c 256,13,14
 902 1067 902 1067 976.5 950.5 c 128,-1,15
 1051 834 1051 834 1051 671 c 0,16,17
 1051 416 1051 416 890 199.5 c 128,-1,18
 729 -17 729 -17 511 -17 c 256,19,20
 400 -17 400 -17 338 16.5 c 128,-1,21
 276 50 276 50 225 118 c 1,22,-1
 223 118 l 1,23,24
 219 90 219 90 211 57 c 2,25,-1
 116 -355 l 2,26,27
 106 -400 106 -400 61 -400 c 2,28,-1
 -25 -400 l 2,0,1
265 290 m 17,29,30
 275 190 275 190 330 151.5 c 128,-1,31
 385 113 385 113 497 113 c 256,32,33
 649 113 649 113 757 282.5 c 128,-1,34
 865 452 865 452 865 678 c 0,35,36
 865 782 865 782 820 859.5 c 128,-1,37
 775 937 775 937 662 937 c 256,38,39
 564 937 564 937 462.5 819.5 c 128,-1,40
 361 702 361 702 330 570 c 2,41,-1
 265 290 l 17,29,30
EndSplineSet
EndChar

StartChar: afii10086
Encoding: 1092 1092 12
Width: 1638
Flags: W
HStem: -400 21G<541.5 672.5> -17 130<320.68 528.625 903.949 1164.96> 937 130<475.043 736.051 1111.38 1319.32> 1420 20G<965.5 1096.5>
VStem: 70 186<178.106 644.015> 646 168<-38.75 125> 1384 186<405.985 871.894>
DStem2: 518.611 -400 694.611 -400 0.224951 0.97437<29.7767 558.488 661.945 1276.24 1378.49 1898.21>
LayerCount: 2
Back
SplineSet
86.2061 525 m 256,0,1
 137.689 748 137.689 748 286.013 907.5 c 128,-1,2
 434.336 1067 434.336 1067 594.336 1067 c 256,3,4
 699.336 1067 699.336 1067 746.41 1030.5 c 128,-1,5
 793.483 994 793.483 994 824.553 925 c 1,6,-1
 826.553 925 l 1,7,8
 831.479 955 831.479 955 838.405 985 c 2,9,-1
 933.062 1395 l 2,10,11
 943.45 1440 943.45 1440 988.45 1440 c 2,12,-1
 1074.45 1440 l 2,13,14
 1119.45 1440 1119.45 1440 1109.06 1395 c 2,15,-1
 1014.41 985 l 2,16,17
 1007.48 955 1007.48 955 998.553 925 c 1,18,-1
 1000.55 925 l 1,19,20
 1063.48 994 1063.48 994 1127.41 1030.5 c 128,-1,21
 1191.34 1067 1191.34 1067 1296.34 1067 c 256,22,23
 1456.34 1067 1456.34 1067 1531.01 907.5 c 128,-1,24
 1605.69 748 1605.69 748 1554.21 525 c 256,25,26
 1502.72 302 1502.72 302 1354.4 142.5 c 128,-1,27
 1206.08 -17 1206.08 -17 1046.08 -17 c 256,28,29
 941.075 -17 941.075 -17 894.002 19.5 c 128,-1,30
 846.929 56 846.929 56 815.858 125 c 1,31,-1
 813.858 125 l 1,32,33
 808.933 95 808.933 95 802.007 65 c 2,34,-1
 705.042 -355 l 2,35,36
 694.652 -400 694.652 -400 649.652 -400 c 2,37,-1
 563.652 -400 l 2,38,39
 518.652 -400 518.652 -400 529.042 -355 c 2,40,-1
 626.007 65 l 2,41,42
 632.933 95 632.933 95 641.858 125 c 1,43,-1
 639.858 125 l 1,44,45
 576.929 56 576.929 56 513.002 19.5 c 128,-1,46
 449.075 -17 449.075 -17 344.075 -17 c 256,47,48
 184.075 -17 184.075 -17 109.398 142.5 c 128,-1,49
 34.7227 302 34.7227 302 86.2061 525 c 256,0,1
272.206 525 m 256,50,51
 230.649 345 230.649 345 265.869 229 c 128,-1,52
 301.088 113 301.088 113 431.088 113 c 256,53,54
 511.088 113 511.088 113 591.057 186.5 c 128,-1,55
 671.025 260 671.025 260 704.502 405 c 10,56,-1
 759.91 645 l 18,57,58
 793.386 790 793.386 790 747.354 863.5 c 128,-1,59
 701.323 937 701.323 937 621.323 937 c 256,60,61
 491.323 937 491.323 937 402.543 821 c 128,-1,62
 313.762 705 313.762 705 272.206 525 c 256,50,51
880.502 405 m 18,63,64
 847.025 260 847.025 260 893.057 186.5 c 128,-1,65
 939.088 113 939.088 113 1019.09 113 c 256,66,67
 1149.09 113 1149.09 113 1237.87 229 c 128,-1,68
 1326.65 345 1326.65 345 1368.21 525 c 256,69,70
 1409.76 705 1409.76 705 1374.54 821 c 128,-1,71
 1339.32 937 1339.32 937 1209.32 937 c 256,72,73
 1129.32 937 1129.32 937 1049.35 863.5 c 128,-1,74
 969.386 790 969.386 790 935.91 645 c 10,75,-1
 880.502 405 l 18,63,64
EndSplineSet
Fore
SplineSet
70 415 m 256,0,1
 70 644 70 644 233 855.5 c 128,-1,2
 396 1067 396 1067 597 1067 c 256,3,4
 690 1067 690 1067 741 1031.5 c 128,-1,5
 792 996 792 996 824 925 c 1,6,-1
 826 925 l 1,7,8
 831 954 831 954 838 985 c 2,9,-1
 933 1395 l 2,10,11
 943 1440 943 1440 988 1440 c 2,12,-1
 1074 1440 l 2,13,14
 1119 1440 1119 1440 1109 1395 c 2,15,-1
 1010 965 l 2,16,17
 1005 941 1005 941 994 905 c 1,18,-1
 996 905 l 1,19,20
 1044 984 1044 984 1116 1025.5 c 128,-1,21
 1188 1067 1188 1067 1269 1067 c 256,22,23
 1418 1067 1418 1067 1494 952.5 c 128,-1,24
 1570 838 1570 838 1570 635 c 256,25,26
 1570 406 1570 406 1407 194.5 c 128,-1,27
 1244 -17 1244 -17 1043 -17 c 256,28,29
 950 -17 950 -17 899 18.5 c 128,-1,30
 848 54 848 54 816 125 c 1,31,-1
 814 125 l 1,32,33
 809 93 809 93 802 65 c 2,34,-1
 705 -355 l 2,35,36
 695 -400 695 -400 650 -400 c 2,37,-1
 564 -400 l 2,38,39
 519 -400 519 -400 529 -355 c 2,40,-1
 630 85 l 2,41,42
 635 108 635 108 646 145 c 1,43,-1
 644 145 l 1,44,45
 596 66 596 66 524 24.5 c 128,-1,46
 452 -17 452 -17 371 -17 c 256,47,48
 222 -17 222 -17 146 97.5 c 128,-1,49
 70 212 70 212 70 415 c 256,0,1
256 405 m 256,50,51
 256 225 256 225 308 169 c 128,-1,52
 360 113 360 113 416 113 c 256,53,54
 507 113 507 113 595.5 215 c 128,-1,55
 684 317 684 317 715 452 c 10,56,-1
 785 755 l 17,57,58
 785 836 785 836 741.5 886.5 c 128,-1,59
 698 937 698 937 632 937 c 256,60,61
 456 937 456 937 356 762.5 c 128,-1,62
 256 588 256 588 256 405 c 256,50,51
855 295 m 17,63,64
 855 214 855 214 898.5 163.5 c 128,-1,65
 942 113 942 113 1008 113 c 256,66,67
 1184 113 1184 113 1284 287.5 c 128,-1,68
 1384 462 1384 462 1384 645 c 256,69,70
 1384 825 1384 825 1332 881 c 128,-1,71
 1280 937 1280 937 1224 937 c 256,72,73
 1133 937 1133 937 1044.5 835 c 128,-1,74
 956 733 956 733 925 598 c 10,75,-1
 855 295 l 17,63,64
EndSplineSet
EndChar

StartChar: afii10094
Encoding: 1100 1100 13
Width: 1017
VWidth: 1000
Flags: W
HStem: -17 130<320.452 618.426> 550 130<388.321 661.91> 1030 20G<286.5 417.5>
VStem: 716 186<209.095 494.529>
DStem2: 17.5698 -17 194.242 -17 0.224951 0.97437<660.506 1104.99>
LayerCount: 2
Back
SplineSet
67 0 m 2,0,1
 22 0 22 0 32 45 c 2,2,-1
 254 1005 l 2,3,4
 264 1050 264 1050 309 1050 c 2,5,-1
 395 1050 l 2,6,7
 440 1050 440 1050 430 1005 c 2,8,-1
 341 618 l 1,9,-1
 543 618 l 2,10,11
 762 618 762 618 832 540 c 128,-1,12
 902 462 902 462 902 357 c 256,13,14
 902 212 902 212 798 106 c 128,-1,15
 694 0 694 0 440 0 c 2,16,-1
 67 0 l 2,0,1
228 131 m 1,17,-1
 424 131 l 2,18,19
 550 131 550 131 633 183.5 c 128,-1,20
 716 236 716 236 716 350 c 256,21,22
 716 446 716 446 643 467 c 128,-1,23
 570 488 570 488 467 488 c 2,24,-1
 311 488 l 1,25,-1
 228 131 l 1,17,-1
EndSplineSet
Fore
SplineSet
124 444 m 6,0,-1
 254 1005 l 2,1,2
 264 1050 264 1050 309 1050 c 2,3,-1
 395 1050 l 2,4,5
 440 1050 440 1050 430 1005 c 2,6,-1
 348 649 l 6,7,8
 338 610 338 610 330 588 c 5,9,-1
 332 588 l 5,10,11
 378 638 378 638 437 659 c 132,-1,12
 496 680 496 680 586 680 c 260,13,14
 748 680 748 680 825 587 c 132,-1,15
 902 494 902 494 902 354 c 260,16,17
 902 208 902 208 787 95.5 c 132,-1,18
 672 -17 672 -17 412 -17 c 260,19,20
 236 -17 236 -17 155.5 107.5 c 132,-1,21
 75 232 75 232 124 444 c 6,0,-1
284 370 m 4,22,23
 255 244 255 244 302.5 178.5 c 132,-1,24
 350 113 350 113 449 113 c 260,25,26
 574 113 574 113 645 178.5 c 132,-1,27
 716 244 716 244 716 366 c 260,28,29
 716 442 716 442 671 496 c 132,-1,30
 626 550 626 550 532 550 c 260,31,32
 430 550 430 550 365.5 496 c 132,-1,33
 301 442 301 442 284 370 c 4,22,23
EndSplineSet
EndChar

StartChar: x
Encoding: 120 120 14
Width: 968
Flags: W
HStem: 0 21G<-76.5 86.5 664 793.5> 1030 20G<209 334 838 999>
DStem2: -56 59 127 26 0.662725 0.748863<22.9179 96.5661 837.813 1362.99> 511 676 203 991 0.412522 -0.910948<-430.432 0 204.206 692.626>
LayerCount: 2
Back
SplineSet
109 0 m 25,0,-1
 1040.41 1050 l 25,1,-1
-105 0 m 25,2,-1
 826.412 1050 l 25,3,-1
360.411 1050 m 25,4,-1
 833 0 l 25,5,-1
180.411 1050 m 25,6,-1
 653 0 l 25,7,-1
EndSplineSet
Fore
SplineSet
-44 0 m 2,0,1
 -109 0 -109 0 -56 59 c 2,2,-1
 396 565 l 1,3,-1
 203 991 l 2,4,5
 176 1050 176 1050 242 1050 c 2,6,-1
 316 1050 l 2,7,8
 352 1050 352 1050 363 1024 c 2,9,-1
 511 676 l 1,10,-1
 798 1024 l 2,11,12
 819 1050 819 1050 857 1050 c 2,13,-1
 966 1050 l 2,14,15
 1032 1050 1032 1050 979 991 c 2,16,-1
 579 542 l 1,17,-1
 800 59 l 2,18,19
 827 0 827 0 760 0 c 2,20,-1
 682 0 l 2,21,22
 646 0 646 0 635 26 c 2,23,-1
 465 431 l 1,24,-1
 127 26 l 2,25,26
 105 0 105 0 68 0 c 2,27,-1
 -44 0 l 2,0,1
EndSplineSet
EndChar

StartChar: c
Encoding: 99 99 15
Width: 1026
Flags: W
HStem: -17 130<343.818 657.693> 937 130<483.003 798.679>
VStem: 68 186<209.593 659.897>
LayerCount: 2
Back
SplineSet
68 402 m 0,0,1
 68 666 68 666 231.5 866.5 c 128,-1,2
 395 1067 395 1067 660 1067 c 256,3,4
 894 1067 894 1067 987 932.5 c 128,-1,5
 1080 798 1080 798 1080 648 c 0,6,7
 1080 384 1080 384 916.5 183.5 c 128,-1,8
 753 -17 753 -17 488 -17 c 256,9,10
 254 -17 254 -17 161 117.5 c 128,-1,11
 68 252 68 252 68 402 c 0,0,1
254 387 m 0,12,13
 254 262 254 262 312.5 187.5 c 128,-1,14
 371 113 371 113 501 113 c 256,15,16
 657 113 657 113 775.5 254.5 c 128,-1,17
 894 396 894 396 894 663 c 0,18,19
 894 788 894 788 835.5 862.5 c 128,-1,20
 777 937 777 937 647 937 c 256,21,22
 491 937 491 937 372.5 795.5 c 128,-1,23
 254 654 254 654 254 387 c 0,12,13
EndSplineSet
Fore
SplineSet
68 402 m 256,0,1
 68 667 68 667 231.5 867 c 128,-1,2
 395 1067 395 1067 660 1067 c 256,3,4
 822 1067 822 1067 891 1010.5 c 128,-1,5
 960 954 960 954 991 886 c 256,6,7
 1007 850 1007 850 977 834 c 282,8,-1
 911 799 l 274,9,10
 877 781 877 781 858 824 c 256,11,12
 844 856 844 856 794 896.5 c 128,-1,13
 744 937 744 937 647 937 c 256,14,15
 491 937 491 937 372.5 797 c 128,-1,16
 254 657 254 657 254 387 c 256,17,18
 254 265 254 265 312.5 189 c 128,-1,19
 371 113 371 113 501 113 c 256,20,21
 604 113 604 113 670 166.5 c 128,-1,22
 736 220 736 220 764 262 c 256,23,24
 787 297 787 297 817 276 c 266,25,-1
 880 230 l 282,26,27
 909 209 909 209 885 175 c 256,28,29
 856 135 856 135 758 59 c 128,-1,30
 660 -17 660 -17 488 -17 c 256,31,32
 254 -17 254 -17 161 116.5 c 128,-1,33
 68 250 68 250 68 402 c 256,0,1
EndSplineSet
EndChar

StartChar: afii10068
Encoding: 1075 1075 16
Width: 904
Flags: W
HStem: -17 130<228.5 549.746> 937 130<314.036 615.197>
VStem: 20 186<136.297 346.864> 649 176<695.734 902.629>
DStem2: 248 529 334 401 0.921958 0.387291<-111.64 437.649>
LayerCount: 2
Fore
SplineSet
20 226 m 256,0,1
 20 296 20 296 42 339 c 128,-1,2
 64 382 64 382 111 436 c 128,-1,3
 158 490 158 490 248 529 c 256,4,5
 313 557 313 557 390 586 c 128,-1,6
 467 615 467 615 530 648 c 256,7,8
 590 679 590 679 611 702.5 c 128,-1,9
 632 726 632 726 640.5 754 c 128,-1,10
 649 782 649 782 649 806 c 256,11,12
 649 836 649 836 638.5 860 c 128,-1,13
 628 884 628 884 596 910.5 c 128,-1,14
 564 937 564 937 499 937 c 256,15,16
 428 937 428 937 364 913.5 c 128,-1,17
 300 890 300 890 258 858 c 256,18,19
 225 833 225 833 206 854 c 258,20,-1
 166 900 l 258,21,22
 146 923 146 923 184 956 c 256,23,24
 238 1002 238 1002 328 1034.5 c 128,-1,25
 418 1067 418 1067 519 1067 c 256,26,27
 638 1067 638 1067 699 1027.5 c 128,-1,28
 760 988 760 988 792.5 934.5 c 128,-1,29
 825 881 825 881 825 821 c 256,30,31
 825 736 825 736 804.5 688 c 128,-1,32
 784 640 784 640 735 596 c 128,-1,33
 686 552 686 552 603 514 c 256,34,35
 538 484 538 484 476.5 463 c 128,-1,36
 415 442 415 442 334 401 c 256,37,38
 272 370 272 370 249 345 c 128,-1,39
 226 320 226 320 216 293.5 c 128,-1,40
 206 267 206 267 206 232 c 256,41,42
 206 197 206 197 220 170.5 c 128,-1,43
 234 144 234 144 264 128.5 c 128,-1,44
 294 113 294 113 372 113 c 256,45,46
 432 113 432 113 516 143.5 c 128,-1,47
 600 174 600 174 672 233 c 256,48,49
 702 258 702 258 724 236 c 258,50,-1
 770 190 l 258,51,52
 797 163 797 163 768 137 c 256,53,54
 672 48 672 48 572 15.5 c 128,-1,55
 472 -17 472 -17 350 -17 c 256,56,57
 210 -17 210 -17 146 20.5 c 128,-1,58
 82 58 82 58 51 107 c 128,-1,59
 20 156 20 156 20 226 c 256,0,1
EndSplineSet
EndChar

StartChar: n
Encoding: 110 110 18
Width: 1128
Flags: W
HStem: 0 21G<44.5 175.5 714.5 845.5> 937 130<576.779 828.184> 1030 20G<286.5 415.5>
DStem2: 21.9775 0 195.977 0 0.224951 0.97437<29.6943 837.657 947.579 1086.98> 691.611 0 867.611 0 0.224951 0.97437<29.7767 878.594>
LayerCount: 2
Back
SplineSet
67 0 m 2,0,1
 22 0 22 0 32 45 c 2,2,-1
 254 1005 l 2,3,4
 264 1050 264 1050 309 1050 c 2,5,-1
 393 1050 l 2,6,7
 438 1050 438 1050 428 1005 c 2,8,-1
 410 925 l 1,9,-1
 414 925 l 1,10,11
 495 997 495 997 574 1032 c 128,-1,12
 653 1067 653 1067 773 1067 c 256,13,14
 943 1067 943 1067 1005 964.5 c 128,-1,15
 1067 862 1067 862 1026 684 c 2,16,-1
 878 45 l 2,17,18
 868 0 868 0 823 0 c 2,19,-1
 737 0 l 2,20,21
 692 0 692 0 702 45 c 2,22,-1
 839 636 l 2,23,24
 884 832 884 832 836 884.5 c 128,-1,25
 788 937 788 937 678 937 c 256,26,27
 558 937 558 937 468.5 859.5 c 128,-1,28
 379 782 379 782 335 594 c 2,29,-1
 208 45 l 2,30,31
 198 0 198 0 153 0 c 2,32,-1
 67 0 l 2,0,1
EndSplineSet
Fore
SplineSet
67 0 m 2,0,1
 22 0 22 0 32 45 c 2,2,-1
 254 1005 l 2,3,4
 264 1050 264 1050 309 1050 c 2,5,-1
 393 1050 l 2,6,7
 438 1050 438 1050 428 1005 c 2,8,-1
 401 885 l 1,9,-1
 405 885 l 1,10,11
 464 958 464 958 558.5 1012.5 c 128,-1,12
 653 1067 653 1067 773 1067 c 256,13,14
 943 1067 943 1067 1005 964.5 c 128,-1,15
 1067 862 1067 862 1026 684 c 2,16,-1
 878 45 l 2,17,18
 868 0 868 0 823 0 c 2,19,-1
 737 0 l 2,20,21
 692 0 692 0 702 45 c 2,22,-1
 839 636 l 2,23,24
 884 832 884 832 836 884.5 c 128,-1,25
 788 937 788 937 678 937 c 256,26,27
 558 937 558 937 459.5 820.5 c 128,-1,28
 361 704 361 704 326 554 c 2,29,-1
 208 45 l 2,30,31
 198 0 198 0 153 0 c 2,32,-1
 67 0 l 2,0,1
EndSplineSet
EndChar

StartChar: afii10090
Encoding: 1096 1096 19
Width: 1678
Flags: W
HStem: -17 130<290.125 502.409 900.183 1108.18> 0 21G<1264.5 1393.5> 1030 20G<284.5 415.5 894.5 1025.5 1504.5 1635.5>
DStem2: 15.5775 -17 191.187 -17 0.224951 0.97437<243.332 1104.99> 626.053 -17 801.187 -17 0.224951 0.97437<297.845 1104.88> 1237.69 -17 1411.69 -17 0.224951 0.97437<47.2239 186.629 296.551 1104.51>
LayerCount: 2
Fore
SplineSet
104 366 m 2,0,-1
 252 1005 l 2,1,2
 262 1050 262 1050 307 1050 c 2,3,-1
 393 1050 l 2,4,5
 438 1050 438 1050 428 1005 c 2,6,-1
 293 424 l 2,7,8
 248 229 248 229 280 171 c 128,-1,9
 312 113 312 113 422 113 c 256,10,11
 512 113 512 113 611.5 233.5 c 128,-1,12
 711 354 711 354 744 496 c 2,13,-1
 862 1005 l 2,14,15
 872 1050 872 1050 917 1050 c 2,16,-1
 1003 1050 l 2,17,18
 1048 1050 1048 1050 1038 1005 c 2,19,-1
 903 424 l 2,20,21
 858 229 858 229 890 171 c 128,-1,22
 922 113 922 113 1032 113 c 256,23,24
 1122 113 1122 113 1220.5 229.5 c 128,-1,25
 1319 346 1319 346 1354 496 c 2,26,-1
 1472 1005 l 2,27,28
 1482 1050 1482 1050 1527 1050 c 2,29,-1
 1613 1050 l 2,30,31
 1658 1050 1658 1050 1648 1005 c 2,32,-1
 1426 45 l 2,33,34
 1416 0 1416 0 1371 0 c 2,35,-1
 1287 0 l 2,36,37
 1242 0 1242 0 1252 45 c 2,38,-1
 1279 165 l 1,39,-1
 1275 165 l 1,40,41
 1216 93 1216 93 1126.5 38 c 128,-1,42
 1037 -17 1037 -17 947 -17 c 256,43,44
 837 -17 837 -17 774.5 52.5 c 128,-1,45
 712 122 712 122 712 217 c 1,46,-1
 708 217 l 1,47,48
 645 135 645 135 548.5 59 c 128,-1,49
 452 -17 452 -17 337 -17 c 256,50,51
 197 -17 197 -17 130 85.5 c 128,-1,52
 63 188 63 188 104 366 c 2,0,-1
EndSplineSet
EndChar

StartChar: afii10091
Encoding: 1097 1097 20
Width: 1690
Flags: MW
HStem: -350 21G<1367.5 1481.5> -17 130<290.125 502.409 900.183 1108.18> 0 132<1428 1506> 1030 20G<284.5 415.5 894.5 1025.5 1504.5 1635.5>
DStem2: -61.3016 -350 114.308 -350 0.224951 0.97437<585.092 1446.75> 549.174 -350 724.308 -350 0.224951 0.97437<639.604 1446.64> 1159.17 -350 1335.09 -350 0.224951 0.97437<638.678 1446.64> 1347.61 -350 1501.61 -350 0.224951 0.97437<24.5948 359.113>
LayerCount: 2
Back
SplineSet
104 366 m 2,0,-1
 252 1005 l 2,1,2
 262 1050 262 1050 307 1050 c 2,3,-1
 393 1050 l 2,4,5
 438 1050 438 1050 428 1005 c 2,6,-1
 293 424 l 2,7,8
 248 229 248 229 280 171 c 128,-1,9
 312 113 312 113 422 113 c 256,10,11
 512 113 512 113 611.5 233.5 c 128,-1,12
 711 354 711 354 744 496 c 2,13,-1
 862 1005 l 2,14,15
 872 1050 872 1050 917 1050 c 2,16,-1
 1003 1050 l 2,17,18
 1048 1050 1048 1050 1038 1005 c 2,19,-1
 903 424 l 2,20,21
 858 229 858 229 890 171 c 128,-1,22
 922 113 922 113 1032 113 c 256,23,24
 1122 113 1122 113 1220.5 229.5 c 128,-1,25
 1319 346 1319 346 1354 496 c 2,26,-1
 1472 1005 l 2,27,28
 1482 1050 1482 1050 1527 1050 c 2,29,-1
 1613 1050 l 2,30,31
 1658 1050 1658 1050 1648 1005 c 2,32,-1
 1426 45 l 2,33,34
 1416 0 1416 0 1371 0 c 2,35,-1
 1287 0 l 2,36,37
 1242 0 1242 0 1252 45 c 2,38,-1
 1279 165 l 1,39,-1
 1275 165 l 1,40,41
 1216 93 1216 93 1126.5 38 c 128,-1,42
 1037 -17 1037 -17 947 -17 c 256,43,44
 837 -17 837 -17 774.5 52.5 c 128,-1,45
 712 122 712 122 712 217 c 1,46,-1
 708 217 l 1,47,48
 645 135 645 135 548.5 59 c 128,-1,49
 452 -17 452 -17 337 -17 c 256,50,51
 197 -17 197 -17 130 85.5 c 128,-1,52
 63 188 63 188 104 366 c 2,0,-1
EndSplineSet
Fore
SplineSet
104 366 m 2,0,-1
 252 1005 l 2,1,2
 262 1050 262 1050 307 1050 c 2,3,-1
 393 1050 l 2,4,5
 438 1050 438 1050 428 1005 c 2,6,-1
 293 424 l 2,7,8
 248 229 248 229 280 171 c 128,-1,9
 312 113 312 113 422 113 c 256,10,11
 512 113 512 113 611.5 233.5 c 128,-1,12
 711 354 711 354 744 496 c 2,13,-1
 862 1005 l 2,14,15
 872 1050 872 1050 917 1050 c 2,16,-1
 1003 1050 l 2,17,18
 1048 1050 1048 1050 1038 1005 c 2,19,-1
 903 424 l 2,20,21
 858 229 858 229 890 171 c 128,-1,22
 922 113 922 113 1032 113 c 256,23,24
 1122 113 1122 113 1220.5 229.5 c 128,-1,25
 1319 346 1319 346 1354 496 c 2,26,-1
 1472 1005 l 2,27,28
 1482 1050 1482 1050 1527 1050 c 2,29,-1
 1613 1050 l 2,30,31
 1658 1050 1658 1050 1648 1005 c 2,32,-1
 1475 256 l 2,33,34
 1462 200 1462 200 1462 166 c 128,-1,35
 1462 132 1462 132 1506 132 c 2,36,-1
 1567 132 l 2,37,38
 1612 132 1612 132 1602 87 c 2,39,-1
 1512 -305 l 2,40,41
 1502 -350 1502 -350 1461 -350 c 2,42,-1
 1387 -350 l 2,43,44
 1348 -350 1348 -350 1358 -305 c 2,45,-1
 1428 0 l 1,46,-1
 1406 0 l 2,47,48
 1337 0 1337 0 1308.5 39 c 128,-1,49
 1280 78 1280 78 1280 165 c 1,50,-1
 1275 165 l 1,51,52
 1216 93 1216 93 1126.5 38 c 128,-1,53
 1037 -17 1037 -17 947 -17 c 256,54,55
 837 -17 837 -17 774.5 52.5 c 128,-1,56
 712 122 712 122 712 217 c 1,57,-1
 708 217 l 1,58,59
 645 135 645 135 548.5 59 c 128,-1,60
 452 -17 452 -17 337 -17 c 256,61,62
 197 -17 197 -17 130 85.5 c 128,-1,63
 63 188 63 188 104 366 c 2,0,-1
EndSplineSet
EndChar

StartChar: afii10069
Encoding: 1076 1076 21
Width: 1155
Flags: W
HStem: -17 130<340.041 651.611> 937 130<497.655 810.969> 1363 130<509.298 836.094>
VStem: 68 186<199.482 648.828> 945 176<947 1233.09>
LayerCount: 2
Back
SplineSet
68 402 m 0,0,1
 68 666 68 666 231.5 866.5 c 128,-1,2
 395 1067 395 1067 660 1067 c 256,3,4
 894 1067 894 1067 987 932.5 c 128,-1,5
 1080 798 1080 798 1080 648 c 0,6,7
 1080 384 1080 384 916.5 183.5 c 128,-1,8
 753 -17 753 -17 488 -17 c 256,9,10
 254 -17 254 -17 161 117.5 c 128,-1,11
 68 252 68 252 68 402 c 0,0,1
254 387 m 0,12,13
 254 262 254 262 312.5 187.5 c 128,-1,14
 371 113 371 113 501 113 c 256,15,16
 657 113 657 113 775.5 254.5 c 128,-1,17
 894 396 894 396 894 663 c 0,18,19
 894 788 894 788 835.5 862.5 c 128,-1,20
 777 937 777 937 647 937 c 256,21,22
 491 937 491 937 372.5 795.5 c 128,-1,23
 254 654 254 654 254 387 c 0,12,13
EndSplineSet
Fore
SplineSet
68 402 m 0,0,1
 68 654 68 654 236.5 860.5 c 128,-1,2
 405 1067 405 1067 670 1067 c 256,3,4
 764 1067 764 1067 836.5 1029.5 c 128,-1,5
 909 992 909 992 939 947 c 1,6,-1
 943 947 l 17,7,8
 945 981 945 981 945 1028 c 0,9,10
 945 1173 945 1173 882.5 1268 c 128,-1,11
 820 1363 820 1363 691 1363 c 256,12,13
 626 1363 626 1363 560 1339.5 c 128,-1,14
 494 1316 494 1316 462 1288 c 256,15,16
 428 1258 428 1258 406 1290 c 2,17,-1
 376 1333 l 2,18,19
 351 1368 351 1368 382 1393 c 256,20,21
 430 1432 430 1432 518 1462.5 c 152,-1,22
 606 1493 606 1493 710 1493 c 256,23,24
 898 1493 898 1493 1009.5 1367.5 c 128,-1,25
 1121 1242 1121 1242 1121 988 c 0,26,27
 1121 453 1121 453 940.5 218 c 128,-1,28
 760 -17 760 -17 488 -17 c 256,29,30
 262 -17 262 -17 165 99.5 c 128,-1,31
 68 216 68 216 68 402 c 0,0,1
254 387 m 0,32,33
 254 243 254 243 315 178 c 128,-1,34
 376 113 376 113 501 113 c 256,35,36
 637 113 637 113 773.5 254.5 c 128,-1,37
 910 396 910 396 910 663 c 0,38,39
 910 770 910 770 848.5 853.5 c 128,-1,40
 787 937 787 937 657 937 c 256,41,42
 501 937 501 937 377.5 791 c 128,-1,43
 254 645 254 645 254 387 c 0,32,33
EndSplineSet
EndChar

StartChar: afii10089
Encoding: 1095 1095 23
Width: 1060
Flags: W
HStem: 0 21G<644.5 775.5> 413 130<331.077 710.169> 1030 20G<248.5 379.5 886.5 1017.5>
DStem2: -15.9929 0 159.543 0 0.224951 0.97437<642.666 1087.43> 621.611 0 797.611 0 0.224951 0.97437<29.7767 481.812 577.446 1087.52>
LayerCount: 2
Fore
SplineSet
147 706 m 2,0,-1
 216 1005 l 2,1,2
 226 1050 226 1050 271 1050 c 2,3,-1
 357 1050 l 2,4,5
 402 1050 402 1050 392 1005 c 2,6,-1
 329 734 l 2,7,8
 301 610 301 610 339.5 576.5 c 128,-1,9
 378 543 378 543 459 543 c 256,10,11
 564 543 564 543 641 555 c 128,-1,12
 718 567 718 567 762 605 c 9,13,-1
 854 1005 l 2,14,15
 864 1050 864 1050 909 1050 c 2,16,-1
 995 1050 l 2,17,18
 1040 1050 1040 1050 1030 1005 c 2,19,-1
 808 45 l 2,20,21
 798 0 798 0 753 0 c 2,22,-1
 667 0 l 2,23,24
 622 0 622 0 632 45 c 2,25,-1
 716 409 l 6,26,27
 722 436 722 436 732 469 c 1,28,-1
 728 469 l 1,29,30
 699 444 699 444 600.5 428.5 c 128,-1,31
 502 413 502 413 404 413 c 256,32,33
 268 413 268 413 191 489 c 128,-1,34
 114 565 114 565 147 706 c 2,0,-1
EndSplineSet
EndChar

StartChar: a
Encoding: 97 97 24
Width: 1099
Flags: W
HStem: -17 130<309.09 547.205> 0 21G<689 814.5> 937 130<503.749 788.739> 1030 20G<933 1056.5>
VStem: 66 186<173.378 594.119>
DStem2: 661.686 -17 832.686 -17 0.224951 0.97437<46.2308 186.179 318.637 888.377 983.531 1104.91>
LayerCount: 2
Back
SplineSet
66 339 m 0,0,1
 66 614 66 614 253 840.5 c 128,-1,2
 440 1067 440 1067 638 1067 c 256,3,4
 724 1067 724 1067 781 1029.5 c 128,-1,5
 838 992 838 992 866 942 c 1,6,-1
 868 942 l 1,7,-1
 889 1005 l 2,8,9
 904 1050 904 1050 938 1050 c 2,10,-1
 1022 1050 l 2,11,12
 1067 1050 1067 1050 1057 1005 c 2,13,-1
 835 45 l 2,14,15
 825 0 825 0 780 0 c 2,16,-1
 694 0 l 2,17,18
 648 -0 648 -0 659 45 c 0,19,20
 678.091 125.454 678.091 125.454 689 165 c 1,21,-1
 687 165 l 1,22,23
 638 100 638 100 557 41.5 c 128,-1,24
 476 -17 476 -17 381 -17 c 256,25,26
 240 -17 240 -17 153 70.5 c 128,-1,27
 66 158 66 158 66 339 c 0,0,1
252 332 m 0,28,29
 252 266 252 266 288 189.5 c 128,-1,30
 324 113 324 113 427 113 c 256,31,32
 512 113 512 113 620 230.5 c 128,-1,33
 728 348 728 348 759 480 c 2,34,-1
 826 770 l 17,35,36
 826 860 826 860 768 898.5 c 128,-1,37
 710 937 710 937 632 937 c 256,38,39
 498 937 498 937 375 757.5 c 128,-1,40
 252 578 252 578 252 332 c 0,28,29
861 1005 m 2,13,-1
 639 45 l 2,14,15
EndSplineSet
Fore
SplineSet
66 339 m 0,0,1
 66 614 66 614 252.5 840.5 c 128,-1,2
 439 1067 439 1067 644 1067 c 256,3,4
 734 1067 734 1067 792 1029.5 c 128,-1,5
 850 992 850 992 878 942 c 1,6,-1
 880 942 l 1,7,-1
 901 1005 l 2,8,9
 916 1050 916 1050 950 1050 c 2,10,-1
 1034 1050 l 2,11,12
 1079 1050 1079 1050 1069 1005 c 2,13,-1
 847 45 l 2,14,15
 837 0 837 0 792 0 c 2,16,-1
 711 0 l 2,17,18
 667 0 667 0 676 45 c 2,19,-1
 701 165 l 1,20,-1
 699 165 l 1,21,22
 650 100 650 100 568.5 41.5 c 128,-1,23
 487 -17 487 -17 387 -17 c 256,24,25
 242 -17 242 -17 154 70.5 c 128,-1,26
 66 158 66 158 66 339 c 0,0,1
252 332 m 0,27,28
 252 266 252 266 287.5 189.5 c 128,-1,29
 323 113 323 113 433 113 c 256,30,31
 523 113 523 113 632 232 c 128,-1,32
 741 351 741 351 771 480 c 2,33,-1
 838 770 l 17,34,35
 838 860 838 860 780.5 898.5 c 128,-1,36
 723 937 723 937 638 937 c 256,37,38
 498 937 498 937 375 757.5 c 128,-1,39
 252 578 252 578 252 332 c 0,27,28
EndSplineSet
EndChar

StartChar: afii10067
Encoding: 1074 1074 26
Width: 1060
VWidth: 1000
Flags: MW
HStem: -17 130<327.127 658.517> 937 130<477.974 746.823>
VStem: 72 186<177.978 502.433> 734 186<184.284 431.545> 769 176<715.932 909.919>
DStem2: 281 569 264 430 0.963359 0.268215<0 231.742>
LayerCount: 2
Back
SplineSet
68 396 m 260,0,1
 68 696 68 696 224.5 881.5 c 132,-1,2
 381 1067 381 1067 652 1067 c 260,3,4
 807 1067 807 1067 902.5 978.5 c 132,-1,5
 998 890 998 890 998 778 c 260,6,7
 998 630 998 630 856.5 560 c 132,-1,8
 715 490 715 490 506 448 c 6,9,-1
 260 399 l 5,10,11
 254 361 254 361 254 359 c 4,12,13
 254 260 254 260 308 187 c 132,-1,14
 362 114 362 114 497 114 c 260,15,16
 612 114 612 114 682 156 c 132,-1,17
 752 198 752 198 777 232 c 260,18,19
 812 279 812 279 840 253 c 13,20,-1
 899 202 l 30,21,22
 918 185 918 185 893 146 c 260,23,24
 870 110 870 110 769 46.5 c 132,-1,25
 668 -17 668 -17 473 -17 c 260,26,27
 260 -17 260 -17 164 106.5 c 132,-1,28
 68 230 68 230 68 396 c 260,0,1
265 538 m 5,29,-1
 470 578 l 6,30,31
 610 605 610 605 716 652.5 c 132,-1,32
 822 700 822 700 822 786 c 260,33,34
 822 854 822 854 760.5 895.5 c 132,-1,35
 699 937 699 937 619 937 c 260,36,37
 498 937 498 937 403.5 845 c 132,-1,38
 309 753 309 753 265 538 c 5,29,-1
348 649 m 2,7,8
 338 610 338 610 330 588 c 1,9,-1
 332 588 l 1,10,11
 378 638 378 638 437 659 c 128,-1,12
 496 680 496 680 586 680 c 256,13,14
 748 680 748 680 825 587 c 128,-1,15
 902 494 902 494 902 354 c 256,16,17
 902 208 902 208 787 95.5 c 128,-1,18
 672 -17 672 -17 412 -17 c 256,19,20
 236 -17 236 -17 155.5 107.5 c 128,-1,21
 75 232 75 232 124 444 c 2,0,-1
284 370 m 0,22,23
 255 244 255 244 302.5 178.5 c 128,-1,24
 350 113 350 113 449 113 c 256,25,26
 574 113 574 113 645 178.5 c 128,-1,27
 716 244 716 244 716 366 c 256,28,29
 716 442 716 442 671 496 c 128,-1,30
 626 550 626 550 532 550 c 256,31,32
 430 550 430 550 365.5 496 c 128,-1,33
 301 442 301 442 284 370 c 0,22,23
67 0 m 2,0,1
 22 0 22 0 32 45 c 2,2,-1
 254 1005 l 2,3,4
 264 1050 264 1050 309 1050 c 2,5,-1
 612 1050 l 2,6,7
 842 1050 842 1050 908.5 980 c 128,-1,8
 975 910 975 910 975 813 c 256,9,10
 975 724 975 724 914.5 654 c 128,-1,11
 854 584 854 584 755 552 c 1,12,-1
 755 551 l 1,13,14
 854 516 854 516 886 463 c 128,-1,15
 918 410 918 410 918 332 c 256,16,17
 918 216 918 216 808 108 c 128,-1,18
 698 0 698 0 460 0 c 2,19,-1
 67 0 l 2,0,1
228 131 m 1,20,-1
 444 131 l 2,21,22
 576 131 576 131 654 181 c 128,-1,23
 732 231 732 231 732 352 c 256,24,25
 732 434 732 434 656 454 c 128,-1,26
 580 474 580 474 483 474 c 2,27,-1
 307 474 l 1,28,-1
 228 131 l 1,20,-1
338 605 m 1,29,-1
 514 605 l 2,30,31
 652 605 652 605 725.5 666.5 c 128,-1,32
 799 728 799 728 799 785 c 256,33,34
 799 870 799 870 739.5 895 c 128,-1,35
 680 920 680 920 546 920 c 2,36,-1
 410 920 l 1,37,-1
 338 605 l 1,29,-1
EndSplineSet
Fore
SplineSet
72 404 m 256,0,1
 72 616 72 616 202 841.5 c 128,-1,2
 332 1067 332 1067 656 1067 c 256,3,4
 769 1067 769 1067 857 1013.5 c 128,-1,5
 945 960 945 960 945 848 c 256,6,7
 945 762 945 762 900.5 694 c 128,-1,8
 856 626 856 626 708 570 c 1,9,-1
 708 568 l 1,10,11
 812 555 812 555 866 482.5 c 128,-1,12
 920 410 920 410 920 305 c 256,13,14
 920 154 920 154 797 68.5 c 128,-1,15
 674 -17 674 -17 446 -17 c 256,16,17
 284 -17 284 -17 178 79.5 c 128,-1,18
 72 176 72 176 72 404 c 256,0,1
258 357 m 0,19,20
 258 248 258 248 300 180.5 c 128,-1,21
 342 113 342 113 472 113 c 256,22,23
 578 113 578 113 656 156.5 c 128,-1,24
 734 200 734 200 734 322 c 256,25,26
 734 396 734 396 681 438.5 c 128,-1,27
 628 481 628 481 548 481 c 256,28,29
 486 481 486 481 408 462.5 c 128,-1,30
 330 444 330 444 264 430 c 1,31,32
 258 392 258 392 258 357 c 0,19,20
276 569 m 1,33,34
 571 630 571 630 670 678 c 128,-1,35
 769 726 769 726 769 836 c 256,36,37
 769 884 769 884 724 910.5 c 128,-1,38
 679 937 679 937 623 937 c 256,39,40
 520 937 520 937 421 853.5 c 128,-1,41
 322 770 322 770 276 569 c 1,33,34
EndSplineSet
EndChar

StartChar: afii10092
Encoding: 1098 1098 27
Width: 1285
VWidth: 1000
Flags: W
HStem: -17 130<588.452 886.426> 550 130<656.321 929.91> 920 130<162.325 502>
VStem: 984 186<209.095 494.529>
DStem2: 285.57 -17 462.242 -17 0.224951 0.97437<660.506 961.671>
LayerCount: 2
Back
SplineSet
187 920 m 2,0,1
 142 920 142 920 150 955 c 2,2,-1
 164 1015 l 2,3,4
 172 1050 172 1050 217 1050 c 2,5,-1
 663 1050 l 2,6,7
 708 1050 708 1050 698 1005 c 2,8,-1
 609 618 l 1,9,-1
 811 618 l 2,10,11
 1030 618 1030 618 1100 540 c 128,-1,12
 1170 462 1170 462 1170 357 c 256,13,14
 1170 212 1170 212 1066 106 c 128,-1,15
 962 0 962 0 708 0 c 2,16,-1
 335 0 l 2,17,18
 290 0 290 0 300 45 c 2,19,-1
 502 920 l 1,20,-1
 187 920 l 2,0,1
496 131 m 1,21,-1
 692 131 l 2,22,23
 818 131 818 131 901 183.5 c 128,-1,24
 984 236 984 236 984 350 c 256,25,26
 984 446 984 446 911 467 c 128,-1,27
 838 488 838 488 735 488 c 2,28,-1
 579 488 l 1,29,-1
 496 131 l 1,21,-1
EndSplineSet
Fore
SplineSet
187 920 m 2,0,1
 142 920 142 920 150 955 c 2,2,-1
 164 1015 l 2,3,4
 172 1050 172 1050 217 1050 c 2,5,-1
 663 1050 l 2,6,7
 708 1050 708 1050 698 1005 c 2,8,-1
 616 649 l 2,9,10
 606 610 606 610 598 588 c 1,11,-1
 600 588 l 1,12,13
 646 638 646 638 705 659 c 128,-1,14
 764 680 764 680 854 680 c 256,15,16
 1016 680 1016 680 1093 587 c 128,-1,17
 1170 494 1170 494 1170 354 c 256,18,19
 1170 208 1170 208 1055 95.5 c 128,-1,20
 940 -17 940 -17 680 -17 c 256,21,22
 504 -17 504 -17 423.5 107.5 c 128,-1,23
 343 232 343 232 392 444 c 2,24,-1
 502 920 l 1,25,-1
 187 920 l 2,0,1
552 370 m 0,26,27
 523 244 523 244 570.5 178.5 c 128,-1,28
 618 113 618 113 717 113 c 256,29,30
 842 113 842 113 913 178.5 c 128,-1,31
 984 244 984 244 984 366 c 256,32,33
 984 442 984 442 939 496 c 128,-1,34
 894 550 894 550 800 550 c 256,35,36
 698 550 698 550 633.5 496 c 128,-1,37
 569 442 569 442 552 370 c 0,26,27
EndSplineSet
EndChar

StartChar: v
Encoding: 118 118 28
Width: 986
Flags: W
HStem: 0 21G<290.5 455.5> 1030 20G<172 309 901 1058>
DStem2: 389 351 267 61 0.11727 -0.9931<-708.573 185.484> 499 351 507 61 0.50158 0.865111<-208.432 833.958>
LayerCount: 2
Fore
SplineSet
156 1001 m 2,0,1
 150 1050 150 1050 194 1050 c 2,2,-1
 293 1050 l 2,3,4
 325 1050 325 1050 329 1011 c 2,5,-1
 389 351 l 2,6,7
 393 311 393 311 396 260 c 128,-1,8
 399 209 399 209 399 164 c 1,9,-1
 403 164 l 1,10,11
 421 209 421 209 437.5 239.5 c 128,-1,12
 454 270 454 270 499 351 c 2,13,-1
 863 1011 l 2,14,15
 885 1050 885 1050 917 1050 c 2,16,-1
 1036 1050 l 2,17,18
 1080 1050 1080 1050 1052 1001 c 2,19,-1
 507 61 l 2,20,21
 472 0 472 0 439 0 c 2,22,-1
 307 0 l 2,23,24
 274 0 274 0 267 61 c 2,25,-1
 156 1001 l 2,0,1
EndSplineSet
EndChar

StartChar: y
Encoding: 121 121 29
Width: 1128
Flags: W
HStem: -417 130<164.246 536.28> -17 130<304.028 559.748> 1030 20G<286.5 417.5 956.5 1087.5>
DStem2: -74.7698 -417 102.149 -417 0.224951 0.97437<666.693 1515.51> 595.419 -417 771.806 -417 0.224951 0.97437<224.419 597.582 707.152 1515.47>
LayerCount: 2
Fore
SplineSet
106 366 m 2,0,-1
 254 1005 l 2,1,2
 264 1050 264 1050 309 1050 c 2,3,-1
 395 1050 l 2,4,5
 440 1050 440 1050 430 1005 c 2,6,-1
 294 414 l 2,7,8
 249 217 249 217 296.5 165 c 128,-1,9
 344 113 344 113 454 113 c 256,10,11
 560 113 560 113 665.5 226.5 c 128,-1,12
 771 340 771 340 807 496 c 2,13,-1
 924 1005 l 2,14,15
 934 1050 934 1050 979 1050 c 2,16,-1
 1065 1050 l 2,17,18
 1110 1050 1110 1050 1100 1005 c 2,19,-1
 866 -9 l 2,20,21
 819 -214 819 -214 708 -315.5 c 128,-1,22
 597 -417 597 -417 334 -417 c 256,23,24
 163 -417 163 -417 98 -384 c 152,-1,25
 33 -351 33 -351 0 -306 c 256,26,27
 -29 -266 -29 -266 2 -238 c 2,28,-1
 58 -186 l 2,29,30
 90 -157 90 -157 108 -186 c 256,31,32
 138 -234 138 -234 195 -260.5 c 128,-1,33
 252 -287 252 -287 365 -287 c 256,34,35
 486 -287 486 -287 571.545 -218.439 c 128,-1,36
 657.089 -149.879 657.089 -149.879 694 10 c 0,37,38
 717.433 111.5 717.433 111.5 731 165 c 1,39,-1
 727 165 l 1,40,41
 668 92 668 92 577 37.5 c 128,-1,42
 486 -17 486 -17 359 -17 c 256,43,44
 189 -17 189 -17 127 85.5 c 128,-1,45
 65 188 65 188 106 366 c 2,0,-1
EndSplineSet
EndChar

StartChar: e
Encoding: 101 101 30
Width: 1078
VWidth: 1000
Flags: W
HStem: -17 131<335.259 685.299> 937 130<465.001 764.149>
VStem: 68 186<200.835 509.416> 822 176<692.365 881.435>
DStem2: 265 538 260 399 0.980734 0.195349<0 519.964>
LayerCount: 2
Back
SplineSet
68 396 m 0,0,1
 68 716 68 716 231 891.5 c 128,-1,2
 394 1067 394 1067 642 1067 c 256,3,4
 842 1067 842 1067 932 951.5 c 128,-1,5
 1022 836 1022 836 1022 664 c 0,6,7
 1022 613 1022 613 1002 503 c 0,8,9
 994 458 994 458 953 458 c 2,10,-1
 256 458 l 1,11,12
 254 422 254 422 254 390 c 0,13,14
 254 262 254 262 308 188 c 128,-1,15
 362 114 362 114 497 114 c 256,16,17
 612 114 612 114 682 156 c 128,-1,18
 752 198 752 198 777 232 c 256,19,20
 812 279 812 279 840 253 c 9,21,-1
 899 202 l 26,22,23
 918 185 918 185 893 146 c 256,24,25
 870 110 870 110 769 46.5 c 128,-1,26
 668 -17 668 -17 473 -17 c 256,27,28
 260 -17 260 -17 164 106.5 c 128,-1,29
 68 230 68 230 68 396 c 0,0,1
275 588 m 1,30,-1
 840 588 l 1,31,32
 846 629 846 629 846 668 c 0,33,34
 846 800 846 800 787 869.5 c 128,-1,35
 728 939 728 939 615 939 c 256,36,37
 524 939 524 939 424 861.5 c 128,-1,38
 324 784 324 784 275 588 c 1,30,-1
EndSplineSet
Fore
SplineSet
68 396 m 256,0,1
 68 696 68 696 224.5 881.5 c 128,-1,2
 381 1067 381 1067 652 1067 c 256,3,4
 807 1067 807 1067 902.5 978.5 c 128,-1,5
 998 890 998 890 998 778 c 256,6,7
 998 630 998 630 856.5 560 c 128,-1,8
 715 490 715 490 506 448 c 2,9,-1
 260 399 l 1,10,11
 254 361 254 361 254 359 c 0,12,13
 254 260 254 260 308 187 c 128,-1,14
 362 114 362 114 497 114 c 256,15,16
 612 114 612 114 682 156 c 128,-1,17
 752 198 752 198 777 232 c 256,18,19
 812 279 812 279 840 253 c 9,20,-1
 899 202 l 26,21,22
 918 185 918 185 893 146 c 256,23,24
 870 110 870 110 769 46.5 c 128,-1,25
 668 -17 668 -17 473 -17 c 256,26,27
 260 -17 260 -17 164 106.5 c 128,-1,28
 68 230 68 230 68 396 c 256,0,1
265 538 m 1,29,-1
 470 578 l 2,30,31
 610 605 610 605 716 652.5 c 128,-1,32
 822 700 822 700 822 786 c 256,33,34
 822 854 822 854 760.5 895.5 c 128,-1,35
 699 937 699 937 619 937 c 256,36,37
 498 937 498 937 403.5 845 c 128,-1,38
 309 753 309 753 265 538 c 1,29,-1
EndSplineSet
EndChar

StartChar: dotaccent
Encoding: 729 729 32
Width: 614
Flags: W
HStem: 1240 176<416.186 571.941>
VStem: 396 196
LayerCount: 2
Fore
SplineSet
430 1240 m 2,0,1
 385 1240 385 1240 396 1285 c 2,2,-1
 416 1371 l 2,3,4
 426 1416 426 1416 471 1416 c 2,5,-1
 557 1416 l 2,6,7
 602 1416 602 1416 592 1371 c 2,8,-1
 572 1285 l 2,9,10
 561 1240 561 1240 516 1240 c 2,11,-1
 430 1240 l 2,0,1
EndSplineSet
EndChar

StartChar: q
Encoding: 113 113 33
Width: 1119
Flags: W
HStem: -400 21G<611.5 742.5> -17 130<327.016 567.391> 937 130<481.158 798.824> 1030 20G<952.5 1076.5>
VStem: 70 186<191.965 632.081>
DStem2: 588.611 -400 764.611 -400 0.224951 0.97437<29.7767 580.3 694.336 1273.58 1367.46 1497.96>
LayerCount: 2
Back
SplineSet
913 1005 m 6,40,41
 599 -355 l 6,39,-1
EndSplineSet
Fore
SplineSet
70 379 m 0,0,1
 70 634 70 634 231 850.5 c 128,-1,2
 392 1067 392 1067 610 1067 c 256,3,4
 721 1067 721 1067 783 1033.5 c 128,-1,5
 845 1000 845 1000 896 932 c 1,6,-1
 898 932 l 1,7,-1
 921 1005 l 2,8,9
 935 1050 935 1050 970 1050 c 2,10,-1
 1054 1050 l 2,11,12
 1099 1050 1099 1050 1089 1005 c 2,13,-1
 775 -355 l 6,14,15
 765 -400 765 -400 720 -400 c 6,16,-1
 634 -400 l 6,17,18
 589 -400 589 -400 599 -355 c 6,19,-1
 705 104 l 6,20,21
 714 141 714 141 721 165 c 5,22,-1
 719 165 l 1,23,24
 675 86 675 86 582 34.5 c 128,-1,25
 489 -17 489 -17 409 -17 c 256,26,27
 219 -17 219 -17 144.5 99.5 c 128,-1,28
 70 216 70 216 70 379 c 0,0,1
256 372 m 0,29,30
 256 268 256 268 301 190.5 c 128,-1,31
 346 113 346 113 459 113 c 256,32,33
 557 113 557 113 658.5 230.5 c 128,-1,34
 760 348 760 348 791 480 c 2,35,-1
 856 760 l 17,36,37
 846 860 846 860 791 898.5 c 128,-1,38
 736 937 736 937 624 937 c 256,39,40
 472 937 472 937 364 767.5 c 128,-1,41
 256 598 256 598 256 372 c 0,29,30
EndSplineSet
EndChar

StartChar: cyrbreve
Encoding: 63188 63188 38
Width: 1120
Flags: W
HStem: 1146 124<602.346 868.2> 1430 20G<439.5 558.5>
VStem: 409 166<1360 1449.3>
LayerCount: 2
Back
SplineSet
207 1405 m 2,0,1
 204 1450 204 1450 252 1450 c 2,2,-1
 328 1450 l 2,3,4
 368 1450 368 1450 373 1405 c 2,5,-1
 377 1371 l 2,6,7
 385 1304 385 1304 435 1287 c 128,-1,8
 485 1270 485 1270 560 1270 c 256,9,10
 635 1270 635 1270 685 1287 c 128,-1,11
 735 1304 735 1304 743 1371 c 2,12,-1
 747 1405 l 2,13,14
 752 1450 752 1450 792 1450 c 2,15,-1
 868 1450 l 2,16,17
 916 1450 916 1450 913 1405 c 2,18,-1
 909 1344 l 2,19,20
 902 1244 902 1244 793.5 1195 c 128,-1,21
 685 1146 685 1146 560 1146 c 256,22,23
 435 1146 435 1146 326.5 1195 c 128,-1,24
 218 1244 218 1244 211 1344 c 2,25,-1
 207 1405 l 2,0,1
EndSplineSet
Fore
SplineSet
409 1405 m 2,0,1
 414 1450 414 1450 465 1450 c 2,2,-1
 541 1450 l 2,3,4
 576 1450 576 1450 575 1405 c 2,5,-1
 574 1371 l 2,6,7
 572 1305 572 1305 616 1287.5 c 128,-1,8
 660 1270 660 1270 715 1270 c 256,9,10
 810 1270 810 1270 888.5 1328 c 128,-1,11
 967 1386 967 1386 1024 1444 c 256,12,13
 1051 1472 1051 1472 1077 1456 c 258,14,-1
 1117 1432 l 258,15,16
 1143 1417 1143 1417 1108 1376 c 256,17,18
 1018 1272 1018 1272 925 1209 c 128,-1,19
 832 1146 832 1146 677 1146 c 256,20,21
 534 1146 534 1146 464 1209 c 128,-1,22
 394 1272 394 1272 404 1360 c 2,23,-1
 409 1405 l 2,0,1
EndSplineSet
EndChar

StartChar: afii10076
Encoding: 1082 1082 39
Width: 989
Flags: W
HStem: 0 21G<44.5 175.5 680.5 809.5> 482 132<340 460.466> 1030 20G<286.5 417.5 872 1031>
DStem2: 21.6109 0 197.722 0 0.224951 0.97437<29.7767 534.295 669.885 1087.52> 818 59 537 358 0.358979 -0.933346<-498.461 20.5157> 601 760 740 700 0.680161 0.733063<-188.649 436.446>
LayerCount: 2
Fore
SplineSet
67 0 m 2,0,1
 22 0 22 0 32 45 c 2,2,-1
 254 1005 l 2,3,4
 264 1050 264 1050 309 1050 c 2,5,-1
 395 1050 l 2,6,7
 440 1050 440 1050 430 1005 c 2,8,-1
 340 614 l 1,9,-1
 381 614 l 2,10,11
 434 614 434 614 500 667 c 128,-1,12
 566 720 566 720 601 760 c 2,13,-1
 831 1024 l 2,14,15
 854 1050 854 1050 890 1050 c 2,16,-1
 997 1050 l 2,17,18
 1065 1050 1065 1050 1010 991 c 2,19,-1
 740 700 l 2,20,21
 713 671 713 671 644.5 618.5 c 128,-1,22
 576 566 576 566 541 554 c 1,23,-1
 540 552 l 1,24,25
 593 533 593 533 626.5 501.5 c 128,-1,26
 660 470 660 470 693 384 c 2,27,-1
 818 59 l 2,28,29
 841 0 841 0 778 0 c 2,30,-1
 698 0 l 2,31,32
 663 0 663 0 650 37 c 2,33,-1
 537 358 l 2,34,35
 511 433 511 433 462 457.5 c 128,-1,36
 413 482 413 482 351 482 c 2,37,-1
 309 482 l 1,38,-1
 208 45 l 2,39,40
 198 0 198 0 153 0 c 2,41,-1
 67 0 l 2,0,1
EndSplineSet
EndChar

StartChar: afii10072
Encoding: 1078 1078 40
Width: 1458
Flags: W
HStem: 0 21G<-59.5 104 543.5 674.5 1150.5 1278> 482 132<542.404 632 839 938.136> 1030 20G<203.5 329.5 785.5 916.5 1340.5 1499.5>
DStem2: -41 59 152 37 0.640417 0.768028<21.0596 665.124> 462 760 197 991 0.40703 -0.913415<-336.79 151.234> 520.611 0 696.611 0 0.224951 0.97437<29.7767 494.703 669.885 1087.52> 1287 59 1010 358 0.34891 -0.937156<-495.915 20.6388> 1074 760 1220 706 0.672544 0.740058<-183.337 432.153>
LayerCount: 2
Back
SplineSet
1247 0 m 2,0,1
 1149 0 l 2,71,-1
 1113 0 1113 0 1100.54 37 c 2,69,70
 991.65 358 l 2,68,-1
 964.12 438 964.12 438 930.199 460 c 128,-1,67
 896.278 482 896.278 482 834.278 482 c 2,65,66
 808.278 482 l 1,64,-1
 707.389 45 l 2,63,-1
 697 0 697 0 652 0 c 2,61,62
 566 0 l 2,60,-1
 521 0 521 0 531.389 45 c 2,58,59
 632.278 482 l 1,57,-1
 606.278 482 l 2,56,-1
 544.278 482 544.278 482 500.199 460 c 128,-1,55
 456.12 438 456.12 438 391.65 358 c 2,53,54
 134.542 37 l 2,52,-1
 105 0 105 0 69 0 c 2,50,51
 -29 0 l 2,49,-1
 -91 0 -91 0 -41.3789 59 c 2,47,48
 229.653 384 l 2,46,-1
 300.277 469 300.277 469 346.05 500.5 c 128,-1,45
 391.822 532 391.822 532 446.439 552 c 1,43,44
 446.901 554 l 1,42,-1
 405.672 566 405.672 566 377.368 608 c 128,-1,41
 349.064 650 349.064 650 323.993 706 c 2,39,40
 196.79 991 l 2,38,-1
 170.411 1050 170.411 1050 236.411 1050 c 2,36,37
 327.411 1050 l 2,35,-1
 364.411 1050 364.411 1050 374.409 1024 c 2,33,34
 478.46 760 l 2,32,-1
 493.687 722 493.687 722 539.22 668 c 128,-1,31
 584.753 614 584.753 614 637.753 614 c 2,29,30
 662.753 614 l 1,28,-1
 753.022 1005 l 2,27,-1
 763.412 1050 763.412 1050 808.412 1050 c 2,25,26
 894.412 1050 l 2,24,-1
 939.412 1050 939.412 1050 929.022 1005 c 2,22,23
 838.753 614 l 1,21,-1
 863.753 614 l 2,20,-1
 916.753 614 916.753 614 987.22 668 c 128,-1,19
 1057.69 722 1057.69 722 1090.46 760 c 2,17,18
 1316.41 1024 l 2,16,-1
 1338.41 1050 1338.41 1050 1375.41 1050 c 2,14,15
 1466.41 1050 l 2,13,-1
 1532.41 1050 1532.41 1050 1478.79 991 c 2,11,12
 1219.99 706 l 2,10,-1
 1169.06 650 1169.06 650 1121.48 608.5 c 128,-1,9
 1073.9 567 1073.9 567 1026.9 554 c 1,7,8
 1026.44 552 l 1,6,-1
 1071.59 531 1071.59 531 1102.28 501.5 c 128,-1,5
 1132.97 472 1132.97 472 1165.65 384 c 2,3,4
 1286.62 59 l 2,2,-1
 1309 0 1309 0 1247 0 c 2,0,1
EndSplineSet
Fore
SplineSet
-29 0 m 2,0,1
 -90 0 -90 0 -41 59 c 2,2,-1
 230 384 l 2,3,4
 301 469 301 469 346.5 500.5 c 128,-1,5
 392 532 392 532 446 552 c 1,6,-1
 447 554 l 1,7,8
 406 566 406 566 377.5 608 c 128,-1,9
 349 650 349 650 324 706 c 2,10,-1
 197 991 l 2,11,12
 171 1050 171 1050 236 1050 c 2,13,-1
 311 1050 l 2,14,15
 348 1050 348 1050 358 1024 c 2,16,-1
 462 760 l 2,17,18
 476 724 476 724 530.5 669 c 128,-1,19
 585 614 585 614 638 614 c 2,20,-1
 663 614 l 1,21,-1
 753 1005 l 2,22,23
 763 1050 763 1050 808 1050 c 2,24,-1
 894 1050 l 2,25,26
 939 1050 939 1050 929 1005 c 2,27,-1
 839 614 l 1,28,-1
 864 614 l 2,29,30
 917 614 917 614 978.5 667.5 c 128,-1,31
 1040 721 1040 721 1074 760 c 2,32,-1
 1300 1024 l 2,33,34
 1322 1050 1322 1050 1359 1050 c 2,35,-1
 1466 1050 l 2,36,37
 1533 1050 1533 1050 1479 991 c 2,38,-1
 1220 706 l 2,39,40
 1179 661 1179 661 1115.5 611.5 c 128,-1,41
 1052 562 1052 562 1027 554 c 1,42,-1
 1026 552 l 1,43,44
 1072 532 1072 532 1103.5 499.5 c 128,-1,45
 1135 467 1135 467 1166 384 c 2,46,-1
 1287 59 l 2,47,48
 1309 0 1309 0 1247 0 c 2,49,-1
 1168 0 l 2,50,51
 1133 0 1133 0 1120 37 c 2,52,-1
 1010 358 l 2,53,54
 983 438 983 438 939.5 460 c 128,-1,55
 896 482 896 482 834 482 c 2,56,-1
 808 482 l 1,57,-1
 707 45 l 2,58,59
 697 0 697 0 652 0 c 2,60,-1
 566 0 l 2,61,62
 521 0 521 0 531 45 c 2,63,-1
 632 482 l 1,64,-1
 606 482 l 2,65,66
 544 482 544 482 509 460 c 128,-1,67
 474 438 474 438 410 358 c 2,68,-1
 152 37 l 2,69,70
 122 0 122 0 86 0 c 2,71,-1
 -29 0 l 2,0,1
EndSplineSet
EndChar

StartChar: afii10097
Encoding: 1103 1103 41
Width: 1084
Flags: W
HStem: 0 21G<-33.5 145 668.5 799.5> 432 130<537.967 746> 919 131<459.981 858>
VStem: 199 186<607.208 852.304>
DStem2: -11 59 195 37 0.69575 0.718284<32.7622 597.882> 645.611 0 821.611 0 0.224951 0.97437<29.7767 443.51 576.927 943.223>
LayerCount: 2
Back
SplineSet
1 0 m 2,0,1
 -69 0 -69 0 -11.3789 59 c 2,2,-1
 236.492 314 l 2,3,4
 271.804 350 271.804 350 332.809 395.5 c 128,-1,5
 393.812 441 393.812 441 436.199 460 c 1,6,-1
 436.661 462 l 1,7,8
 270.973 498 270.973 498 223.133 568 c 128,-1,9
 175.294 638 175.294 638 203.69 761 c 256,10,11
 236.013 901 236.013 901 339.212 975.5 c 128,-1,12
 442.411 1050 442.411 1050 672.412 1050 c 2,13,-1
 1019.41 1050 l 2,14,15
 1064.41 1050 1064.41 1050 1054.02 1005 c 2,16,-1
 832.389 45 l 2,17,18
 822 0 822 0 777 0 c 2,19,-1
 691 0 l 2,20,21
 646 0 646 0 656.389 45 c 2,22,-1
 745.735 432 l 1,23,-1
 651.735 432 l 2,24,25
 583.735 432 583.735 432 533.001 398.5 c 128,-1,26
 482.267 365 482.267 365 410.49 288 c 2,27,-1
 176.542 37 l 2,28,29
 142 0 142 0 111 0 c 2,30,-1
 1 0 l 2,0,1
389.69 761 m 256,31,32
 361.756 640 361.756 640 430.252 601 c 128,-1,33
 498.748 562 498.748 562 604.748 562 c 2,34,-1
 775.748 562 l 1,35,-1
 858.168 919 l 1,36,-1
 688.168 919 l 2,37,38
 550.168 919 550.168 919 480.434 885.5 c 128,-1,39
 410.699 852 410.699 852 389.69 761 c 256,31,32
EndSplineSet
Fore
SplineSet
1 0 m 2,0,1
 -68 0 -68 0 -11 59 c 2,2,-1
 236 314 l 2,3,4
 267 346 267 346 331.5 397 c 128,-1,5
 396 448 396 448 436 460 c 1,6,-1
 437 462 l 1,7,8
 298 488 298 488 248.5 556 c 128,-1,9
 199 624 199 624 199 713 c 256,10,11
 199 874 199 874 308.5 962 c 128,-1,12
 418 1050 418 1050 652 1050 c 2,13,-1
 1019 1050 l 2,14,15
 1064 1050 1064 1050 1054 1005 c 2,16,-1
 832 45 l 2,17,18
 822 0 822 0 777 0 c 2,19,-1
 691 0 l 2,20,21
 646 0 646 0 656 45 c 2,22,-1
 746 432 l 1,23,-1
 662 432 l 2,24,25
 606 432 606 432 552.5 398 c 128,-1,26
 499 364 499 364 428 288 c 2,27,-1
 195 37 l 2,28,29
 161 0 161 0 129 0 c 2,30,-1
 1 0 l 2,0,1
385 728 m 256,31,32
 385 630 385 630 445.5 596 c 128,-1,33
 506 562 506 562 625 562 c 2,34,-1
 776 562 l 1,35,-1
 858 919 l 1,36,-1
 668 919 l 2,37,38
 526 919 526 919 455.5 873.5 c 128,-1,39
 385 828 385 828 385 728 c 256,31,32
EndSplineSet
EndChar

StartChar: afii10096
Encoding: 1102 1102 42
Width: 1559
Flags: W
HStem: -17 130<754.818 1072.41> 0 21G<44.5 175.5> 482 132<340 483> 937 130<895.352 1215.18> 1030 20G<286.5 417.5>
VStem: 479 186<207.174 573.292> 1305 186<391.407 842.826>
DStem2: 17.6862 -17 193.797 -17 0.224951 0.97437<47.2239 551.742 687.332 1104.96>
LayerCount: 2
Back
SplineSet
479 402 m 0,0,1
 479 666 479 666 642.5 866.5 c 128,-1,2
 806 1067 806 1067 1071 1067 c 256,3,4
 1305 1067 1305 1067 1398 932.5 c 128,-1,5
 1491 798 1491 798 1491 648 c 0,6,7
 1491 384 1491 384 1327.5 183.5 c 128,-1,8
 1164 -17 1164 -17 899 -17 c 256,9,10
 665 -17 665 -17 572 117.5 c 128,-1,11
 479 252 479 252 479 402 c 0,0,1
665 387 m 0,12,13
 665 262 665 262 723.5 187.5 c 128,-1,14
 782 113 782 113 912 113 c 256,15,16
 1068 113 1068 113 1186.5 254.5 c 128,-1,17
 1305 396 1305 396 1305 663 c 0,18,19
 1305 788 1305 788 1246.5 862.5 c 128,-1,20
 1188 937 1188 937 1058 937 c 256,21,22
 902 937 902 937 783.5 795.5 c 128,-1,23
 665 654 665 654 665 387 c 0,12,13
67 0 m 2,0,1
 22 0 22 0 32.3887 45 c 2,2,-1
 254.022 1005 l 2,3,4
 264.411 1050 264.411 1050 309.411 1050 c 2,5,-1
 395.411 1050 l 2,6,7
 440.411 1050 440.411 1050 430.022 1005 c 2,8,-1
 339.753 614 l 1,9,-1
 523.753 614 l 1,10,11
 568.692 774 568.692 774 720.014 920.5 c 128,-1,12
 871.336 1067 871.336 1067 1111.34 1067 c 256,13,14
 1351.34 1067 1351.34 1067 1440.4 913.5 c 128,-1,15
 1529.46 760 1529.46 760 1475.21 525 c 256,16,17
 1420.95 290 1420.95 290 1261.01 136.5 c 128,-1,18
 1101.08 -17 1101.08 -17 861.075 -17 c 256,19,20
 621.075 -17 621.075 -17 535.09 132.5 c 128,-1,21
 449.104 282 449.104 282 488.278 482 c 1,22,-1
 309.278 482 l 1,23,-1
 208.389 45 l 2,24,25
 198 0 198 0 153 0 c 2,26,-1
 67 0 l 2,0,1
683.206 525 m 256,27,28
 634.724 315 634.724 315 694.406 214 c 128,-1,29
 754.088 113 754.088 113 891.088 113 c 256,30,31
 1028.09 113 1028.09 113 1134.41 214 c 128,-1,32
 1240.72 315 1240.72 315 1289.21 525 c 256,33,34
 1337.69 735 1337.69 735 1278.01 836 c 128,-1,35
 1218.32 937 1218.32 937 1081.32 937 c 256,36,37
 944.323 937 944.323 937 838.006 836 c 128,-1,38
 731.688 735 731.688 735 683.206 525 c 256,27,28
EndSplineSet
Fore
SplineSet
67 0 m 2,0,1
 22 0 22 0 32 45 c 2,2,-1
 254 1005 l 2,3,4
 264 1050 264 1050 309 1050 c 2,5,-1
 395 1050 l 2,6,7
 440 1050 440 1050 430 1005 c 2,8,-1
 340 614 l 1,9,-1
 508 614 l 1,10,11
 541 758 541 758 684.5 912.5 c 128,-1,12
 828 1067 828 1067 1071 1067 c 256,13,14
 1305 1067 1305 1067 1398 932.5 c 128,-1,15
 1491 798 1491 798 1491 648 c 256,16,17
 1491 384 1491 384 1327.5 183.5 c 128,-1,18
 1164 -17 1164 -17 899 -17 c 256,19,20
 665 -17 665 -17 572 117.5 c 128,-1,21
 479 252 479 252 479 402 c 256,22,23
 479 443 479 443 483 482 c 1,24,-1
 309 482 l 1,25,-1
 208 45 l 2,26,27
 198 0 198 0 153 0 c 2,28,-1
 67 0 l 2,0,1
665 387 m 256,29,30
 665 262 665 262 723.5 187.5 c 128,-1,31
 782 113 782 113 912 113 c 256,32,33
 1068 113 1068 113 1186.5 254.5 c 128,-1,34
 1305 396 1305 396 1305 663 c 256,35,36
 1305 788 1305 788 1246.5 862.5 c 128,-1,37
 1188 937 1188 937 1058 937 c 256,38,39
 902 937 902 937 783.5 795.5 c 128,-1,40
 665 654 665 654 665 387 c 256,29,30
EndSplineSet
EndChar

StartChar: afii10066
Encoding: 1073 1073 43
Width: 1148
Flags: MW
HStem: -17 130<343.995 661.414> 937 130<484.473 804.182> 1494 20G<1098 1156.5>
VStem: 74 180<206.771 664.761> 894 186<391.407 842.826>
LayerCount: 2
Back
SplineSet
68 402 m 0,0,1
 68 666 68 666 231.5 866.5 c 128,-1,2
 395 1067 395 1067 660 1067 c 256,3,4
 894 1067 894 1067 987 932.5 c 128,-1,5
 1080 798 1080 798 1080 648 c 0,6,7
 1080 384 1080 384 916.5 183.5 c 128,-1,8
 753 -17 753 -17 488 -17 c 256,9,10
 254 -17 254 -17 161 117.5 c 128,-1,11
 68 252 68 252 68 402 c 0,0,1
254 387 m 0,12,13
 254 262 254 262 312.5 187.5 c 128,-1,14
 371 113 371 113 501 113 c 256,15,16
 657 113 657 113 775.5 254.5 c 128,-1,17
 894 396 894 396 894 663 c 0,18,19
 894 788 894 788 835.5 862.5 c 128,-1,20
 777 937 777 937 647 937 c 256,21,22
 491 937 491 937 372.5 795.5 c 128,-1,23
 254 654 254 654 254 387 c 0,12,13
107.521 600 m 256,0,1
 133.84 714 133.84 714 188.855 870 c 128,-1,2
 243.871 1026 243.871 1026 308.688 1120.5 c 128,-1,3
 373.505 1215 373.505 1215 436.164 1272 c 128,-1,4
 498.824 1329 498.824 1329 595.06 1375.5 c 128,-1,5
 691.295 1422 691.295 1422 791.142 1430 c 256,6,7
 912.45 1440 912.45 1440 967.681 1441 c 128,-1,8
 1022.91 1442 1022.91 1442 1072.07 1460 c 256,9,10
 1114.76 1476 1114.76 1476 1127.65 1495 c 128,-1,11
 1140.53 1514 1140.53 1514 1174.53 1514 c 10,12,-1
 1198.53 1514 l 18,13,14
 1233.53 1514 1233.53 1514 1225.45 1479 c 256,15,16
 1213.22 1426 1213.22 1426 1157.41 1370.5 c 128,-1,17
 1101.59 1315 1101.59 1315 996.975 1295 c 256,18,19
 950.896 1286 950.896 1286 862.512 1280 c 128,-1,20
 774.126 1274 774.126 1274 707.125 1267.5 c 128,-1,21
 640.125 1261 640.125 1261 583.892 1234 c 0,22,23
 362.112 1131 362.112 1131 269.773 822 c 1,24,-1
 276.851 818 l 17,25,26
 313.935 892 313.935 892 431.136 979.5 c 128,-1,27
 548.336 1067 548.336 1067 700.336 1067 c 256,28,29
 940.336 1067 940.336 1067 1029.4 913.5 c 128,-1,30
 1118.46 760 1118.46 760 1064.21 525 c 256,31,32
 1009.95 290 1009.95 290 850.014 136.5 c 128,-1,33
 690.075 -17 690.075 -17 450.075 -17 c 256,34,35
 194.075 -17 194.075 -17 118.938 153.5 c 128,-1,36
 43.8018 324 43.8018 324 107.521 600 c 256,0,1
272.206 525 m 256,37,38
 223.724 315 223.724 315 283.406 214 c 128,-1,39
 343.088 113 343.088 113 480.088 113 c 256,40,41
 617.088 113 617.088 113 723.406 214 c 128,-1,42
 829.724 315 829.724 315 878.206 525 c 256,43,44
 926.688 735 926.688 735 867.006 836 c 128,-1,45
 807.323 937 807.323 937 670.323 937 c 256,46,47
 533.323 937 533.323 937 427.006 836 c 128,-1,48
 320.688 735 320.688 735 272.206 525 c 256,37,38
EndSplineSet
Fore
SplineSet
74 452 m 256,0,1
 74 602 74 602 142.5 814 c 128,-1,2
 211 1026 211 1026 270.5 1120.5 c 128,-1,3
 330 1215 330 1215 389.5 1272 c 128,-1,4
 449 1329 449 1329 543 1375.5 c 128,-1,5
 637 1422 637 1422 736 1430 c 256,6,7
 857 1440 857 1440 912 1441 c 128,-1,8
 967 1442 967 1442 1015 1460 c 256,9,10
 1057 1476 1057 1476 1069 1495 c 128,-1,11
 1081 1514 1081 1514 1115 1514 c 266,12,-1
 1139 1514 l 274,13,14
 1174 1514 1174 1514 1168 1479 c 256,15,16
 1158 1426 1158 1426 1105.5 1370.5 c 128,-1,17
 1053 1315 1053 1315 949 1295 c 256,18,19
 904 1286 904 1286 816 1280 c 128,-1,20
 728 1274 728 1274 659.5 1267.5 c 128,-1,21
 591 1261 591 1261 540 1234 c 256,22,23
 343 1131 343 1131 254 822 c 1,24,-1
 261 818 l 17,25,26
 283 876 283 876 404.5 971.5 c 128,-1,27
 526 1067 526 1067 660 1067 c 256,28,29
 894 1067 894 1067 987 932.5 c 128,-1,30
 1080 798 1080 798 1080 648 c 256,31,32
 1080 384 1080 384 916.5 183.5 c 128,-1,33
 753 -17 753 -17 488 -17 c 256,34,35
 254 -17 254 -17 164 116.5 c 128,-1,36
 74 250 74 250 74 452 c 256,0,1
254 387 m 256,37,38
 254 262 254 262 312.5 187.5 c 128,-1,39
 371 113 371 113 501 113 c 256,40,41
 657 113 657 113 775.5 254.5 c 128,-1,42
 894 396 894 396 894 663 c 256,43,44
 894 788 894 788 835.5 862.5 c 128,-1,45
 777 937 777 937 647 937 c 256,46,47
 491 937 491 937 372.5 795.5 c 128,-1,48
 254 654 254 654 254 387 c 256,37,38
EndSplineSet
EndChar

StartChar: afii10095
Encoding: 1101 1101 45
Width: 1026
Flags: W
HStem: -17 130<211.192 544.241> 482 130<273.325 756> 937 130<334.984 683.273>
VStem: 772 186<612 844.174>
LayerCount: 2
Back
SplineSet
-54 402 m 0,0,1
 -54 666 -54 666 109.5 866.5 c 128,-1,2
 273 1067 273 1067 538 1067 c 256,3,4
 772 1067 772 1067 865 932.5 c 128,-1,5
 958 798 958 798 958 648 c 0,6,7
 958 384 958 384 794.5 183.5 c 128,-1,8
 631 -17 631 -17 366 -17 c 256,9,10
 132 -17 132 -17 39 117.5 c 128,-1,11
 -54 252 -54 252 -54 402 c 0,0,1
132 387 m 0,12,13
 132 262 132 262 190.5 187.5 c 128,-1,14
 249 113 249 113 379 113 c 256,15,16
 535 113 535 113 653.5 254.5 c 128,-1,17
 772 396 772 396 772 663 c 0,18,19
 772 788 772 788 713.5 862.5 c 128,-1,20
 655 937 655 937 525 937 c 256,21,22
 369 937 369 937 250.5 795.5 c 128,-1,23
 132 654 132 654 132 387 c 0,12,13
-6.83105 148 m 256,0,1
 -24.9824 182 -24.9824 182 7.86621 203 c 257,2,-1
 77.7168 250 l 258,3,4
 117.929 277.057 117.929 277.057 135.33 231 c 257,5,6
 156.557 180 156.557 180 202.822 146.5 c 128,-1,7
 249.088 113 249.088 113 369.088 113 c 256,8,9
 511.088 113 511.088 113 603.827 198.5 c 128,-1,10
 696.566 284 696.566 284 747.278 482 c 1,11,-1
 299.278 482 l 2,12,13
 254.278 482 254.278 482 262.358 517 c 2,14,-1
 276.211 577 l 2,15,16
 284.292 612 284.292 612 329.291 612 c 2,17,-1
 773.291 612 l 1,18,19
 807.922 762 807.922 762 749.622 849.5 c 128,-1,20
 691.323 937 691.323 937 559.323 937 c 256,21,22
 457.323 937 457.323 937 391.551 905.5 c 128,-1,23
 325.779 874 325.779 874 290.698 839 c 256,24,25
 245.54 795 245.54 795 223.312 820 c 258,26,-1
 178.855 870 l 258,27,28
 157.464 894.059 157.464 894.059 202.631 934 c 256,29,30
 250.327 976 250.327 976 346.332 1021.5 c 128,-1,31
 442.336 1067 442.336 1067 589.336 1067 c 256,32,33
 834.336 1067 834.336 1067 918.784 926 c 128,-1,34
 1003.23 785 1003.23 785 943.206 525 c 256,35,36
 883.18 265 883.18 265 733.628 124 c 128,-1,37
 584.075 -17 584.075 -17 339.075 -17 c 256,38,39
 151.075 -17 151.075 -17 83.2734 44.5 c 128,-1,40
 15.4717 106 15.4717 106 -6.83105 148 c 256,0,1
EndSplineSet
Fore
SplineSet
16 154 m 256,0,1
 -2 190 -2 190 23 208 c 258,2,-1
 79 249 l 258,3,4
 109 271 109 271 140 225 c 256,5,6
 166 186 166 186 222 149.5 c 128,-1,7
 278 113 278 113 369 113 c 256,8,9
 515 113 515 113 617.5 210 c 128,-1,10
 720 307 720 307 756 482 c 1,11,-1
 298 482 l 2,12,13
 253 482 253 482 261 517 c 2,14,-1
 275 577 l 2,15,16
 283 612 283 612 328 612 c 2,17,-1
 772 612 l 1,18,19
 785 757 785 757 726.5 847 c 128,-1,20
 668 937 668 937 524 937 c 256,21,22
 438 937 438 937 370 908.5 c 128,-1,23
 302 880 302 880 270 846 c 256,24,25
 236 810 236 810 216 829 c 258,26,-1
 164 876 l 258,27,28
 132 904 132 904 168 941 c 256,29,30
 218 994 218 994 314 1030.5 c 128,-1,31
 410 1067 410 1067 537 1067 c 256,32,33
 762 1067 762 1067 860 942 c 128,-1,34
 958 817 958 817 958 645 c 256,35,36
 958 389 958 389 798 186 c 128,-1,37
 638 -17 638 -17 356 -17 c 256,38,39
 206 -17 206 -17 124 41.5 c 128,-1,40
 42 100 42 100 16 154 c 256,0,1
EndSplineSet
EndChar

StartChar: afii10073
Encoding: 1079 1079 46
Width: 982
Flags: W
HStem: -17 130<215.809 558.134> 483 130<309.259 626.687> 937 130<330.6 675.544>
VStem: 666 186<214.085 444.024> 730 176<690.394 890.074>
LayerCount: 2
Back
SplineSet
-2 0 m 6,0,1
 -47 0 -47 0 -37 45 c 6,2,-1
 185 1005 l 6,3,4
 195 1050 195 1050 240 1050 c 6,5,-1
 543 1050 l 6,6,7
 773 1050 773 1050 839.5 980 c 132,-1,8
 906 910 906 910 906 813 c 260,9,10
 906 724 906 724 845.5 654 c 132,-1,11
 785 584 785 584 686 552 c 5,12,-1
 686 551 l 5,13,14
 785 516 785 516 817 463 c 132,-1,15
 849 410 849 410 849 332 c 260,16,17
 849 216 849 216 739 108 c 132,-1,18
 629 0 629 0 391 0 c 6,19,-1
 -2 0 l 6,0,1
159 131 m 5,20,-1
 375 131 l 6,21,22
 507 131 507 131 585 181 c 132,-1,23
 663 231 663 231 663 352 c 260,24,25
 663 434 663 434 587 454 c 132,-1,26
 511 474 511 474 414 474 c 6,27,-1
 238 474 l 5,28,-1
 159 131 l 5,20,-1
269 605 m 5,29,-1
 445 605 l 6,30,31
 583 605 583 605 656.5 666.5 c 132,-1,32
 730 728 730 728 730 785 c 260,33,34
 730 870 730 870 670.5 895 c 132,-1,35
 611 920 611 920 477 920 c 6,36,-1
 341 920 l 5,37,-1
 269 605 l 5,29,-1
16 154 m 256,0,1
 -2 190 -2 190 23 208 c 258,2,-1
 79 249 l 258,3,4
 109 271 109 271 140 225 c 256,5,6
 166 186 166 186 222 149.5 c 128,-1,7
 278 113 278 113 369 113 c 256,8,9
 515 113 515 113 617.5 210 c 128,-1,10
 720 307 720 307 756 482 c 1,11,-1
 298 482 l 2,12,13
 253 482 253 482 261 517 c 2,14,-1
 275 577 l 2,15,16
 283 612 283 612 328 612 c 2,17,-1
 772 612 l 1,18,19
 785 757 785 757 726.5 847 c 128,-1,20
 668 937 668 937 524 937 c 256,21,22
 438 937 438 937 370 908.5 c 128,-1,23
 302 880 302 880 270 846 c 256,24,25
 236 810 236 810 216 829 c 258,26,-1
 164 876 l 258,27,28
 132 904 132 904 168 941 c 256,29,30
 218 994 218 994 314 1030.5 c 128,-1,31
 410 1067 410 1067 537 1067 c 256,32,33
 762 1067 762 1067 860 942 c 128,-1,34
 958 817 958 817 958 645 c 256,35,36
 958 389 958 389 798 186 c 128,-1,37
 638 -17 638 -17 356 -17 c 256,38,39
 206 -17 206 -17 124 41.5 c 128,-1,40
 42 100 42 100 16 154 c 256,0,1
EndSplineSet
Fore
SplineSet
27 119 m 256,0,1
 1 152 1 152 29 174 c 2,2,-1
 89 223 l 2,3,4
 116 245 116 245 142 213 c 256,5,6
 157 195 157 195 221.5 154 c 128,-1,7
 286 113 286 113 386 113 c 256,8,9
 518 113 518 113 592 181.5 c 128,-1,10
 666 250 666 250 666 333 c 256,11,12
 666 422 666 422 608 452.5 c 128,-1,13
 550 483 550 483 447 483 c 2,14,-1
 333 483 l 2,15,16
 288 483 288 483 296 518 c 2,17,-1
 309 578 l 2,18,19
 317 613 317 613 363 613 c 2,20,-1
 464 613 l 2,21,22
 586 613 586 613 658 666 c 128,-1,23
 730 719 730 719 730 800 c 256,24,25
 730 863 730 863 673 900 c 128,-1,26
 616 937 616 937 508 937 c 256,27,28
 438 937 438 937 377 913.5 c 128,-1,29
 316 890 316 890 288 864 c 256,30,31
 252 830 252 830 233 848 c 2,32,-1
 183 896 l 2,33,34
 151 927 151 927 190 962 c 256,35,36
 238 1006 238 1006 316 1036.5 c 128,-1,37
 394 1067 394 1067 544 1067 c 256,38,39
 740 1067 740 1067 823 992.5 c 128,-1,40
 906 918 906 918 906 819 c 256,41,42
 906 696 906 696 823.5 630 c 128,-1,43
 741 564 741 564 688 551 c 1,44,-1
 688 548 l 1,45,46
 762 532 762 532 807 476.5 c 128,-1,47
 852 421 852 421 852 324 c 256,48,49
 852 192 852 192 726 87.5 c 128,-1,50
 600 -17 600 -17 387 -17 c 256,51,52
 219 -17 219 -17 132 39.5 c 128,-1,53
 45 96 45 96 27 119 c 256,0,1
EndSplineSet
EndChar

StartChar: afii10078
Encoding: 1084 1084 47
Width: 1422
Flags: W
HStem: 0 21G<44.2969 175.285 536.39 645.486 1029 1137.3> 1030 20G<286.703 504.725 1141.26 1379.7>
DStem2: 21.6109 -1.24953e-10 197.611 -1.24953e-10 0.224951 0.97437<29.7471 921.953> 525 1011 397 860 0.142462 -0.9898<131.225 664.238 741.734 846.102> 678 274 698 61 0.518894 0.854838<-117.944 762.977> 983.611 -1.24953e-10 1159.61 -1.24953e-10 0.224951 0.97437<29.7453 883.261>
LayerCount: 2
Back
SplineSet
263 991 m 2,0,1
 246 1040 246 1040 290 1040 c 2,2,-1
 399 1040 l 2,3,4
 431 1040 431 1040 444 1001 c 2,5,-1
 656 351 l 2,6,7
 673 299 673 299 687 254 c 128,-1,8
 701 209 701 209 709 164 c 1,9,-1
 713 164 l 1,10,11
 721 209 721 209 735 254 c 128,-1,12
 749 299 749 299 766 351 c 2,13,-1
 978 1001 l 2,14,15
 991 1040 991 1040 1023 1040 c 2,16,-1
 1132 1040 l 2,17,18
 1176 1040 1176 1040 1159 991 c 2,19,-1
 831 61 l 2,20,21
 809 0 809 0 777 0 c 2,22,-1
 645 0 l 2,23,24
 613 0 613 0 591 61 c 2,25,-1
 263 991 l 2,0,1
EndSplineSet
Fore
SplineSet
67 0 m 2,0,1
 21.5938 0 21.5938 0 32 45 c 2,2,-1
 254 1005 l 2,3,4
 264.406 1050 264.406 1050 309 1050 c 2,5,-1
 489 1050 l 2,6,7
 520.45 1050 520.45 1050 525 1011 c 2,8,-1
 602 351 l 2,9,10
 604 330 604 330 611 274 c 128,-1,11
 618 218 618 218 618 168 c 1,12,-1
 622 168 l 1,13,14
 646 218 646 218 678 274 c 128,-1,15
 710 330 710 330 722 351 c 2,16,-1
 1103 1011 l 2,17,18
 1125.51 1050 1125.51 1050 1157 1050 c 2,19,-1
 1357 1050 l 2,20,21
 1402.41 1050 1402.41 1050 1392 1005 c 2,22,-1
 1170 45 l 2,23,24
 1159.59 0 1159.59 0 1115 0 c 2,25,-1
 1029 0 l 2,26,27
 983.57 -7.4986e-05 983.57 -7.4986e-05 994 45 c 2,28,-1
 1169 800 l 2,29,30
 1175.8 829.32 1175.8 829.32 1185 860 c 9,31,-1
 1183 860 l 25,32,-1
 698 61 l 2,33,34
 660.972 0 660.972 0 630 0 c 2,35,-1
 552 0 l 2,36,37
 520.78 3.71518e-06 520.78 3.71518e-06 512 61 c 2,38,-1
 397 860 l 25,39,-1
 395 860 l 17,40,41
 390.119 830.712 390.119 830.712 383 800 c 2,42,-1
 208 45 l 2,43,44
 197.57 0 197.57 0 153 0 c 2,45,-1
 67 0 l 2,0,1
EndSplineSet
EndChar

StartChar: k
Encoding: 107 107 48
Width: 1003
Flags: W
HStem: 0 21G<44.5 175 694.5 824> 1030 20G<873.5 1038.5> 1456 20G<385 516>
DStem2: 21.6109 0 198.356 0 0.224951 0.97437<29.7767 340.466 604.676 1524.65> 325 551 477 491 0.730665 0.682736<0 70.0969 244.82 778.125> 604 611 477 491 0.38176 -0.924261<62.4278 611.78>
LayerCount: 2
Back
SplineSet
67 0 m 2,0,1
 21.6104 0 21.6104 0 32 45 c 2,2,-1
 352 1431 l 2,3,4
 362.39 1476 362.39 1476 408 1476 c 2,5,-1
 494 1476 l 2,6,7
 538.385 1476 538.385 1476 528 1431 c 2,8,-1
 336 599 l 2,9,10
 329.333 570.111 329.333 570.111 320 539 c 1,11,-1
 322 539 l 1,12,-1
 830 1024 l 2,13,14
 857.233 1050 857.233 1050 889 1050 c 2,15,-1
 1000 1050 l 2,16,17
 1076.5 1050 1076.5 1050 1013 991 c 2,18,-1
 604 611 l 1,19,-1
 832 59 l 2,20,21
 856.37 0 856.37 0 792 0 c 2,22,-1
 694 0 l 2,23,24
 659.773 -1.22793e-05 659.773 -1.22793e-05 646 37 c 2,25,-1
 477 491 l 1,26,-1
 269 306 l 1,27,-1
 208 45 l 2,28,29
 197.483 0 197.483 0 153 0 c 2,30,-1
 67 0 l 2,0,1
849.694 16 m 10,4,-1
 617.673 579 l 25,5,-1
1055.58 1234 m 10,0,-1
 322.438 549 l 25,1,-1
1001.79 981 m 10,2,-1
 268.646 296 l 25,3,-1
671.694 16 m 14,4,-1
 439.673 579 l 29,5,-1
EndSplineSet
Fore
SplineSet
67 0 m 2,0,1
 22 0 22 0 32 45 c 2,2,-1
 352 1431 l 2,3,4
 362 1476 362 1476 408 1476 c 2,5,-1
 494 1476 l 2,6,7
 538 1476 538 1476 528 1431 c 2,8,-1
 339 611 l 2,9,10
 332 582 332 582 323 551 c 1,11,-1
 325 551 l 1,12,-1
 830 1024 l 2,13,14
 858 1050 858 1050 889 1050 c 2,15,-1
 1000 1050 l 2,16,17
 1077 1050 1077 1050 1013 991 c 2,18,-1
 604 611 l 1,19,-1
 832 59 l 2,20,21
 856 0 856 0 792 0 c 2,22,-1
 711 0 l 2,23,24
 678 0 678 0 663 37 c 2,25,-1
 477 491 l 1,26,-1
 266 293 l 1,27,-1
 208 45 l 2,28,29
 197 0 197 0 153 0 c 2,30,-1
 67 0 l 2,0,1
EndSplineSet
EndChar

StartChar: f
Encoding: 102 102 49
Width: 652
Flags: W
HStem: -400 21G<7.5 138.5> 918 132<157.325 289 495 702.675> 1363 130<593.714 916.451>
DStem2: -15.3891 -400 160.611 -400 0.224951 0.97437<29.7767 1352.69 1527.65 1814.59>
LayerCount: 2
Back
SplineSet
555 1475 m 256,0,1
 743 1475 743 1475 743 1430 c 2,2,-1
 743 1346 l 2,3,4
 743 1313 743 1313 722 1313 c 0,5,6
 715 1313 715 1313 661.5 1327.5 c 128,-1,7
 608 1342 608 1342 560.5 1342 c 256,8,9
 513 1342 513 1342 478.5 1334 c 0,10,11
 416.706 1319.67 416.706 1319.67 399.853 1289.84 c 128,-1,12
 383 1260 383 1260 383 1220 c 2,13,-1
 383 1040 l 1,14,-1
 567 1040 l 2,15,16
 597 1040 597 1040 605.5 1027.5 c 128,-1,17
 614 1015 614 1015 614 983 c 2,18,-1
 614 967 l 2,19,20
 614 932 614 932 599.5 923.5 c 128,-1,21
 585 915 585 915 563 915 c 2,22,-1
 385 915 l 1,23,-1
 385 63 l 6,24,25
 385 23 385 23 373.5 11.5 c 132,-1,26
 362 0 362 0 326 0 c 6,27,-1
 248 0 l 6,28,29
 223 3 223 3 216 16.5 c 132,-1,30
 209 30 209 30 209 57 c 6,31,-1
 209 915 l 1,32,-1
 108 915 l 2,33,34
 81 915 81 915 69 925 c 128,-1,35
 57 935 57 935 57 971 c 2,36,-1
 57 990 l 2,37,38
 57 1022 57 1022 70 1031 c 128,-1,39
 83 1040 83 1040 110 1040 c 2,40,-1
 209 1040 l 1,41,-1
 209 1139 l 1,42,-1
 208 1179 l 2,43,44
 208 1463 208 1463 555 1475 c 256,0,1
EndSplineSet
Fore
SplineSet
182 918 m 2,0,1
 137 918 137 918 145 953 c 2,2,-1
 159 1015 l 2,3,4
 167 1050 167 1050 212 1050 c 2,5,-1
 319 1050 l 1,6,-1
 354 1199 l 2,7,8
 392 1366 392 1366 497 1429.5 c 128,-1,9
 602 1493 602 1493 718 1493 c 256,10,11
 787 1493 787 1493 827.5 1486 c 128,-1,12
 868 1479 868 1479 921 1455 c 256,13,14
 941 1446 941 1446 927 1423 c 2,15,-1
 877 1344 l 2,16,17
 865 1324 865 1324 840 1336 c 256,18,19
 821 1346 821 1346 791 1354.5 c 128,-1,20
 761 1363 761 1363 724 1363 c 256,21,22
 641 1363 641 1363 595 1323 c 128,-1,23
 549 1283 549 1283 523 1170 c 2,24,-1
 495 1050 l 1,25,-1
 678 1050 l 2,26,27
 723 1050 723 1050 715 1015 c 2,28,-1
 701 953 l 2,29,30
 693 918 693 918 648 918 c 2,31,-1
 465 918 l 1,32,-1
 171 -355 l 2,33,34
 161 -400 161 -400 116 -400 c 2,35,-1
 30 -400 l 2,36,37
 -15 -400 -15 -400 -5 -355 c 2,38,-1
 289 918 l 1,39,-1
 182 918 l 2,0,1
EndSplineSet
EndChar

StartChar: t
Encoding: 116 116 50
Width: 757
Flags: W
HStem: -17 130<264 546.691> 918 132<158.325 301 507 744.675>
VStem: 470 96<1305 1340>
DStem2: 84.7408 -17 261.201 -17 0.224951 0.97437<213.452 959.684 1134.64 1301.77>
LayerCount: 2
Fore
SplineSet
183 918 m 2,0,1
 138 918 138 918 146 953 c 2,2,-1
 160 1015 l 2,3,4
 168 1050 168 1050 213 1050 c 2,5,-1
 331 1050 l 1,6,-1
 352 1140 l 2,7,8
 357 1159 357 1159 371 1178 c 2,9,-1
 470 1305 l 2,10,11
 497 1340 497 1340 509 1340 c 2,12,-1
 544 1340 l 2,13,14
 574 1340 574 1340 566 1305 c 2,15,-1
 507 1050 l 1,16,-1
 720 1050 l 2,17,18
 765 1050 765 1050 757 1015 c 2,19,-1
 743 953 l 2,20,21
 735 918 735 918 690 918 c 2,22,-1
 477 918 l 1,23,-1
 330 281 l 2,24,25
 306 176 306 176 330.5 144.5 c 128,-1,26
 355 113 355 113 390 113 c 256,27,28
 436 113 436 113 485 130.5 c 128,-1,29
 534 148 534 148 551 159 c 256,30,31
 573 173 573 173 580 153 c 2,32,-1
 606 81 l 2,33,34
 612 63 612 63 595 52 c 256,35,36
 554 26 554 26 475.5 4.5 c 144,-1,37
 397 -17 397 -17 308 -17 c 256,38,39
 220 -17 220 -17 169.5 58 c 128,-1,40
 119 133 119 133 151 270 c 2,41,-1
 301 918 l 1,42,-1
 183 918 l 2,0,1
EndSplineSet
EndChar

StartChar: l
Encoding: 108 108 51
Width: 460
Flags: W
HStem: 0 21G<44.5 175.5> 1473 20G<472 528>
VStem: 439 96<1458 1493>
DStem2: 22.4874 0 198.394 0 0.224951 0.97437<29.5795 1443.49>
LayerCount: 2
Fore
SplineSet
67 0 m 2,0,1
 22 0 22 0 32 45 c 2,2,-1
 321 1293 l 2,3,4
 325 1313 325 1313 339 1331 c 2,5,-1
 439 1458 l 2,6,7
 466 1493 466 1493 478 1493 c 2,8,-1
 513 1493 l 2,9,10
 543 1493 543 1493 535 1458 c 2,11,-1
 208 45 l 2,12,13
 198 0 198 0 153 0 c 2,14,-1
 67 0 l 2,0,1
EndSplineSet
EndChar

StartChar: I
Encoding: 73 73 52
Width: 532
Flags: W
HStem: 0 21G<75 217> 1414 20G<406 548>
VStem: 63 497
DStem2: 50.3022 0 242.302 0 0.224951 0.97437<33.6777 1481.08>
LayerCount: 2
Fore
SplineSet
100 0 m 2,0,1
 50 0 50 0 63 55 c 2,2,-1
 368 1379 l 2,3,4
 381 1434 381 1434 431 1434 c 2,5,-1
 523 1434 l 2,6,7
 573 1434 573 1434 560 1379 c 2,8,-1
 255 55 l 2,9,10
 242 0 242 0 192 0 c 2,11,-1
 100 0 l 2,0,1
EndSplineSet
EndChar

StartChar: H
Encoding: 72 72 53
Width: 1422
Flags: W
HStem: 0 21G<75 217 965 1107> 664 164<433 1093> 1414 20G<406 548 1296 1438>
DStem2: 50.3022 0 242.302 0 0.224951 0.97437<33.6777 724.522 892.867 1481.08> 940.302 0 1132.3 0 0.224951 0.97437<33.6777 681.331 849.676 1481.08>
LayerCount: 2
Back
SplineSet
1179 664 m 1,0,-1
 277 664 l 1,1,-1
 277 828 l 1,2,-1
 1179 828 l 1,3,-1
 1179 664 l 1,0,-1
1130 0 m 2,4,5
 1080 0 1080 0 1080 55 c 2,6,-1
 1080 1379 l 2,7,8
 1080 1434 1080 1434 1130 1434 c 2,9,-1
 1222 1434 l 2,10,11
 1272 1434 1272 1434 1272 1379 c 2,12,-1
 1272 55 l 2,13,14
 1272 0 1272 0 1222 0 c 2,15,-1
 1130 0 l 2,4,5
220 0 m 2,16,17
 170 0 170 0 170 55 c 2,18,-1
 170 1379 l 2,19,20
 170 1434 170 1434 220 1434 c 2,21,-1
 312 1434 l 2,22,23
 362 1434 362 1434 362 1379 c 2,24,-1
 362 55 l 2,25,26
 362 0 362 0 312 0 c 2,27,-1
 220 0 l 2,16,17
1128 1435 m 2,0,-1
 1155 1434 l 1,1,-1
 1214 1434 l 2,2,3
 1229 1434 1229 1434 1245.5 1431 c 0,4,5
 1251 1430 1251 1430 1255 1426.5 c 128,-1,6
 1259 1423 1259 1423 1261.5 1422 c 128,-1,7
 1264 1421 1264 1421 1266 1415 c 128,-1,8
 1268 1409 1268 1409 1268.5 1406.5 c 128,-1,9
 1269 1404 1269 1404 1270 1395.5 c 128,-1,10
 1271 1387 1271 1387 1272 1384 c 1,11,-1
 1272 70 l 2,12,13
 1272 25 1272 25 1260.5 12.5 c 128,-1,14
 1249 0 1249 0 1208 0 c 2,15,-1
 1135 0 l 2,16,17
 1100 0 1100 0 1089.5 11.5 c 128,-1,18
 1079 23 1079 23 1079 61 c 2,19,-1
 1079 664 l 1,20,-1
 367 664 l 1,21,-1
 367 61 l 2,22,23
 367 26 367 26 357.5 13 c 128,-1,24
 348 9.53674e-07 348 9.53674e-07 313 0 c 2,25,-1
 240 0 l 2,26,27
 218 0 218 0 206.5 2 c 128,-1,28
 195 4 195 4 185.5 15.5 c 128,-1,29
 176 27 176 27 176 49 c 2,30,-1
 176 1384 l 2,31,32
 176 1416 176 1416 189.5 1425 c 128,-1,33
 203 1434 203 1434 233 1434 c 2,34,-1
 293 1434 l 1,35,-1
 319 1435 l 2,36,37
 349 1435 349 1435 358 1421 c 128,-1,38
 367 1407 367 1407 367 1376 c 2,39,-1
 367 827 l 1,40,-1
 1079 827 l 1,41,-1
 1079 1376 l 2,42,43
 1079 1396 1079 1396 1081.5 1407 c 128,-1,44
 1084 1418 1084 1418 1095 1426.5 c 128,-1,45
 1106 1435 1106 1435 1128 1435 c 2,0,-1
EndSplineSet
Fore
SplineSet
100 0 m 2,0,1
 50 0 50 0 63 55 c 2,2,-1
 368 1379 l 2,3,4
 381 1434 381 1434 431 1434 c 2,5,-1
 523 1434 l 2,6,7
 573 1434 573 1434 560 1379 c 2,8,-1
 433 828 l 1,9,-1
 1131 828 l 1,10,-1
 1258 1379 l 2,11,12
 1271 1434 1271 1434 1321 1434 c 2,13,-1
 1413 1434 l 2,14,15
 1463 1434 1463 1434 1450 1379 c 2,16,-1
 1145 55 l 2,17,18
 1132 0 1132 0 1082 0 c 2,19,-1
 990 0 l 2,20,21
 940 0 940 0 953 55 c 2,22,-1
 1093 664 l 1,23,-1
 395 664 l 1,24,-1
 255 55 l 2,25,26
 242 0 242 0 192 0 c 2,27,-1
 100 0 l 2,0,1
EndSplineSet
EndChar

StartChar: afii10033
Encoding: 1055 1055 54
Width: 1416
Flags: W
HStem: 0 21G<75 217 959 1101> 1270 164<535 1227>
DStem2: 50.3022 0 242.302 0 0.224951 0.97437<33.6777 1346.48> 934.302 0 1126.3 0 0.224951 0.97437<33.6777 1303.29>
LayerCount: 2
Fore
SplineSet
100 0 m 2,0,1
 50 0 50 0 63 55 c 2,2,-1
 368 1379 l 2,3,4
 381 1434 381 1434 431 1434 c 2,5,-1
 1407 1434 l 2,6,7
 1457 1434 1457 1434 1444 1379 c 2,8,-1
 1139 55 l 2,9,10
 1126 0 1126 0 1076 0 c 2,11,-1
 984 0 l 2,12,13
 934 0 934 0 947 55 c 2,14,-1
 1227 1270 l 1,15,-1
 535 1270 l 1,16,-1
 255 55 l 2,17,18
 242 0 242 0 192 0 c 2,19,-1
 100 0 l 2,0,1
EndSplineSet
EndChar

StartChar: E
Encoding: 69 69 55
Width: 1270
Flags: W
HStem: 0 164<280 1069.84> 662 164<433 1132.84> 1270 164<535 1332.93>
DStem2: 50.3022 0 242.138 0 0.224951 0.97437<211.467 722.573 890.918 1346.48>
LayerCount: 2
Fore
SplineSet
100 0 m 2,0,1
 50 0 50 0 63 55 c 2,2,-1
 368 1379 l 2,3,4
 381 1434 381 1434 431 1434 c 2,5,-1
 1306 1434 l 2,6,7
 1361 1434 1361 1434 1351 1389 c 2,8,-1
 1334 1315 l 2,9,10
 1323 1270 1323 1270 1268 1270 c 2,11,-1
 535 1270 l 9,12,-1
 433 826 l 1,13,-1
 1106 826 l 2,14,15
 1161 826 1161 826 1150 781 c 2,16,-1
 1133 707 l 2,17,18
 1123 662 1123 662 1068 662 c 2,19,-1
 395 662 l 1,20,-1
 280 164 l 17,21,-1
 1043 164 l 2,22,23
 1098 164 1098 164 1087 119 c 2,24,-1
 1070 45 l 2,25,26
 1060 0 1060 0 1005 0 c 2,27,-1
 100 0 l 2,0,1
EndSplineSet
EndChar

StartChar: O
Encoding: 79 79 60
Width: 1514
Flags: W
HStem: -30 156<517.566 937.507> 1308 156<667.493 1087.43>
VStem: 110 205<331.976 899.608> 1290 205<534.392 1102.02>
LayerCount: 2
Back
SplineSet
111.76 719 m 256,0,1
 179.793 1069 179.793 1069 390.683 1266.5 c 128,-1,2
 601.572 1464 601.572 1464 926.572 1464 c 256,3,4
 1251.57 1464 1251.57 1464 1385.49 1265.5 c 128,-1,5
 1519.4 1067 1519.4 1067 1451.37 717 c 256,6,7
 1383.34 367 1383.34 367 1172.25 168.5 c 128,-1,8
 961.169 -30 961.169 -30 636.169 -30 c 256,9,10
 311.169 -30 311.169 -30 177.447 169.5 c 128,-1,11
 43.7266 369 43.7266 369 111.76 719 c 256,0,1
316.371 717 m 256,12,13
 261.944 437 261.944 437 346.718 281.5 c 128,-1,14
 431.492 126 431.492 126 666.492 126 c 256,15,16
 901.492 126 901.492 126 1046.72 281.5 c 128,-1,17
 1191.94 437 1191.94 437 1246.37 717 c 256,18,19
 1300.8 997 1300.8 997 1216.02 1152.5 c 128,-1,20
 1131.25 1308 1131.25 1308 896.249 1308 c 256,21,22
 661.249 1308 661.249 1308 516.023 1152.5 c 128,-1,23
 370.797 997 370.797 997 316.371 717 c 256,12,13
EndSplineSet
Fore
SplineSet
110 580 m 0,0,1
 110 980 110 980 324 1222 c 128,-1,2
 538 1464 538 1464 878 1464 c 256,3,4
 1183 1464 1183 1464 1339 1301.5 c 128,-1,5
 1495 1139 1495 1139 1495 854 c 0,6,7
 1495 454 1495 454 1281 212 c 128,-1,8
 1067 -30 1067 -30 727 -30 c 256,9,10
 422 -30 422 -30 266 132.5 c 128,-1,11
 110 295 110 295 110 580 c 0,0,1
315 556 m 0,12,13
 315 351 315 351 421.5 238.5 c 128,-1,14
 528 126 528 126 738 126 c 256,15,16
 958 126 958 126 1124 309.5 c 128,-1,17
 1290 493 1290 493 1290 878 c 0,18,19
 1290 1083 1290 1083 1183.5 1195.5 c 128,-1,20
 1077 1308 1077 1308 867 1308 c 256,21,22
 647 1308 647 1308 481 1124.5 c 128,-1,23
 315 941 315 941 315 556 c 0,12,13
EndSplineSet
EndChar

StartChar: s
Encoding: 115 115 61
Width: 937
Flags: W
LayerCount: 2
Fore
SplineSet
28 102 m 256,0,1
 -1 133 -1 133 20 157 c 2,2,-1
 70 216 l 2,3,4
 91 240 91 240 135 207 c 256,5,6
 192 164 192 164 257.5 138.5 c 128,-1,7
 323 113 323 113 395 113 c 256,8,9
 449 113 449 113 502.5 127.5 c 128,-1,10
 556 142 556 142 591 185 c 128,-1,11
 626 228 626 228 626 271 c 256,12,13
 626 314 626 314 613.5 344 c 128,-1,14
 601 374 601 374 570 395 c 128,-1,15
 539 416 539 416 508 428 c 256,16,17
 466 444 466 444 411.5 466 c 128,-1,18
 357 488 357 488 310 510 c 256,19,20
 264 532 264 532 228 573 c 128,-1,21
 192 614 192 614 175 662.5 c 128,-1,22
 158 711 158 711 158 766 c 256,23,24
 158 848 158 848 208 926.5 c 128,-1,25
 258 1005 258 1005 352.5 1036 c 128,-1,26
 447 1067 447 1067 558 1067 c 256,27,28
 654 1067 654 1067 731 1039.5 c 144,-1,29
 808 1012 808 1012 862 967 c 256,30,31
 892 942 892 942 866 913 c 26,32,-1
 816 857 l 18,33,34
 797 836 797 836 752 868 c 256,35,36
 712 896 712 896 660 914 c 128,-1,37
 608 932 608 932 553 932 c 256,38,39
 505 932 505 932 451.5 918 c 128,-1,40
 398 904 398 904 366 868 c 128,-1,41
 334 832 334 832 334 782 c 256,42,43
 334 746 334 746 344 716 c 128,-1,44
 354 686 354 686 379.5 665.5 c 128,-1,45
 405 645 405 645 434 632 c 256,46,47
 486 608 486 608 534.5 591 c 128,-1,48
 583 574 583 574 623 556 c 256,49,50
 693 526 693 526 737 486 c 128,-1,51
 781 446 781 446 796.5 397 c 128,-1,52
 812 348 812 348 812 291 c 256,53,54
 812 180 812 180 742.5 107 c 128,-1,55
 673 34 673 34 584 8.5 c 128,-1,56
 495 -17 495 -17 380 -17 c 256,57,58
 237 -17 237 -17 151.5 22.5 c 152,-1,59
 66 62 66 62 28 102 c 256,0,1
EndSplineSet
EndChar

StartChar: afii10040
Encoding: 1062 1062 62
Width: 1486
Flags: W
HStem: -370 21G<1071 1197> 0 164<280 966> 1414 20G<406 548 1284 1426>
DStem2: -35.119 -370 156.716 -370 0.224951 0.97437<591.2 1860.81> 842.716 -370 1034.72 -370 0.224951 0.97437<591.237 1860.85> 1050.46 -370 1216.46 -370 0.224951 0.97437<27.2804 379.76>
LayerCount: 2
Fore
SplineSet
100 0 m 2,0,1
 50 0 50 0 63 55 c 2,2,-1
 368 1379 l 2,3,4
 381 1434 381 1434 431 1434 c 2,5,-1
 523 1434 l 2,6,7
 573 1434 573 1434 560 1379 c 2,8,-1
 280 164 l 1,9,-1
 966 164 l 1,10,-1
 1246 1379 l 2,11,12
 1259 1434 1259 1434 1309 1434 c 2,13,-1
 1401 1434 l 2,14,15
 1451 1434 1451 1434 1438 1379 c 2,16,-1
 1158 164 l 1,17,-1
 1290 164 l 2,18,19
 1340 164 1340 164 1327 109 c 2,20,-1
 1228 -320 l 2,21,22
 1217 -370 1217 -370 1177 -370 c 2,23,-1
 1091 -370 l 2,24,25
 1051 -370 1051 -370 1062 -320 c 2,26,-1
 1136 0 l 1,27,-1
 100 0 l 2,0,1
EndSplineSet
EndChar

StartChar: afii10042
Encoding: 1064 1064 63
Width: 2040
Flags: W
HStem: 0 164<280 842 1034 1596> 1414 20G<406 548 1160 1302 1914 2056>
DStem2: 50.3022 0 242.138 0 0.224951 0.97437<211.467 1481.08> 804.138 0 996.138 0 0.224951 0.97437<211.504 1481.12> 1558.14 0 1750.3 0 0.224951 0.97437<168.314 1481.12>
LayerCount: 2
Fore
SplineSet
100 0 m 2,0,1
 50 0 50 0 63 55 c 2,2,-1
 368 1379 l 2,3,4
 381 1434 381 1434 431 1434 c 2,5,-1
 523 1434 l 2,6,7
 573 1434 573 1434 560 1379 c 2,8,-1
 280 164 l 1,9,-1
 842 164 l 1,10,-1
 1122 1379 l 2,11,12
 1135 1434 1135 1434 1185 1434 c 2,13,-1
 1277 1434 l 2,14,15
 1327 1434 1327 1434 1314 1379 c 2,16,-1
 1034 164 l 1,17,-1
 1596 164 l 1,18,-1
 1876 1379 l 2,19,20
 1889 1434 1889 1434 1939 1434 c 2,21,-1
 2031 1434 l 2,22,23
 2081 1434 2081 1434 2068 1379 c 2,24,-1
 1763 55 l 2,25,26
 1750 0 1750 0 1700 0 c 2,27,-1
 100 0 l 2,0,1
EndSplineSet
EndChar

StartChar: afii10041
Encoding: 1063 1063 64
Width: 1286
Flags: W
HStem: 0 21G<829 971> 566 154<422.306 807.272> 1414 20G<356 498 1160 1302>
DStem2: 0.448205 0 192.367 0 0.224951 0.97437<847.411 1481.05> 804.302 0 996.302 0 0.224951 0.97437<33.6777 680.807 788.922 1481.08>
LayerCount: 2
Back
SplineSet
211 912 m 2,0,-1
 318 1379 l 2,1,2
 331 1434 331 1434 381 1434 c 2,3,-1
 473 1434 l 2,4,5
 523 1434 523 1434 510 1379 c 2,6,-1
 414 960 l 2,7,8
 381 820 381 820 417 770 c 128,-1,9
 453 720 453 720 564 720 c 256,10,11
 618 720 618 720 755 734 c 128,-1,12
 892 748 892 748 986 787 c 1,13,-1
 1122 1379 l 2,14,15
 1135 1434 1135 1434 1185 1434 c 2,16,-1
 1277 1434 l 2,17,18
 1327 1434 1327 1434 1314 1379 c 2,19,-1
 1009 55 l 2,20,21
 996 0 996 0 946 0 c 2,22,-1
 854 0 l 2,23,24
 804 0 804 0 817 55 c 2,25,-1
 936 573 l 2,26,27
 945 613 945 613 957 653 c 1,28,-1
 953 653 l 1,29,30
 849 612 849 612 751.5 589 c 128,-1,31
 654 566 654 566 504 566 c 256,32,33
 342 566 342 566 260 668.5 c 128,-1,34
 178 771 178 771 211 912 c 2,0,-1
EndSplineSet
Fore
SplineSet
211 912 m 2,0,-1
 318 1379 l 2,1,2
 331 1434 331 1434 381 1434 c 2,3,-1
 473 1434 l 2,4,5
 523 1434 523 1434 510 1379 c 2,6,-1
 414 960 l 2,7,8
 382 819 382 819 417.5 769.5 c 128,-1,9
 453 720 453 720 564 720 c 256,10,11
 618 720 618 720 756 739 c 128,-1,12
 894 758 894 758 988 797 c 1,13,-1
 1122 1379 l 2,14,15
 1135 1434 1135 1434 1185 1434 c 2,16,-1
 1277 1434 l 2,17,18
 1327 1434 1327 1434 1314 1379 c 2,19,-1
 1009 55 l 2,20,21
 996 0 996 0 946 0 c 2,22,-1
 854 0 l 2,23,24
 804 -0 804 -0 817 55 c 2,25,-1
 938 583 l 6,26,27
 948 625 948 625 959 663 c 1,28,-1
 955 663 l 1,29,30
 851 622 851 622 752.5 594 c 128,-1,31
 654 566 654 566 504 566 c 256,32,33
 342 566 342 566 260.5 668 c 128,-1,34
 179 770 179 770 211 912 c 2,0,-1
EndSplineSet
EndChar

StartChar: uni0237
Encoding: 567 567 65
Width: 466
Flags: W
HStem: -417 130<-289.125 -64.5002> 1030 20G<292.5 423.5>
DStem2: -68.6572 -417 108.199 -417 0.224951 0.97437<187.564 1515.48>
LayerCount: 2
Fore
SplineSet
-290 -397 m 256,0,1
 -307 -388 -307 -388 -300 -365 c 258,2,-1
 -275 -284 l 258,3,4
 -267 -258 -267 -258 -246 -269 c 256,5,6
 -211 -287 -211 -287 -155 -287 c 256,7,8
 -96 -287 -96 -287 -54 -230 c 128,-1,9
 -12 -173 -12 -173 29 6 c 2,10,-1
 260 1005 l 2,11,12
 270 1050 270 1050 315 1050 c 2,13,-1
 401 1050 l 2,14,15
 446 1050 446 1050 436 1005 c 2,16,-1
 183 -93 l 2,17,18
 138 -287 138 -287 47 -352 c 128,-1,19
 -44 -417 -44 -417 -153 -417 c 256,20,21
 -252 -417 -252 -417 -290 -397 c 256,0,1
EndSplineSet
EndChar

StartChar: four
Encoding: 52 52 67
Width: 1110
Flags: W
HStem: 0 21G<556.5 687.5> 354 164<255 616 830 1018> 1420 20G<888.5 1019>
DStem2: 96 556 255 518 0.660009 0.751258<76.3936 894.822> 533.611 0 709.611 0 0.224951 0.97437<29.7767 363.461 571.397 1163.21>
LayerCount: 2
Back
SplineSet
71 354 m 2,0,1
 26 354 26 354 36 399 c 2,2,-1
 56 487 l 2,3,4
 64 519 64 519 96 556 c 2,5,-1
 841 1404 l 2,6,7
 872 1440 872 1440 905 1440 c 2,8,-1
 996 1440 l 2,9,10
 1042 1440 1042 1440 1032 1395 c 2,11,-1
 830 518 l 1,12,-1
 1001 518 l 2,13,14
 1046 518 1046 518 1035 473 c 2,15,-1
 1018 399 l 2,16,17
 1008 354 1008 354 964 354 c 2,18,-1
 792 354 l 1,19,-1
 720 45 l 2,20,21
 710 0 710 0 665 0 c 2,22,-1
 579 0 l 2,23,24
 534 0 534 0 544 45 c 2,25,-1
 616 354 l 1,26,-1
 71 354 l 2,0,1
243 518 m 1,27,-1
 654 518 l 1,28,-1
 786 1093 l 2,29,30
 793 1123 793 1123 802 1153 c 1,31,-1
 800 1153 l 1,32,-1
 243 518 l 1,27,-1
288 556 m 2,5,-1
 1033 1404 l 2,6,7
108 556 m 2,5,-1
 853 1404 l 2,6,7
EndSplineSet
Fore
SplineSet
71 354 m 2,0,1
 26 354 26 354 36 399 c 2,2,-1
 56 487 l 2,3,4
 64 519 64 519 96 556 c 2,5,-1
 841 1404 l 2,6,7
 872 1440 872 1440 905 1440 c 2,8,-1
 996 1440 l 2,9,10
 1042 1440 1042 1440 1032 1395 c 2,11,-1
 830 518 l 1,12,-1
 1001 518 l 2,13,14
 1046 518 1046 518 1035 473 c 2,15,-1
 1018 399 l 2,16,17
 1008 354 1008 354 964 354 c 2,18,-1
 792 354 l 1,19,-1
 720 45 l 2,20,21
 710 0 710 0 665 0 c 2,22,-1
 579 0 l 2,23,24
 534 0 534 0 544 45 c 2,25,-1
 616 354 l 1,26,-1
 71 354 l 2,0,1
255 518 m 1,27,-1
 654 518 l 1,28,-1
 781 1073 l 2,29,30
 788 1103 788 1103 797 1133 c 1,31,-1
 795 1133 l 1,32,-1
 255 518 l 1,27,-1
EndSplineSet
EndChar

StartChar: zero
Encoding: 48 48 68
Width: 1110
Flags: W
HStem: -30 144<370.798 622.281> 1308 144<565.719 817.202>
VStem: 104 186<211.223 822.31> 898 186<599.69 1210.78>
LayerCount: 2
Back
SplineSet
137.147 711 m 256,0,1
 217.951 1061 217.951 1061 359.086 1256.5 c 128,-1,2
 500.221 1452 500.221 1452 770.221 1452 c 256,3,4
 1040.22 1452 1040.22 1452 1091.09 1256.5 c 128,-1,5
 1141.95 1061 1141.95 1061 1061.15 711 c 256,6,7
 980.344 361 980.344 361 839.209 165.5 c 128,-1,8
 698.074 -30 698.074 -30 428.074 -30 c 256,9,10
 158.074 -30 158.074 -30 107.209 165.5 c 128,-1,11
 56.3438 361 56.3438 361 137.147 711 c 256,0,1
323.147 711 m 256,12,13
 258.504 431 258.504 431 269.911 272.5 c 128,-1,14
 281.319 114 281.319 114 461.319 114 c 256,15,16
 641.319 114 641.319 114 725.911 272.5 c 128,-1,17
 810.504 431 810.504 431 875.147 711 c 256,18,19
 939.79 991 939.79 991 928.383 1149.5 c 128,-1,20
 916.976 1308 916.976 1308 736.976 1308 c 256,21,22
 556.976 1308 556.976 1308 472.383 1149.5 c 128,-1,23
 387.79 991 387.79 991 323.147 711 c 256,12,13
EndSplineSet
Fore
SplineSet
104 440 m 256,0,1
 104 805 104 805 248 1128.5 c 128,-1,2
 392 1452 392 1452 717 1452 c 256,3,4
 907 1452 907 1452 995.5 1317 c 128,-1,5
 1084 1182 1084 1182 1084 982 c 256,6,7
 1084 617 1084 617 940 293.5 c 128,-1,8
 796 -30 796 -30 471 -30 c 256,9,10
 281 -30 281 -30 192.5 105 c 128,-1,11
 104 240 104 240 104 440 c 256,0,1
290 410 m 256,12,13
 290 310 290 310 334 212 c 128,-1,14
 378 114 378 114 483 114 c 256,15,16
 678 114 678 114 788 388 c 128,-1,17
 898 662 898 662 898 1012 c 256,18,19
 898 1112 898 1112 854 1210 c 128,-1,20
 810 1308 810 1308 705 1308 c 256,21,22
 510 1308 510 1308 400 1034 c 128,-1,23
 290 760 290 760 290 410 c 256,12,13
EndSplineSet
EndChar

StartChar: seven
Encoding: 55 55 69
Width: 1100
Flags: W
HStem: -6 21G<254.5 390.5> 1258 164<286.002 991.031>
DStem2: 231.611 -6 412.611 -6 0.224951 0.97437<30.8741 522.64>
LayerCount: 2
Back
SplineSet
303.433 1258 m 2,0,1
 258.433 1258 258.433 1258 268.821 1303 c 2,2,-1
 285.905 1377 l 2,3,4
 296.295 1422 296.295 1422 341.295 1422 c 2,5,-1
 1175.29 1422 l 2,6,7
 1220.29 1422 1220.29 1422 1209.91 1377 c 2,8,-1
 1193.98 1308 l 2,9,10
 1186.59 1276 1186.59 1276 1141.35 1236 c 0,11,12
 888.946 1009 888.946 1009 704.342 733.5 c 128,-1,13
 519.737 458 519.737 458 444.705 133 c 2,14,-1
 423.004 39 l 2,15,16
 412.615 -6 412.615 -6 367.615 -6 c 2,17,-1
 276.615 -6 l 2,18,19
 231.615 -6 231.615 -6 242.004 39 c 2,20,-1
 255.625 98 l 2,21,22
 338.969 459 338.969 459 539.342 733.5 c 128,-1,23
 739.715 1008 739.715 1008 1001.43 1258 c 1,24,-1
 1001.89 1260 l 1,25,26
 971.433 1258 971.433 1258 941.433 1258 c 2,27,-1
 303.433 1258 l 2,0,1
EndSplineSet
Fore
SplineSet
303 1258 m 2,0,1
 258 1258 258 1258 269 1303 c 2,2,-1
 286 1377 l 2,3,4
 296 1422 296 1422 341 1422 c 2,5,-1
 1175 1422 l 2,6,7
 1220 1422 1220 1422 1210 1377 c 2,8,-1
 1194 1308 l 2,9,10
 1186 1277 1186 1277 1141 1236 c 0,11,12
 889 1009 889 1009 703 727 c 128,-1,13
 517 445 517 445 445 133 c 2,14,-1
 423 39 l 2,15,16
 413 -6 413 -6 368 -6 c 2,17,-1
 277 -6 l 2,18,19
 232 -6 232 -6 242 39 c 2,20,-1
 256 98 l 2,21,22
 346 479 346 479 538 743.5 c 128,-1,23
 730 1008 730 1008 991 1258 c 1,24,-1
 992 1260 l 1,25,26
 961 1258 961 1258 931 1258 c 2,27,-1
 303 1258 l 2,0,1
EndSplineSet
EndChar

StartChar: afii10046
Encoding: 1068 1068 70
Width: 1308
Flags: W
HStem: 0 164<280 826.894> 664 164<433 914.449> 1414 20G<406 548>
VStem: 1002 205<303.521 589.308>
DStem2: 50.3022 0 242.138 0 0.224951 0.97437<211.467 724.522 892.867 1481.08>
LayerCount: 2
Back
SplineSet
100 0 m 2,0,1
 50 0 50 0 62.6973 55 c 2,2,-1
 368.367 1379 l 2,3,4
 381.065 1434 381.065 1434 431.065 1434 c 2,5,-1
 523.065 1434 l 2,6,7
 573.065 1434 573.065 1434 560.367 1379 c 2,8,-1
 433.159 828 l 1,9,-1
 721.159 828 l 2,10,11
 1058.16 828 1058.16 828 1157.8 716 c 128,-1,12
 1257.44 604 1257.44 604 1213.58 414 c 256,13,14
 1169.71 224 1169.71 224 1018.36 112 c 128,-1,15
 867 0 867 0 530 0 c 2,16,-1
 100 0 l 2,0,1
279.862 164 m 1,17,-1
 535.862 164 l 2,18,19
 750.862 164 750.862 164 864.138 221.5 c 128,-1,20
 977.412 279 977.412 279 1008.58 414 c 256,21,22
 1039.75 549 1039.75 549 953.021 606.5 c 128,-1,23
 866.297 664 866.297 664 651.297 664 c 2,24,-1
 395.297 664 l 1,25,-1
 279.862 164 l 1,17,-1
EndSplineSet
Fore
SplineSet
100 0 m 2,0,1
 50 0 50 0 63 55 c 2,2,-1
 368 1379 l 2,3,4
 381 1434 381 1434 431 1434 c 2,5,-1
 523 1434 l 2,6,7
 573 1434 573 1434 560 1379 c 2,8,-1
 433 828 l 1,9,-1
 701 828 l 2,10,11
 993 828 993 828 1100 721.5 c 128,-1,12
 1207 615 1207 615 1207 454 c 256,13,14
 1207 270 1207 270 1047 135 c 128,-1,15
 887 0 887 0 550 0 c 2,16,-1
 100 0 l 2,0,1
280 164 m 1,17,-1
 556 164 l 2,18,19
 771 164 771 164 886.5 238 c 128,-1,20
 1002 312 1002 312 1002 444 c 256,21,22
 1002 585 1002 585 909 624.5 c 128,-1,23
 816 664 816 664 631 664 c 2,24,-1
 395 664 l 1,25,-1
 280 164 l 1,17,-1
EndSplineSet
EndChar

StartChar: afii10020
Encoding: 1043 1043 71
Width: 1106
Flags: W
HStem: 0 21G<75 217> 1270 164<535 1252.93>
DStem2: 50.3022 0 242.302 0 0.224951 0.97437<33.6777 1346.48>
LayerCount: 2
Fore
SplineSet
100 0 m 2,0,1
 50 0 50 0 63 55 c 2,2,-1
 368 1379 l 2,3,4
 381 1434 381 1434 431 1434 c 2,5,-1
 1226 1434 l 2,6,7
 1281 1434 1281 1434 1271 1389 c 2,8,-1
 1254 1315 l 2,9,10
 1243 1270 1243 1270 1188 1270 c 2,11,-1
 535 1270 l 9,12,-1
 255 55 l 2,13,14
 242 0 242 0 192 0 c 2,15,-1
 100 0 l 2,0,1
EndSplineSet
EndChar

StartChar: afii10018
Encoding: 1041 1041 72
Width: 1330
Flags: W
HStem: 0 164<280 837.156> 668 164<434 921.839> 1270 164<535 1292.93>
VStem: 1013 205<310.412 589.945>
DStem2: 50.3022 0 242.138 0 0.224951 0.97437<211.467 728.644 896.989 1346.48>
LayerCount: 2
Back
SplineSet
110 0 m 2,0,1
 60 0 60 0 73 55 c 2,2,-1
 378 1379 l 2,3,4
 391 1434 391 1434 441 1434 c 2,5,-1
 533 1434 l 2,6,7
 583 1434 583 1434 570 1379 c 2,8,-1
 443 828 l 1,9,-1
 711 828 l 2,10,11
 1003 828 1003 828 1110 721.5 c 128,-1,12
 1217 615 1217 615 1217 454 c 256,13,14
 1217 270 1217 270 1057 135 c 128,-1,15
 897 0 897 0 560 0 c 2,16,-1
 110 0 l 2,0,1
290 164 m 1,17,-1
 566 164 l 2,18,19
 781 164 781 164 896.5 238 c 128,-1,20
 1012 312 1012 312 1012 444 c 256,21,22
 1012 585 1012 585 919 624.5 c 128,-1,23
 826 664 826 664 641 664 c 2,24,-1
 405 664 l 1,25,-1
 290 164 l 1,17,-1
EndSplineSet
Fore
SplineSet
100 0 m 2,0,1
 50 0 50 0 63 55 c 2,2,-1
 368 1379 l 2,3,4
 381 1434 381 1434 431 1434 c 2,5,-1
 1266 1434 l 2,6,7
 1321 1434 1321 1434 1311 1389 c 2,8,-1
 1294 1315 l 2,9,10
 1284 1270 1284 1270 1228 1270 c 2,11,-1
 535 1270 l 1,12,-1
 434 832 l 1,13,-1
 712 832 l 2,14,15
 1022 832 1022 832 1120 719 c 128,-1,16
 1218 606 1218 606 1218 463 c 256,17,18
 1218 272 1218 272 1057.5 136 c 128,-1,19
 897 0 897 0 560 0 c 2,20,-1
 100 0 l 2,0,1
280 164 m 1,21,-1
 566 164 l 2,22,23
 781 164 781 164 897 240.5 c 128,-1,24
 1013 317 1013 317 1013 452 c 256,25,26
 1013 572 1013 572 932.5 620 c 128,-1,27
 852 668 852 668 642 668 c 2,28,-1
 396 668 l 1,29,-1
 280 164 l 1,21,-1
EndSplineSet
EndChar

StartChar: afii10194
Encoding: 1123 1123 73
Width: 1628
VWidth: 1000
Flags: W
HStem: -17 130<931.452 1229.43> 0 21G<44.5 175.5> 550 130<999.321 1272.91> 937 130<579.806 780.641> 1030 20G<286.5 415.5>
VStem: 1327 186<209.095 494.529>
DStem2: 17.6862 -17 193.565 -17 0.224951 0.97437<47.2239 805.393 944.497 1104.51> 628.57 -17 805.155 -17 0.224951 0.97437<660.506 910.908>
LayerCount: 2
Back
SplineSet
67 0 m 2,0,1
 22 0 22 0 32 45 c 2,2,-1
 254 1005 l 2,3,4
 264 1050 264 1050 309 1050 c 2,5,-1
 393 1050 l 2,6,7
 438 1050 438 1050 428 1005 c 2,8,-1
 396 865 l 1,9,-1
 400 865 l 1,10,11
 452 938 452 938 547.5 1002.5 c 128,-1,12
 643 1067 643 1067 733 1067 c 256,13,14
 888 1067 888 1067 950.5 976.5 c 128,-1,15
 1013 886 1013 886 982 749 c 2,16,-1
 952 618 l 1,17,-1
 1154 618 l 2,18,19
 1373 618 1373 618 1443 540 c 128,-1,20
 1513 462 1513 462 1513 357 c 256,21,22
 1513 212 1513 212 1409 106 c 128,-1,23
 1305 0 1305 0 1051 0 c 2,24,-1
 678 0 l 2,25,26
 633 -0 633 -0 643 45 c 2,27,-1
 784 656 l 2,28,29
 824 830 824 830 789 883.5 c 128,-1,30
 754 937 754 937 681 937 c 256,31,32
 590 937 590 937 470 799 c 128,-1,33
 350 661 350 661 312 496 c 2,34,-1
 208 45 l 2,35,36
 198 0 198 0 153 0 c 2,37,-1
 67 0 l 2,0,1
839 131 m 1,38,-1
 1035 131 l 2,39,40
 1161 131 1161 131 1244 183.5 c 128,-1,41
 1327 236 1327 236 1327 350 c 256,42,43
 1327 446 1327 446 1254 467 c 128,-1,44
 1181 488 1181 488 1078 488 c 2,45,-1
 922 488 l 1,46,-1
 839 131 l 1,38,-1
EndSplineSet
Fore
SplineSet
67 0 m 2,0,1
 22 0 22 0 32 45 c 2,2,-1
 254 1005 l 2,3,4
 264 1050 264 1050 309 1050 c 2,5,-1
 393 1050 l 2,6,7
 438 1050 438 1050 428 1005 c 2,8,-1
 396 865 l 1,9,-1
 400 865 l 1,10,11
 452 938 452 938 547.5 1002.5 c 128,-1,12
 643 1067 643 1067 733 1067 c 256,13,14
 888 1067 888 1067 950.5 976.5 c 128,-1,15
 1013 886 1013 886 982 749 c 2,16,-1
 959 649 l 1,17,18
 949 610 949 610 941 588 c 1,19,-1
 943 588 l 1,20,21
 989 638 989 638 1048 659 c 128,-1,22
 1107 680 1107 680 1197 680 c 256,23,24
 1359 680 1359 680 1436 587 c 128,-1,25
 1513 494 1513 494 1513 354 c 256,26,27
 1513 208 1513 208 1398 95.5 c 128,-1,28
 1283 -17 1283 -17 1023 -17 c 256,29,30
 847 -17 847 -17 766.5 107.5 c 128,-1,31
 686 232 686 232 735 444 c 2,32,-1
 784 656 l 2,33,34
 824 830 824 830 789 883.5 c 128,-1,35
 754 937 754 937 681 937 c 256,36,37
 590 937 590 937 470 799 c 128,-1,38
 350 661 350 661 312 496 c 2,39,-1
 208 45 l 2,40,41
 198 0 198 0 153 0 c 2,42,-1
 67 0 l 2,0,1
895 370 m 0,43,44
 866 244 866 244 913.5 178.5 c 128,-1,45
 961 113 961 113 1060 113 c 256,46,47
 1185 113 1185 113 1256 178.5 c 128,-1,48
 1327 244 1327 244 1327 366 c 256,49,50
 1327 442 1327 442 1282 496 c 128,-1,51
 1237 550 1237 550 1143 550 c 256,52,53
 1041 550 1041 550 976.5 496 c 128,-1,54
 912 442 912 442 895 370 c 0,43,44
EndSplineSet
EndChar

StartChar: period
Encoding: 46 46 74
Width: 600
Flags: W
HStem: 0 212<118.59 290.41>
VStem: 89 231
LayerCount: 2
Fore
SplineSet
124 0 m 2,0,1
 79 0 79 0 89 45 c 2,2,-1
 118 167 l 2,3,4
 128 212 128 212 173 212 c 2,5,-1
 285 212 l 2,6,7
 330 212 330 212 320 167 c 2,8,-1
 291 45 l 2,9,10
 281 0 281 0 236 0 c 2,11,-1
 124 0 l 2,0,1
EndSplineSet
EndChar

StartChar: h
Encoding: 104 104 75
Width: 1128
Flags: W
HStem: 0 21G<44.5 175.5 714.5 845.5> 937 130<576.779 828.184> 1456 20G<385 516>
DStem2: 21.6276 0 196.682 0 0.224951 0.97437<29.773 837.736 947.658 1524.65> 691.611 0 867.611 0 0.224951 0.97437<29.7767 878.594>
LayerCount: 2
Back
SplineSet
67 0 m 2,0,1
 22 0 22 0 32 45 c 2,2,-1
 254 1005 l 2,3,4
 264 1050 264 1050 309 1050 c 2,5,-1
 393 1050 l 2,6,7
 438 1050 438 1050 428 1005 c 2,8,-1
 401 885 l 1,9,-1
 405 885 l 5,10,11
 464 958 464 958 558.5 1012.5 c 128,-1,12
 653 1067 653 1067 773 1067 c 256,13,14
 943 1067 943 1067 1005 964.5 c 128,-1,15
 1067 862 1067 862 1026 684 c 2,16,-1
 878 45 l 2,17,18
 868 0 868 0 823 0 c 2,19,-1
 737 0 l 2,20,21
 692 0 692 0 702 45 c 2,22,-1
 839 636 l 2,23,24
 884 832 884 832 836 884.5 c 128,-1,25
 788 937 788 937 678 937 c 256,26,27
 558 937 558 937 459.5 820.5 c 128,-1,28
 361 704 361 704 326 554 c 2,29,-1
 208 45 l 2,30,31
 198 0 198 0 153 0 c 2,32,-1
 67 0 l 2,0,1
EndSplineSet
Fore
SplineSet
67 0 m 2,0,1
 22 0 22 0 32 45 c 2,2,-1
 352 1431 l 2,3,4
 362 1476 362 1476 408 1476 c 2,5,-1
 494 1476 l 2,6,7
 538 1476 538 1476 528 1431 c 2,8,-1
 416 945 l 6,9,10
 410 917 410 917 401 885 c 1,11,-1
 405 885 l 1,12,13
 464 958 464 958 558.5 1012.5 c 128,-1,14
 653 1067 653 1067 773 1067 c 256,15,16
 943 1067 943 1067 1005 964.5 c 128,-1,17
 1067 862 1067 862 1026 684 c 2,18,-1
 878 45 l 2,19,20
 868 0 868 0 823 0 c 2,21,-1
 737 0 l 2,22,23
 692 0 692 0 702 45 c 2,24,-1
 839 636 l 2,25,26
 884 832 884 832 836 884.5 c 128,-1,27
 788 937 788 937 678 937 c 256,28,29
 558 937 558 937 459.5 820.5 c 128,-1,30
 361 704 361 704 326 554 c 2,31,-1
 208 45 l 2,32,33
 198 0 198 0 153 0 c 2,34,-1
 67 0 l 2,0,1
EndSplineSet
EndChar

StartChar: b
Encoding: 98 98 76
Width: 1119
Flags: W
HStem: -17 130<322.176 639.842> 0 21G<44.5 168.5> 937 130<553.609 793.984> 1456 20G<384.5 515.5>
VStem: 865 186<417.919 858.035>
DStem2: 17.6862 -17 194.123 -17 0.224951 0.97437<47.2239 177.726 271.603 850.848 964.884 1542.09>
LayerCount: 2
Fore
SplineSet
67 0 m 2,0,1
 22 -0 22 -0 32 45 c 2,2,-1
 352 1431 l 2,3,4
 362 1476 362 1476 407 1476 c 2,5,-1
 493 1476 l 2,6,7
 538 1476 538 1476 528 1431 c 2,8,-1
 416 946 l 2,9,10
 409 917 409 917 400 885 c 1,11,-1
 402 885 l 1,12,13
 446 964 446 964 539 1015.5 c 128,-1,14
 632 1067 632 1067 712 1067 c 256,15,16
 902 1067 902 1067 976.5 950.5 c 128,-1,17
 1051 834 1051 834 1051 671 c 0,18,19
 1051 416 1051 416 890 199.5 c 128,-1,20
 729 -17 729 -17 511 -17 c 256,21,22
 400 -17 400 -17 338 16.5 c 128,-1,23
 276 50 276 50 225 118 c 1,24,-1
 223 118 l 1,25,-1
 200 45 l 2,26,27
 186 0 186 0 151 0 c 2,28,-1
 67 0 l 2,0,1
265 290 m 17,29,30
 275 190 275 190 330 151.5 c 128,-1,31
 385 113 385 113 497 113 c 256,32,33
 649 113 649 113 757 282.5 c 128,-1,34
 865 452 865 452 865 678 c 0,35,36
 865 782 865 782 820 859.5 c 128,-1,37
 775 937 775 937 662 937 c 256,38,39
 564 937 564 937 462.5 819.5 c 128,-1,40
 361 702 361 702 330 570 c 2,41,-1
 265 290 l 17,29,30
EndSplineSet
EndChar

StartChar: d
Encoding: 100 100 77
Width: 1119
Flags: W
HStem: -17 130<327.016 567.391> 0 21G<709.5 834.5> 937 130<481.158 798.824> 1456 20G<1043.5 1174.5>
VStem: 70 186<191.965 632.081>
DStem2: 684.686 -17 852.686 -17 0.224951 0.97437<45.1988 185.504 316.648 869.47 973.418 1542.4>
LayerCount: 2
Fore
SplineSet
70 379 m 0,0,1
 70 634 70 634 231 850.5 c 128,-1,2
 392 1067 392 1067 610 1067 c 256,3,4
 721 1067 721 1067 783 1033.5 c 128,-1,5
 845 1000 845 1000 896 932 c 1,6,-1
 898 932 l 1,7,8
 901 956 901 956 910 993 c 2,9,-1
 1011 1431 l 2,10,11
 1021 1476 1021 1476 1066 1476 c 2,12,-1
 1152 1476 l 2,13,14
 1197 1476 1197 1476 1187 1431 c 2,15,-1
 867 45 l 2,16,17
 857 0 857 0 812 0 c 2,18,-1
 728 0 l 2,19,20
 691 0 691 0 699 45 c 2,21,-1
 721 165 l 1,22,-1
 719 165 l 1,23,24
 675 86 675 86 582 34.5 c 128,-1,25
 489 -17 489 -17 409 -17 c 256,26,27
 219 -17 219 -17 144.5 99.5 c 128,-1,28
 70 216 70 216 70 379 c 0,0,1
256 372 m 0,29,30
 256 268 256 268 301 190.5 c 128,-1,31
 346 113 346 113 459 113 c 256,32,33
 557 113 557 113 658.5 230.5 c 128,-1,34
 760 348 760 348 791 480 c 2,35,-1
 856 760 l 17,36,37
 846 860 846 860 791 898.5 c 128,-1,38
 736 937 736 937 624 937 c 256,39,40
 472 937 472 937 364 767.5 c 128,-1,41
 256 598 256 598 256 372 c 0,29,30
EndSplineSet
EndChar

StartChar: X
Encoding: 88 88 78
Width: 1298
Flags: W
HStem: 0 21G<-74 125.5 972 1132> 1414 20G<294.5 446.5 1233.5 1426>
DStem2: -45 66 182 39 0.676853 0.736119<40.8559 133.77 1112.52 1899.27> 721 873 294 1368 0.433326 -0.901237<-643.812 0 221.529 907.676>
LayerCount: 2
Back
SplineSet
1210.06 1434 m 25,0,0
 -106 0 l 25,0,0
1461.06 1434 m 25,0,0
 146 0 l 25,0,0
470.065 1434 m 25,0,0
 1164 0 l 25,0,0
259.065 1434 m 25,0,0
 952 0 l 25,0,0
EndSplineSet
Fore
SplineSet
-42 0 m 2,0,1
 -106 0 -106 0 -45 66 c 2,2,-1
 593 752 l 1,3,-1
 294 1368 l 2,4,5
 262 1434 262 1434 327 1434 c 2,6,-1
 425 1434 l 2,7,8
 468 1434 468 1434 486 1395 c 2,9,-1
 721 873 l 1,10,-1
 1177 1395 l 2,11,12
 1211 1434 1211 1434 1256 1434 c 2,13,-1
 1394 1434 l 2,14,15
 1458 1434 1458 1434 1397 1368 c 2,16,-1
 806 727 l 1,17,-1
 1132 66 l 2,18,19
 1165 0 1165 0 1099 0 c 2,20,-1
 994 0 l 2,21,22
 950 0 950 0 933 39 c 2,23,-1
 679 607 l 1,24,-1
 182 39 l 2,25,26
 148 0 148 0 103 0 c 2,27,-1
 -42 0 l 2,0,1
EndSplineSet
EndChar

StartChar: comma
Encoding: 44 44 82
Width: 600
Flags: MW
HStem: -281 493 0 212<116.473 174>
VStem: 35 287
LayerCount: 2
Back
SplineSet
122 0 m 2,0,1
 77 0 77 0 87.3887 45 c 2,2,-1
 115.555 167 l 2,3,4
 125.944 212 125.944 212 170.944 212 c 2,5,-1
 286.944 212 l 2,6,7
 331.944 212 331.944 212 321.555 167 c 2,8,-1
 293.389 45 l 258,9,10
 269.147 -60 269.147 -60 228.524 -138.5 c 128,-1,11
 187.901 -217 187.901 -217 108.28 -276 c 256,12,13
 81.8936 -295 81.8936 -295 70.126 -281 c 2,14,-1
 34.8223 -239 l 2,15,16
 23.0547 -225 23.0547 -225 49.6719 -205 c 256,17,18
 90.5977 -175 90.5977 -175 125.143 -118.5 c 128,-1,19
 159.687 -62 159.687 -62 174 0 c 9,20,-1
 122 0 l 2,0,1
EndSplineSet
Fore
SplineSet
122 0 m 2,0,1
 76 0 76 0 87 45 c 2,2,-1
 116 167 l 2,3,4
 127 212 127 212 171 212 c 2,5,-1
 287 212 l 2,6,7
 333 212 333 212 322 167 c 2,8,-1
 293 45 l 258,9,10
 263 -82 263 -82 225.5 -147 c 128,-1,11
 188 -212 188 -212 110 -274 c 256,12,13
 84 -294 84 -294 72 -281 c 2,14,-1
 35 -241 l 2,15,16
 21 -226 21 -226 48 -206 c 256,17,18
 83 -180 83 -180 122 -117.5 c 128,-1,19
 161 -55 161 -55 174 0 c 9,20,-1
 122 0 l 2,0,1
EndSplineSet
EndChar

StartChar: afii10028
Encoding: 1050 1050 83
Width: 1270
Flags: W
HStem: 0 21G<75 217 941.5 1102.5> 653 160<430 606.879> 1414 20G<406 548 1213.5 1404.5>
DStem2: 50.3022 0 242.302 0 0.224951 0.97437<33.6777 713.354 877.576 1481.08> 919 506 768 408 0.389367 -0.921083<-173.923 492.24> 808 1014 967 932 0.683272 0.730164<-246.956 615.978>
LayerCount: 2
Fore
SplineSet
100 0 m 2,0,1
 50 0 50 0 63 55 c 2,2,-1
 368 1379 l 2,3,4
 381 1434 381 1434 431 1434 c 2,5,-1
 523 1434 l 2,6,7
 573 1434 573 1434 560 1379 c 2,8,-1
 430 813 l 1,9,-1
 472 813 l 6,10,11
 586 813 586 813 657.5 870 c 128,-1,12
 729 927 729 927 808 1014 c 2,13,-1
 1156 1395 l 2,14,15
 1192 1434 1192 1434 1235 1434 c 2,16,-1
 1372 1434 l 2,17,18
 1437 1434 1437 1434 1375 1368 c 2,19,-1
 967 932 l 2,20,21
 896 856 896 856 816.5 800.5 c 128,-1,22
 737 745 737 745 709 735 c 1,23,-1
 708 734 l 1,24,25
 765 708 765 708 827 643 c 128,-1,26
 889 578 889 578 919 506 c 2,27,-1
 1105 66 l 2,28,29
 1133 0 1133 0 1072 0 c 2,30,-1
 965 0 l 2,31,32
 918 0 918 0 904 39 c 2,33,-1
 768 408 l 2,34,35
 728 516 728 516 642.5 584.5 c 128,-1,36
 557 653 557 653 450 653 c 2,37,-1
 393 653 l 1,38,-1
 255 55 l 2,39,40
 242 0 242 0 192 0 c 2,41,-1
 100 0 l 2,0,1
EndSplineSet
EndChar

StartChar: afii10024
Encoding: 1046 1046 84
Width: 1928
Flags: W
HStem: 0 21G<-72 129 773 915 1599.5 1760> 653 160<756.199 899 1128 1279.89> 1414 20G<288.5 439 1104 1246 1871 2062>
DStem2: -45 66 184 39 0.655584 0.755123<39.4647 885.269> 478 1395 485 932 0.413488 -0.910509<-63.0698 626.695> 748.302 0 940.302 0 0.224951 0.97437<33.6777 670.163 877.576 1481.08> 1585 506 1434 408 0.37502 -0.927017<-172.41 491.002> 1474 1014 1633 932 0.676031 0.736873<-246.955 610.109>
LayerCount: 2
Back
SplineSet
-42 0 m 2,0,1
 -102 0 -102 0 -45 66 c 2,2,-1
 337 506 l 2,3,4
 450 637 450 637 520 679.5 c 128,-1,5
 590 722 590 722 648 734 c 1,6,-1
 649 735 l 1,7,8
 625 745 625 745 573.5 798.5 c 128,-1,9
 522 852 522 852 485 932 c 2,10,-1
 287 1368 l 2,11,12
 257 1434 257 1434 320 1434 c 2,13,-1
 437 1434 l 2,14,15
 481 1434 481 1434 498 1395 c 2,16,-1
 662 1014 l 2,17,18
 701 923 701 923 754 868 c 128,-1,19
 807 813 807 813 906 813 c 2,20,-1
 936 813 l 1,21,-1
 1066 1379 l 2,22,23
 1079 1434 1079 1434 1129 1434 c 2,24,-1
 1221 1434 l 2,25,26
 1271 1434 1271 1434 1258 1379 c 2,27,-1
 1128 813 l 1,28,-1
 1158 813 l 2,29,30
 1257 813 1257 813 1335 868 c 128,-1,31
 1413 923 1413 923 1494 1014 c 2,32,-1
 1834 1395 l 2,33,34
 1869 1434 1869 1434 1913 1434 c 2,35,-1
 2030 1434 l 2,36,37
 2093 1434 2093 1434 2033 1368 c 2,38,-1
 1633 932 l 2,39,40
 1560 852 1560 852 1483.5 798.5 c 128,-1,41
 1407 745 1407 745 1379 735 c 1,42,-1
 1378 734 l 1,43,44
 1432 722 1432 722 1482 679.5 c 128,-1,45
 1532 637 1532 637 1585 506 c 2,46,-1
 1763 66 l 2,47,48
 1790 0 1790 0 1730 0 c 2,49,-1
 1603 0 l 2,50,51
 1556 0 1556 0 1542 39 c 2,52,-1
 1414 408 l 2,53,54
 1376 519 1376 519 1302 586 c 128,-1,55
 1228 653 1228 653 1136 653 c 2,56,-1
 1091 653 l 1,57,-1
 953 55 l 2,58,59
 940 0 940 0 890 0 c 2,60,-1
 798 0 l 2,61,62
 748 0 748 0 761 55 c 2,63,-1
 899 653 l 1,64,-1
 854 653 l 2,65,66
 762 653 762 653 657 586 c 128,-1,67
 552 519 552 519 462 408 c 2,68,-1
 164 39 l 2,69,70
 132 0 132 0 85 0 c 2,71,-1
 -42 0 l 2,0,1
EndSplineSet
Fore
SplineSet
-42 0 m 2,0,1
 -102 0 -102 0 -45 66 c 2,2,-1
 337 506 l 2,3,4
 451 637 451 637 520.5 679.5 c 128,-1,5
 590 722 590 722 648 734 c 1,6,-1
 649 735 l 1,7,8
 625 745 625 745 573 799 c 128,-1,9
 521 853 521 853 485 932 c 2,10,-1
 287 1368 l 2,11,12
 257 1434 257 1434 320 1434 c 2,13,-1
 417 1434 l 2,14,15
 461 1434 461 1434 478 1395 c 2,16,-1
 642 1014 l 2,17,18
 681 923 681 923 742 868 c 128,-1,19
 803 813 803 813 906 813 c 2,20,-1
 936 813 l 1,21,-1
 1066 1379 l 2,22,23
 1079 1434 1079 1434 1129 1434 c 2,24,-1
 1221 1434 l 2,25,26
 1271 1434 1271 1434 1258 1379 c 2,27,-1
 1128 813 l 1,28,-1
 1158 813 l 2,29,30
 1257 813 1257 813 1326 869 c 128,-1,31
 1395 925 1395 925 1474 1014 c 2,32,-1
 1814 1395 l 2,33,34
 1849 1434 1849 1434 1893 1434 c 2,35,-1
 2030 1434 l 2,36,37
 2094 1434 2094 1434 2033 1368 c 2,38,-1
 1633 932 l 2,39,40
 1558 850 1558 850 1482.5 797.5 c 128,-1,41
 1407 745 1407 745 1379 735 c 1,42,-1
 1378 734 l 1,43,44
 1432 722 1432 722 1482 679.5 c 128,-1,45
 1532 637 1532 637 1585 506 c 2,46,-1
 1763 66 l 2,47,48
 1790 0 1790 0 1730 0 c 2,49,-1
 1623 0 l 2,50,51
 1576 0 1576 0 1562 39 c 2,52,-1
 1434 408 l 2,53,54
 1395 520 1395 520 1311.5 586.5 c 128,-1,55
 1228 653 1228 653 1136 653 c 2,56,-1
 1091 653 l 1,57,-1
 953 55 l 2,58,59
 940 0 940 0 890 0 c 2,60,-1
 798 0 l 2,61,62
 748 -0 748 -0 761 55 c 2,63,-1
 899 653 l 1,64,-1
 854 653 l 2,65,66
 768 653 768 653 669.5 585.5 c 128,-1,67
 571 518 571 518 482 408 c 6,68,-1
 184 39 l 2,69,70
 153 0 153 0 105 0 c 2,71,-1
 -42 0 l 2,0,1
EndSplineSet
EndChar

StartChar: P
Encoding: 80 80 85
Width: 1298
Flags: W
HStem: 0 21G<75 217> 576 164<413 967.019> 1270 164<535 1029.96>
VStem: 1123 195<874.298 1184.17>
DStem2: 50.3022 0 242.302 0 0.224951 0.97437<33.6777 634.278 802.623 1346.48>
LayerCount: 2
Back
SplineSet
100 0 m 2,0,1
 50 0 50 0 62.6973 55 c 2,2,-1
 368.367 1379 l 2,3,4
 381.065 1434 381.065 1434 431.065 1434 c 2,5,-1
 851.065 1434 l 2,6,7
 1191.06 1434 1191.06 1434 1283.63 1319.5 c 128,-1,8
 1376.2 1205 1376.2 1205 1330.02 1005 c 256,9,10
 1283.85 805 1283.85 805 1138.41 690.5 c 128,-1,11
 992.98 576 992.98 576 652.98 576 c 2,12,-1
 374.98 576 l 1,13,-1
 254.697 55 l 2,14,15
 242 0 242 0 192 0 c 2,16,-1
 100 0 l 2,0,1
412.843 740 m 1,17,-1
 693.843 740 l 2,18,19
 913.843 740 913.843 740 1008.27 802.5 c 128,-1,20
 1102.7 865 1102.7 865 1135.02 1005 c 256,21,22
 1167.34 1145 1167.34 1145 1101.77 1207.5 c 128,-1,23
 1036.2 1270 1036.2 1270 816.202 1270 c 2,24,-1
 535.202 1270 l 1,25,-1
 412.843 740 l 1,17,-1
EndSplineSet
Fore
SplineSet
100 0 m 2,0,1
 50 0 50 0 63 55 c 2,2,-1
 368 1379 l 2,3,4
 381 1434 381 1434 431 1434 c 2,5,-1
 841 1434 l 2,6,7
 1075 1434 1075 1434 1196.5 1329 c 128,-1,8
 1318 1224 1318 1224 1318 1045 c 256,9,10
 1318 864 1318 864 1172.5 720 c 128,-1,11
 1027 576 1027 576 673 576 c 2,12,-1
 375 576 l 1,13,-1
 255 55 l 2,14,15
 242 0 242 0 192 0 c 2,16,-1
 100 0 l 2,0,1
413 740 m 1,17,-1
 724 740 l 2,18,19
 931 740 931 740 1027 818.5 c 128,-1,20
 1123 897 1123 897 1123 1025 c 256,21,22
 1123 1161 1123 1161 1048 1215.5 c 128,-1,23
 973 1270 973 1270 806 1270 c 2,24,-1
 535 1270 l 1,25,-1
 413 740 l 1,17,-1
EndSplineSet
EndChar

StartChar: B
Encoding: 66 66 86
Width: 1338
Flags: W
HStem: 0 164<280 842.824> 664 144<429 891.036> 1270 164<535 1014.12>
VStem: 1012 205<296.646 567.11> 1091 195<952.305 1201.46>
DStem2: 50.3022 0 242.138 0 0.224951 0.97437<211.467 724.522 872.479 1346.48>
LayerCount: 2
Back
SplineSet
110 0 m 2,0,1
 60 0 60 0 73 55 c 2,2,-1
 378 1379 l 2,3,4
 391 1434 391 1434 441 1434 c 2,5,-1
 533 1434 l 2,6,7
 583 1434 583 1434 570 1379 c 2,8,-1
 443 828 l 1,9,-1
 711 828 l 2,10,11
 1003 828 1003 828 1110 721.5 c 128,-1,12
 1217 615 1217 615 1217 454 c 256,13,14
 1217 270 1217 270 1057 135 c 128,-1,15
 897 0 897 0 560 0 c 2,16,-1
 110 0 l 2,0,1
290 164 m 1,17,-1
 566 164 l 2,18,19
 781 164 781 164 896.5 238 c 128,-1,20
 1012 312 1012 312 1012 444 c 256,21,22
 1012 585 1012 585 919 624.5 c 128,-1,23
 826 664 826 664 641 664 c 2,24,-1
 405 664 l 1,25,-1
 290 164 l 1,17,-1
70 0 m 2,0,1
 20 0 20 0 33 55 c 2,2,-1
 338 1379 l 2,3,4
 351 1434 351 1434 401 1434 c 2,5,-1
 811 1434 l 2,6,7
 1045 1434 1045 1434 1166.5 1329 c 128,-1,8
 1288 1224 1288 1224 1288 1045 c 256,9,10
 1288 864 1288 864 1142.5 720 c 128,-1,11
 997 576 997 576 643 576 c 2,12,-1
 345 576 l 1,13,-1
 225 55 l 2,14,15
 212 0 212 0 162 0 c 2,16,-1
 70 0 l 2,0,1
383 740 m 1,17,-1
 694 740 l 2,18,19
 901 740 901 740 997 818.5 c 128,-1,20
 1093 897 1093 897 1093 1025 c 256,21,22
 1093 1161 1093 1161 1018 1215.5 c 128,-1,23
 943 1270 943 1270 776 1270 c 2,24,-1
 505 1270 l 1,25,-1
 383 740 l 1,17,-1
100 0 m 2,0,1
 50 0 50 0 62.6973 55 c 2,2,-1
 368.367 1379 l 2,3,4
 381.065 1434 381.065 1434 431.065 1434 c 2,5,-1
 821.065 1434 l 2,6,7
 1161.06 1434 1161.06 1434 1253.67 1324 c 128,-1,8
 1346.27 1214 1346.27 1214 1310.49 1059 c 256,9,10
 1282.09 936 1282.09 936 1164.35 850.5 c 128,-1,11
 1046.61 765 1046.61 765 951.151 750 c 1,12,-1
 950.459 747 l 1,13,14
 1049.38 738 1049.38 738 1152.76 646.5 c 128,-1,15
 1256.13 555 1256.13 555 1219.89 398 c 256,16,17
 1180.64 228 1180.64 228 1028.82 114 c 128,-1,18
 877 0 877 0 540 0 c 2,19,-1
 100 0 l 2,0,1
1016.27 404 m 256,20,21
 1076.3 664 1076.3 664 661.297 664 c 2,22,-1
 395.297 664 l 1,23,-1
 279.862 164 l 1,24,-1
 545.862 164 l 2,25,26
 760.862 164 760.862 164 873.099 217 c 128,-1,27
 985.334 270 985.334 270 1016.27 404 c 256,20,21
428.541 808 m 1,28,-1
 679.541 808 l 2,29,30
 846.541 808 846.541 808 968.549 879.5 c 128,-1,31
 1090.56 951 1090.56 951 1115.49 1059 c 256,32,33
 1139.27 1162 1139.27 1162 1072.74 1216 c 128,-1,34
 1006.2 1270 1006.2 1270 786.202 1270 c 2,35,-1
 535.202 1270 l 1,36,-1
 428.541 808 l 1,28,-1
EndSplineSet
Fore
SplineSet
100 0 m 2,0,1
 50 0 50 0 63 55 c 2,2,-1
 368 1379 l 2,3,4
 381 1434 381 1434 431 1434 c 2,5,-1
 801 1434 l 2,6,7
 1074 1434 1074 1434 1180 1333.5 c 128,-1,8
 1286 1233 1286 1233 1286 1084 c 256,9,10
 1286 945 1286 945 1190.5 862.5 c 128,-1,11
 1095 780 1095 780 953 750 c 1,12,-1
 953 747 l 1,13,14
 1056 726 1056 726 1136.5 646.5 c 128,-1,15
 1217 567 1217 567 1217 431 c 256,16,17
 1217 264 1217 264 1066 132 c 128,-1,18
 915 0 915 0 570 0 c 2,19,-1
 100 0 l 2,0,1
280 164 m 1,20,-1
 576 164 l 2,21,22
 786 164 786 164 899 235 c 128,-1,23
 1012 306 1012 306 1012 439 c 256,24,25
 1012 560 1012 560 909.5 612 c 128,-1,26
 807 664 807 664 631 664 c 2,27,-1
 395 664 l 1,28,-1
 280 164 l 1,20,-1
429 808 m 1,29,-1
 700 808 l 2,30,31
 842 808 842 808 966.5 884 c 128,-1,32
 1091 960 1091 960 1091 1076 c 256,33,34
 1091 1179 1091 1179 1018 1224.5 c 128,-1,35
 945 1270 945 1270 766 1270 c 2,36,-1
 535 1270 l 1,37,-1
 429 808 l 1,29,-1
EndSplineSet
EndChar

StartChar: hyphen
Encoding: 45 45 89
Width: 680
Flags: W
HStem: 483 140<70.0508 625.949>
VStem: 56 584
LayerCount: 2
Fore
SplineSet
93 483 m 2,0,1
 48 483 48 483 56 518 c 2,2,-1
 72 588 l 2,3,4
 80 623 80 623 125 623 c 2,5,-1
 603 623 l 2,6,7
 648 623 648 623 640 588 c 2,8,-1
 624 518 l 2,9,10
 616 483 616 483 571 483 c 2,11,-1
 93 483 l 2,0,1
EndSplineSet
EndChar

StartChar: endash
Encoding: 8211 8211 90
Width: 1032
Flags: W
HStem: 488 130<44 996>
LayerCount: 2
Fore
SplineSet
89 488 m 2,0,1
 44 488 44 488 44 523 c 2,2,-1
 44 583 l 2,3,4
 44 618 44 618 89 618 c 2,5,-1
 951 618 l 2,6,7
 996 618 996 618 996 583 c 2,8,-1
 996 523 l 2,9,10
 996 488 996 488 951 488 c 2,11,-1
 89 488 l 2,0,1
EndSplineSet
EndChar

StartChar: C
Encoding: 67 67 91
Width: 1392
Flags: W
HStem: -30 156<511.906 923.346> 1308 156<668.856 1080.41>
VStem: 110 205<338.259 898.572>
LayerCount: 2
Back
SplineSet
110 580 m 4,0,1
 110 980 110 980 324 1222 c 132,-1,2
 538 1464 538 1464 878 1464 c 260,3,4
 1183 1464 1183 1464 1339 1301.5 c 132,-1,5
 1495 1139 1495 1139 1495 854 c 4,6,7
 1495 454 1495 454 1281 212 c 132,-1,8
 1067 -30 1067 -30 727 -30 c 260,9,10
 422 -30 422 -30 266 132.5 c 132,-1,11
 110 295 110 295 110 580 c 4,0,1
315 556 m 4,12,13
 315 351 315 351 421.5 238.5 c 132,-1,14
 528 126 528 126 738 126 c 260,15,16
 958 126 958 126 1124 309.5 c 132,-1,17
 1290 493 1290 493 1290 878 c 4,18,19
 1290 1083 1290 1083 1183.5 1195.5 c 132,-1,20
 1077 1308 1077 1308 867 1308 c 260,21,22
 647 1308 647 1308 481 1124.5 c 132,-1,23
 315 941 315 941 315 556 c 4,12,13
EndSplineSet
Fore
SplineSet
110 580 m 0,0,1
 110 975 110 975 320.5 1219.5 c 128,-1,2
 531 1464 531 1464 908 1464 c 256,3,4
 1092 1464 1092 1464 1206 1400 c 128,-1,5
 1320 1336 1320 1336 1367 1230 c 256,6,7
 1390 1177 1390 1177 1344 1150 c 258,8,-1
 1266 1104 l 258,9,10
 1239 1088 1239 1088 1214 1132 c 256,11,12
 1184 1186 1184 1186 1105 1247 c 128,-1,13
 1026 1308 1026 1308 891 1308 c 256,14,15
 641 1308 641 1308 478 1125 c 128,-1,16
 315 942 315 942 315 557 c 0,17,18
 315 375 315 375 411 250.5 c 128,-1,19
 507 126 507 126 737 126 c 256,20,21
 873 126 873 126 967.5 197.5 c 152,-1,22
 1062 269 1062 269 1114 341 c 256,23,24
 1156 399 1156 399 1192 376 c 258,25,-1
 1282 318 l 258,26,27
 1315 297 1315 297 1274 238 c 256,28,29
 1195 123 1195 123 1061 46.5 c 152,-1,30
 927 -30 927 -30 710 -30 c 256,31,32
 408 -30 408 -30 259 142.5 c 128,-1,33
 110 315 110 315 110 580 c 0,0,1
EndSplineSet
EndChar

StartChar: T
Encoding: 84 84 92
Width: 1240
Flags: W
HStem: 0 21G<429 571> 1262 172<237.438 695 887 1385.8>
DStem2: 404.302 0 596.302 0 0.224951 0.97437<33.6777 1295.05>
LayerCount: 2
Back
SplineSet
76 1313 m 2,0,-1
 76 1372 l 2,1,2
 76 1406 76 1406 84.5 1415.5 c 128,-1,3
 93 1425 93 1425 116 1429 c 0,4,5
 120 1430 120 1430 123 1430 c 2,6,-1
 1339 1430 l 2,7,8
 1384 1430 1384 1430 1394.5 1417 c 128,-1,9
 1405 1404 1405 1404 1405 1362 c 2,10,-1
 1405 1327 l 2,11,12
 1405 1290 1405 1290 1394 1278 c 128,-1,13
 1383 1266 1383 1266 1346 1266 c 2,14,-1
 836 1266 l 1,15,-1
 836 61 l 2,16,17
 836 17 836 17 819 6 c 1,18,19
 817 6 817 6 814.5 5 c 128,-1,20
 812 4 812 4 811 4 c 2,21,22
 803 0 803 0 786 0 c 2,23,-1
 711 0 l 2,24,25
 686 0 686 0 672 2.5 c 128,-1,26
 658 5 658 5 652.5 16 c 128,-1,27
 647 27 647 27 646 35.5 c 128,-1,28
 645 44 645 44 645 68 c 2,29,-1
 645 1266 l 1,30,-1
 133 1266 l 2,31,32
 118 1266 118 1266 108 1267.5 c 128,-1,33
 98 1269 98 1269 91.5 1275.5 c 128,-1,34
 85 1282 85 1282 82 1284.5 c 128,-1,35
 79 1287 79 1287 77.5 1298.5 c 128,-1,36
 76 1310 76 1310 76 1313 c 2,0,-1
EndSplineSet
Fore
SplineSet
262 1262 m 2,0,1
 207 1262 207 1262 218 1307 c 2,2,-1
 237 1389 l 2,3,4
 247 1434 247 1434 302 1434 c 2,5,-1
 1360 1434 l 2,6,7
 1415 1434 1415 1434 1405 1389 c 2,8,-1
 1386 1307 l 2,9,10
 1375 1262 1375 1262 1320 1262 c 2,11,-1
 887 1262 l 1,12,-1
 609 55 l 2,13,14
 596 0 596 0 546 0 c 2,15,-1
 454 0 l 2,16,17
 404 0 404 0 417 55 c 2,18,-1
 695 1262 l 1,19,-1
 262 1262 l 2,0,1
EndSplineSet
EndChar

StartChar: V
Encoding: 86 86 93
Width: 1338
Flags: W
HStem: 0 21G<457.5 640.5> 1414 20G<258.5 401.5 1335 1502>
DStem2: 553 490 427 61 0.140149 -0.99013<-959.161 315.027> 747 490 699 61 0.516806 0.856103<-356.091 1129.68>
LayerCount: 2
Back
SplineSet
242 1368 m 18,0,1
 232 1434 232 1434 284 1434 c 2,2,-1
 386 1434 l 2,3,4
 440 1434 440 1434 447 1385 c 10,5,-1
 565 490 l 2,6,7
 573 431 573 431 581.5 331.5 c 128,-1,8
 590 232 590 232 587 173 c 1,9,-1
 591 173 l 1,10,11
 616 232 616 232 670.5 331.5 c 128,-1,12
 725 431 725 431 759 490 c 2,13,-1
 1291 1385 l 18,14,15
 1320 1434 1320 1434 1374 1434 c 2,16,-1
 1476 1434 l 2,17,18
 1528 1434 1528 1434 1488 1368 c 10,19,-1
 699 61 l 2,20,21
 662 0 662 0 619 0 c 2,22,-1
 479 0 l 2,23,24
 436 0 436 0 427 61 c 2,25,-1
 242 1368 l 18,0,1
EndSplineSet
Fore
SplineSet
242 1368 m 18,0,1
 233 1434 233 1434 284 1434 c 2,2,-1
 374 1434 l 2,3,4
 429 1434 429 1434 435 1385 c 10,5,-1
 553 490 l 2,6,7
 561 431 561 431 568 333 c 128,-1,8
 575 235 575 235 575 173 c 1,9,-1
 579 173 l 1,10,11
 605 236 605 236 660.5 337 c 128,-1,12
 716 438 716 438 747 490 c 2,13,-1
 1279 1385 l 18,14,15
 1308 1434 1308 1434 1362 1434 c 2,16,-1
 1476 1434 l 2,17,18
 1528 1434 1528 1434 1488 1368 c 10,19,-1
 699 61 l 2,20,21
 662 0 662 0 619 0 c 2,22,-1
 479 0 l 2,23,24
 436 -0 436 -0 427 61 c 2,25,-1
 242 1368 l 18,0,1
EndSplineSet
EndChar

StartChar: A
Encoding: 65 65 94
Width: 1360
Flags: W
HStem: 0 21G<-72.5 92 1049.5 1193.5> 380 164<441 929> 1414 20G<769 951.5>
DStem2: -59 66 148 49 0.507596 0.861595<7.81863 474.595 665.641 1476.63> 983 1373 859 944 0.170387 -0.985377<86.5749 807.677 974.22 1366.72>
LayerCount: 2
Back
SplineSet
785.982 1373 m 6,8,-1
 1012.24 66 l 6,9,10
158.237 66 m 2,2,-1
 927.982 1373 l 2,3,4
-58.7627 66 m 2,2,-1
 710.982 1373 l 2,3,4
982.982 1373 m 2,8,-1
 1209.24 66 l 2,9,10
EndSplineSet
Fore
SplineSet
-47 0 m 2,0,1
 -98 0 -98 0 -59 66 c 2,2,-1
 711 1373 l 2,3,4
 747 1434 747 1434 791 1434 c 2,5,-1
 931 1434 l 2,6,7
 972 1434 972 1434 983 1373 c 2,8,-1
 1209 66 l 2,9,10
 1220 0 1220 0 1167 0 c 2,11,-1
 1076 0 l 2,12,13
 1023 0 1023 0 1015 49 c 2,14,-1
 958 380 l 1,15,-1
 343 380 l 1,16,-1
 148 49 l 2,17,18
 119 0 119 0 65 0 c 2,19,-1
 -47 0 l 2,0,1
441 544 m 1,20,-1
 929 544 l 1,21,-1
 859 944 l 2,22,23
 846 1016 846 1016 838 1101.5 c 128,-1,24
 830 1187 830 1187 830 1261 c 1,25,-1
 826 1261 l 1,26,27
 808 1190 808 1190 770 1116 c 128,-1,28
 732 1042 732 1042 675 944 c 2,29,-1
 441 544 l 1,20,-1
EndSplineSet
EndChar

StartChar: afii10029
Encoding: 1051 1051 98
Width: 1474
Flags: W
HStem: -30 157<-41.6477 216.002> 0 21G<1017 1159> 1270 164<773 1285>
DStem2: 307.429 -30 473.358 -30 0.224951 0.97437<643.357 1371.41> 985.376 -30 1177.38 -30 0.224951 0.97437<64.4669 1334.08>
LayerCount: 2
Fore
SplineSet
-46 -17 m 256,0,1
 -77 -6 -77 -6 -67 29 c 2,2,-1
 -42 112 l 2,3,4
 -31 149 -31 149 15 135 c 256,5,6
 41 127 41 127 92 127 c 0,7,8
 261 127 261 127 363.5 390.5 c 128,-1,9
 466 654 466 654 563 1077 c 2,10,-1
 632 1379 l 2,11,12
 645 1434 645 1434 695 1434 c 2,13,-1
 1465 1434 l 2,14,15
 1515 1434 1515 1434 1502 1379 c 2,16,-1
 1197 55 l 2,17,18
 1184 0 1184 0 1134 0 c 2,19,-1
 1042 0 l 2,20,21
 992 -0 992 -0 1005 55 c 2,22,-1
 1285 1270 l 1,23,-1
 773 1270 l 1,24,-1
 716 1021 l 2,25,26
 572 393 572 393 443.5 181.5 c 128,-1,27
 315 -30 315 -30 79 -30 c 0,28,29
 -9 -30 -9 -30 -46 -17 c 256,0,1
EndSplineSet
EndChar

StartChar: afii10038
Encoding: 1060 1060 99
Width: 1728
Flags: W
HStem: -12 21G<670 812> 200 150<465.368 694 921 1221.34> 1110 150<603.664 904 1131 1359.63> 1419 20G<1005.5 1147>
VStem: 122 205<470.39 852.604> 1498 205<607.396 989.61>
DStem2: 645.302 -12 837.302 -12 0.224951 0.97437<33.6777 217.521 414.74 1151.44 1348.66 1498.68>
LayerCount: 2
Back
SplineSet
140.534 730 m 256,0,1
 205.177 1010 205.177 1010 401.535 1135 c 128,-1,2
 597.894 1260 597.894 1260 877.894 1260 c 2,3,-1
 950.894 1260 l 1,4,-1
 979.521 1384 l 2,5,6
 992.22 1439 992.22 1439 1042.22 1439 c 2,7,-1
 1134.22 1439 l 2,8,9
 1184.22 1439 1184.22 1439 1171.52 1384 c 2,10,-1
 1142.89 1260 l 1,11,-1
 1215.89 1260 l 2,12,13
 1495.89 1260 1495.89 1260 1634.54 1135 c 128,-1,14
 1773.18 1010 1773.18 1010 1708.53 730 c 256,15,16
 1643.89 450 1643.89 450 1447.53 325 c 128,-1,17
 1251.17 200 1251.17 200 971.174 200 c 2,18,-1
 898.174 200 l 1,19,-1
 861.928 43 l 2,20,21
 849.229 -12 849.229 -12 799.229 -12 c 2,22,-1
 707.229 -12 l 2,23,24
 657.229 -12 657.229 -12 669.928 43 c 2,25,-1
 706.174 200 l 1,26,-1
 633.174 200 l 2,27,28
 353.174 200 353.174 200 214.532 325 c 128,-1,29
 75.8906 450 75.8906 450 140.534 730 c 256,0,1
345.534 730 m 256,30,31
 299.36 530 299.36 530 380.082 440 c 128,-1,32
 460.804 350 460.804 350 690.804 350 c 2,33,-1
 740.804 350 l 1,34,-1
 916.264 1110 l 1,35,-1
 866.264 1110 l 2,36,37
 636.264 1110 636.264 1110 513.985 1020 c 128,-1,38
 391.707 930 391.707 930 345.534 730 c 256,30,31
932.804 350 m 1,39,-1
 982.804 350 l 2,40,41
 1212.8 350 1212.8 350 1335.08 440 c 128,-1,42
 1457.36 530 1457.36 530 1503.53 730 c 256,43,44
 1549.71 930 1549.71 930 1468.99 1020 c 128,-1,45
 1388.26 1110 1388.26 1110 1158.26 1110 c 2,46,-1
 1108.26 1110 l 1,47,-1
 932.804 350 l 1,39,-1
EndSplineSet
Fore
SplineSet
122 650 m 256,0,1
 122 917 122 917 318 1088.5 c 128,-1,2
 514 1260 514 1260 836 1260 c 2,3,-1
 939 1260 l 1,4,-1
 968 1384 l 2,5,6
 981 1439 981 1439 1030 1439 c 2,7,-1
 1122 1439 l 2,8,9
 1172 1439 1172 1439 1160 1384 c 2,10,-1
 1131 1260 l 1,11,-1
 1174 1260 l 2,12,13
 1437 1260 1437 1260 1570 1138.5 c 128,-1,14
 1703 1017 1703 1017 1703 810 c 256,15,16
 1703 543 1703 543 1507 371.5 c 128,-1,17
 1311 200 1311 200 989 200 c 2,18,-1
 886 200 l 1,19,-1
 850 43 l 2,20,21
 837 -12 837 -12 787 -12 c 2,22,-1
 695 -12 l 2,23,24
 645 -12 645 -12 658 43 c 2,25,-1
 694 200 l 1,26,-1
 651 200 l 2,27,28
 388 200 388 200 255 321.5 c 128,-1,29
 122 443 122 443 122 650 c 256,0,1
327 630 m 256,30,31
 327 491 327 491 419 420.5 c 128,-1,32
 511 350 511 350 709 350 c 2,33,-1
 729 350 l 1,34,-1
 904 1110 l 1,35,-1
 824 1110 l 2,36,37
 619 1110 619 1110 473 988 c 128,-1,38
 327 866 327 866 327 630 c 256,30,31
921 350 m 1,39,-1
 1001 350 l 2,40,41
 1206 350 1206 350 1352 472 c 128,-1,42
 1498 594 1498 594 1498 830 c 256,43,44
 1498 969 1498 969 1406 1039.5 c 128,-1,45
 1314 1110 1314 1110 1116 1110 c 2,46,-1
 1096 1110 l 1,47,-1
 921 350 l 1,39,-1
EndSplineSet
EndChar

StartChar: g
Encoding: 103 103 100
Width: 1119
Flags: W
HStem: -417 130<150.229 528.583> -17 130<327.016 567.391> 937 130<481.158 798.824> 1030 20G<952.5 1076.5>
VStem: 70 186<191.965 632.081>
DStem2: 585.188 -417 760.575 -417 0.224951 0.97437<222.022 597.634 711.67 1289.12 1384.79 1515.29>
LayerCount: 2
Back
SplineSet
86 525 m 256,0,1
 136 740 136 740 277.5 903.5 c 128,-1,2
 419 1067 419 1067 619 1067 c 256,3,4
 734 1067 734 1067 794.5 1029 c 128,-1,5
 855 991 855 991 895 925 c 1,6,-1
 897 925 l 1,7,-1
 921 1005 l 2,8,9
 935 1050 935 1050 970 1050 c 2,10,-1
 1054 1050 l 2,11,12
 1099 1050 1099 1050 1089 1005 c 2,13,-1
 855 -8 l 2,14,15
 811 -200 811 -200 697.5 -308.5 c 128,-1,16
 584 -417 584 -417 323 -417 c 256,17,18
 148 -417 148 -417 70 -377.5 c 152,-1,19
 -8 -338 -8 -338 -35 -294 c 256,20,21
 -54 -261 -54 -261 -25 -238 c 2,22,-1
 43 -184 l 2,23,24
 70 -162 70 -162 103 -198 c 256,25,26
 145 -246 145 -246 189.5 -266.5 c 128,-1,27
 234 -287 234 -287 354 -287 c 256,28,29
 490 -287 490 -287 566 -229 c 128,-1,30
 642 -171 642 -171 684 11 c 2,31,-1
 697 71 l 2,32,33
 705 102 705 102 713 132 c 1,34,-1
 711 132 l 1,35,36
 644 63 644 63 564 23 c 128,-1,37
 484 -17 484 -17 369 -17 c 256,38,39
 169 -17 169 -17 103 146.5 c 128,-1,40
 37 310 37 310 86 525 c 256,0,1
272 525 m 256,41,42
 230 341 230 341 267 227 c 128,-1,43
 304 113 304 113 456 113 c 256,44,45
 564 113 564 113 652.5 186.5 c 128,-1,46
 741 260 741 260 776 410 c 2,47,-1
 829 640 l 2,48,49
 863 790 863 790 808.5 863.5 c 128,-1,50
 754 937 754 937 646 937 c 256,51,52
 494 937 494 937 404.5 823 c 128,-1,53
 315 709 315 709 272 525 c 256,41,42
EndSplineSet
Fore
SplineSet
70 379 m 0,0,1
 70 634 70 634 231 850.5 c 128,-1,2
 392 1067 392 1067 610 1067 c 256,3,4
 721 1067 721 1067 783 1033.5 c 128,-1,5
 845 1000 845 1000 896 932 c 1,6,-1
 898 932 l 1,7,-1
 921 1005 l 2,8,9
 935 1050 935 1050 970 1050 c 2,10,-1
 1054 1050 l 2,11,12
 1099 1050 1099 1050 1089 1005 c 2,13,-1
 855 -8 l 2,14,15
 808 -213 808 -213 695 -315 c 128,-1,16
 582 -417 582 -417 323 -417 c 256,17,18
 188 -417 188 -417 102 -384.5 c 152,-1,19
 16 -352 16 -352 -16 -298 c 256,20,21
 -37 -263 -37 -263 -12 -238 c 2,22,-1
 38 -190 l 2,23,24
 63 -165 63 -165 94 -198 c 256,25,26
 132 -238 132 -238 190 -262.5 c 128,-1,27
 248 -287 248 -287 354 -287 c 256,28,29
 478 -287 478 -287 562.5 -219.5 c 128,-1,30
 647 -152 647 -152 684 11 c 2,31,-1
 705 104 l 2,32,33
 711 131 711 131 721 165 c 1,34,-1
 719 165 l 1,35,36
 675 86 675 86 582 34.5 c 128,-1,37
 489 -17 489 -17 409 -17 c 256,38,39
 219 -17 219 -17 144.5 99.5 c 128,-1,40
 70 216 70 216 70 379 c 0,0,1
256 372 m 0,41,42
 256 268 256 268 301 190.5 c 128,-1,43
 346 113 346 113 459 113 c 256,44,45
 557 113 557 113 658.5 230.5 c 128,-1,46
 760 348 760 348 791 480 c 2,47,-1
 856 760 l 17,48,49
 846 860 846 860 791 898.5 c 128,-1,50
 736 937 736 937 624 937 c 256,51,52
 472 937 472 937 364 767.5 c 128,-1,53
 256 598 256 598 256 372 c 0,41,42
EndSplineSet
EndChar

StartChar: u
Encoding: 117 117 101
Width: 1120
Flags: W
HStem: -17 130<304.084 545.406> 0 21G<706.5 835.5> 1030 20G<284.5 415.5 946.5 1077.5>
DStem2: 15.5775 -17 192.496 -17 0.224951 0.97437<256.291 1104.99> 679.686 -17 853.686 -17 0.224951 0.97437<47.2239 186.854 273.19 1104.51>
LayerCount: 2
Back
SplineSet
104 366 m 2,0,-1
 252 1005 l 2,1,2
 262 1050 262 1050 307 1050 c 2,3,-1
 393 1050 l 2,4,5
 438 1050 438 1050 428 1005 c 2,6,-1
 292 414 l 2,7,8
 246 218 246 218 294.5 165.5 c 128,-1,9
 343 113 343 113 448 113 c 256,10,11
 563 113 563 113 653.5 190.5 c 128,-1,12
 744 268 744 268 787 456 c 2,13,-1
 914 1005 l 2,14,15
 924 1050 924 1050 969 1050 c 2,16,-1
 1055 1050 l 2,17,18
 1100 1050 1100 1050 1090 1005 c 2,19,-1
 868 45 l 2,20,21
 858 0 858 0 813 0 c 2,22,-1
 729 0 l 2,23,24
 684 0 684 0 694 45 c 2,25,-1
 713 125 l 1,26,-1
 709 125 l 1,27,28
 627 53 627 53 547.5 18 c 128,-1,29
 468 -17 468 -17 353 -17 c 256,30,31
 193 -17 193 -17 128 85.5 c 128,-1,32
 63 188 63 188 104 366 c 2,0,-1
EndSplineSet
Fore
SplineSet
104 366 m 2,0,-1
 252 1005 l 2,1,2
 262 1050 262 1050 307 1050 c 2,3,-1
 393 1050 l 2,4,5
 438 1050 438 1050 428 1005 c 2,6,-1
 292 414 l 2,7,8
 247 217 247 217 295 165 c 128,-1,9
 343 113 343 113 448 113 c 256,10,11
 595 113 595 113 678 229.5 c 128,-1,12
 761 346 761 346 796 496 c 2,13,-1
 914 1005 l 2,14,15
 924 1050 924 1050 969 1050 c 2,16,-1
 1055 1050 l 2,17,18
 1100 1050 1100 1050 1090 1005 c 2,19,-1
 868 45 l 2,20,21
 858 0 858 0 813 0 c 2,22,-1
 729 0 l 2,23,24
 684 0 684 0 694 45 c 2,25,-1
 722 165 l 1,26,-1
 718 165 l 1,27,28
 659 92 659 92 563.5 37.5 c 128,-1,29
 468 -17 468 -17 353 -17 c 256,30,31
 193 -17 193 -17 128 85.5 c 128,-1,32
 63 188 63 188 104 366 c 2,0,-1
EndSplineSet
EndChar

StartChar: z
Encoding: 122 122 102
Width: 950
Flags: W
HStem: 0 132<179 784.675> 918 132<191.325 745>
DStem2: 8 166 179 132 0.69856 0.715552<95.125 1052.93>
LayerCount: 2
Back
SplineSet
213.324 166 m 6,5,-1
 950.398 920 l 9,6,-1
8.32422 166 m 2,5,-1
 745.398 920 l 9,6,-1
EndSplineSet
Fore
SplineSet
-20 0 m 2,0,1
 -65 0 -65 0 -57 35 c 2,2,-1
 -45 86 l 2,3,4
 -37 120 -37 120 8 166 c 2,5,-1
 745 918 l 9,6,-1
 745 920 l 25,7,8
 715 918 715 918 685 918 c 2,9,-1
 216 918 l 2,10,11
 171 918 171 918 179 953 c 2,12,-1
 193 1015 l 2,13,14
 201 1050 201 1050 246 1050 c 2,15,-1
 948 1050 l 2,16,17
 993 1050 993 1050 985 1015 c 2,18,-1
 974 968 l 2,19,20
 967 940 967 940 919 890 c 2,21,-1
 179 132 l 9,22,-1
 179 130 l 17,23,24
 209 132 209 132 239 132 c 2,25,-1
 760 132 l 2,26,27
 805 132 805 132 797 97 c 2,28,-1
 783 35 l 2,29,30
 775 0 775 0 730 0 c 2,31,-1
 -20 0 l 2,0,1
EndSplineSet
EndChar

StartChar: m
Encoding: 109 109 103
Width: 1678
Flags: W
HStem: 0 21G<44.5 175.5 654.5 785.5 1264.5 1395.5> 937 130<571.817 779.817 1177.59 1389.87> 1030 20G<286.5 415.5>
DStem2: 21.9775 0 195.977 0 0.224951 0.97437<29.6943 837.657 947.579 1086.98> 631.611 0 807.611 0 0.224951 0.97437<29.7767 836.813> 1241.61 0 1417.61 0 0.224951 0.97437<29.7767 891.432>
LayerCount: 2
Back
SplineSet
67 0 m 2,0,1
 22 0 22 0 32 45 c 2,2,-1
 254 1005 l 2,3,4
 264 1050 264 1050 309 1050 c 2,5,-1
 393 1050 l 2,6,7
 438 1050 438 1050 428 1005 c 2,8,-1
 410 925 l 1,9,-1
 414 925 l 1,10,11
 495 997 495 997 569 1032 c 128,-1,12
 643 1067 643 1067 733 1067 c 256,13,14
 843 1067 843 1067 907.5 1002.5 c 128,-1,15
 972 938 972 938 977 873 c 1,16,-1
 981 873 l 1,17,18
 1054 955 1054 955 1141 1011 c 128,-1,19
 1228 1067 1228 1067 1343 1067 c 256,20,21
 1483 1067 1483 1067 1550 964.5 c 128,-1,22
 1617 862 1617 862 1576 684 c 2,23,-1
 1428 45 l 2,24,25
 1418 0 1418 0 1373 0 c 2,26,-1
 1287 0 l 2,27,28
 1242 0 1242 0 1252 45 c 2,29,-1
 1387 626 l 2,30,31
 1432 822 1432 822 1400 879.5 c 128,-1,32
 1368 937 1368 937 1258 937 c 256,33,34
 1168 937 1168 937 1076.5 851.5 c 128,-1,35
 985 766 985 766 945 594 c 2,36,-1
 818 45 l 2,37,38
 808 0 808 0 763 0 c 2,39,-1
 677 0 l 2,40,41
 632 0 632 0 642 45 c 2,42,-1
 777 626 l 2,43,44
 822 822 822 822 790 879.5 c 128,-1,45
 758 937 758 937 648 937 c 256,46,47
 558 937 558 937 468.5 859.5 c 128,-1,48
 379 782 379 782 335 594 c 2,49,-1
 208 45 l 2,50,51
 198 0 198 0 153 0 c 2,52,-1
 67 0 l 2,0,1
EndSplineSet
Fore
SplineSet
67 0 m 2,0,1
 22 0 22 0 32 45 c 2,2,-1
 254 1005 l 2,3,4
 264 1050 264 1050 309 1050 c 2,5,-1
 393 1050 l 2,6,7
 438 1050 438 1050 428 1005 c 2,8,-1
 401 885 l 1,9,-1
 405 885 l 1,10,11
 464 957 464 957 553.5 1012 c 128,-1,12
 643 1067 643 1067 733 1067 c 256,13,14
 843 1067 843 1067 905.5 997.5 c 128,-1,15
 968 928 968 928 968 833 c 1,16,-1
 972 833 l 1,17,18
 1035 915 1035 915 1131.5 991 c 128,-1,19
 1228 1067 1228 1067 1343 1067 c 256,20,21
 1483 1067 1483 1067 1550 964.5 c 128,-1,22
 1617 862 1617 862 1576 684 c 2,23,-1
 1428 45 l 2,24,25
 1418 0 1418 0 1373 0 c 2,26,-1
 1287 0 l 2,27,28
 1242 0 1242 0 1252 45 c 2,29,-1
 1387 626 l 2,30,31
 1432 821 1432 821 1400 879 c 128,-1,32
 1368 937 1368 937 1258 937 c 256,33,34
 1168 937 1168 937 1068.5 816.5 c 128,-1,35
 969 696 969 696 936 554 c 2,36,-1
 818 45 l 2,37,38
 808 0 808 0 763 0 c 2,39,-1
 677 0 l 2,40,41
 632 -0 632 -0 642 45 c 2,42,-1
 777 626 l 2,43,44
 822 821 822 821 790 879 c 128,-1,45
 758 937 758 937 648 937 c 256,46,47
 558 937 558 937 459.5 820.5 c 128,-1,48
 361 704 361 704 326 554 c 2,49,-1
 208 45 l 2,50,51
 198 0 198 0 153 0 c 2,52,-1
 67 0 l 2,0,1
EndSplineSet
EndChar

StartChar: afii10044
Encoding: 1066 1066 105
Width: 1700
Flags: W
HStem: 0 164<672 1218.89> 664 164<825 1306.45> 1270 164<237.309 735.202>
VStem: 1394 205<303.521 589.308>
DStem2: 442 0 634.138 0 0.224951 0.97437<211.536 724.59 892.935 1303.41>
LayerCount: 2
Back
SplineSet
671.862 164 m 1,0,-1
 927.862 164 l 2,1,2
 1142.86 164 1142.86 164 1256.14 221.5 c 128,-1,3
 1369.41 279 1369.41 279 1400.58 414 c 256,4,5
 1431.75 549 1431.75 549 1345.02 606.5 c 128,-1,6
 1258.3 664 1258.3 664 1043.3 664 c 2,7,-1
 787.297 664 l 1,8,-1
 671.862 164 l 1,0,-1
264.202 1270 m 2,9,10
 209.202 1270 209.202 1270 219.592 1315 c 2,11,-1
 236.676 1389 l 2,12,13
 247.065 1434 247.065 1434 302.065 1434 c 2,14,-1
 915.065 1434 l 2,15,16
 965.065 1434 965.065 1434 952.367 1379 c 2,17,-1
 825.159 828 l 1,18,-1
 1113.16 828 l 2,19,20
 1450.16 828 1450.16 828 1549.8 716 c 128,-1,21
 1649.44 604 1649.44 604 1605.58 414 c 256,22,23
 1561.71 224 1561.71 224 1410.36 112 c 128,-1,24
 1259 0 1259 0 922 0 c 2,25,-1
 492 0 l 2,26,27
 442 0 442 0 454.697 55 c 2,28,-1
 735.202 1270 l 1,29,-1
 264.202 1270 l 2,9,10
EndSplineSet
Fore
SplineSet
264 1270 m 2,0,1
 209 1270 209 1270 220 1315 c 2,2,-1
 237 1389 l 2,3,4
 247 1434 247 1434 302 1434 c 2,5,-1
 915 1434 l 2,6,7
 965 1434 965 1434 952 1379 c 2,8,-1
 825 828 l 1,9,-1
 1093 828 l 2,10,11
 1385 828 1385 828 1492 721.5 c 128,-1,12
 1599 615 1599 615 1599 454 c 256,13,14
 1599 270 1599 270 1439 135 c 128,-1,15
 1279 0 1279 0 942 0 c 2,16,-1
 492 0 l 2,17,18
 442 0 442 0 455 55 c 2,19,-1
 735 1270 l 1,20,-1
 264 1270 l 2,0,1
672 164 m 1,21,-1
 948 164 l 2,22,23
 1163 164 1163 164 1278.5 238 c 128,-1,24
 1394 312 1394 312 1394 444 c 256,25,26
 1394 585 1394 585 1301 624.5 c 128,-1,27
 1208 664 1208 664 1023 664 c 2,28,-1
 787 664 l 1,29,-1
 672 164 l 1,21,-1
EndSplineSet
EndChar

StartChar: afii10043
Encoding: 1065 1065 106
Width: 2116
Flags: W
HStem: -370 21G<1701 1827> 0 164<280 842 1034 1596> 1414 20G<406 548 1160 1302 1914 2056>
DStem2: -35.119 -370 156.716 -370 0.224951 0.97437<591.2 1860.81> 718.716 -370 910.716 -370 0.224951 0.97437<591.237 1860.85> 1472.72 -370 1664.72 -370 0.224951 0.97437<591.237 1860.85> 1680.46 -370 1846.46 -370 0.224951 0.97437<27.2804 379.76>
LayerCount: 2
Fore
SplineSet
100 0 m 2,0,1
 50 0 50 0 63 55 c 2,2,-1
 368 1379 l 2,3,4
 381 1434 381 1434 431 1434 c 2,5,-1
 523 1434 l 2,6,7
 573 1434 573 1434 560 1379 c 2,8,-1
 280 164 l 1,9,-1
 842 164 l 1,10,-1
 1122 1379 l 2,11,12
 1135 1434 1135 1434 1185 1434 c 2,13,-1
 1277 1434 l 2,14,15
 1327 1434 1327 1434 1314 1379 c 2,16,-1
 1034 164 l 1,17,-1
 1596 164 l 1,18,-1
 1876 1379 l 2,19,20
 1889 1434 1889 1434 1939 1434 c 2,21,-1
 2031 1434 l 2,22,23
 2081 1434 2081 1434 2068 1379 c 2,24,-1
 1788 164 l 1,25,-1
 1920 164 l 2,26,27
 1970 164 1970 164 1957 109 c 2,28,-1
 1858 -320 l 2,29,30
 1847 -370 1847 -370 1807 -370 c 2,31,-1
 1721 -370 l 2,32,33
 1681 -370 1681 -370 1692 -320 c 2,34,-1
 1766 0 l 1,35,-1
 100 0 l 2,0,1
EndSplineSet
EndChar

StartChar: afii10048
Encoding: 1070 1070 107
Width: 2023
Flags: W
HStem: -30 156<1026.57 1446.51> 0 21G<75 217> 664 164<433 621> 1308 156<1173.94 1596.43> 1414 20G<406 548>
VStem: 619 205<332.647 664> 1799 205<534.392 1102.02>
DStem2: 43.3762 -30 235.376 -30 0.224951 0.97437<64.4669 755.311 923.656 1511.87>
LayerCount: 2
Fore
SplineSet
100 0 m 2,0,1
 50 0 50 0 63 55 c 2,2,-1
 368 1379 l 2,3,4
 381 1434 381 1434 431 1434 c 2,5,-1
 523 1434 l 2,6,7
 573 1434 573 1434 560 1379 c 2,8,-1
 433 828 l 1,9,-1
 643 828 l 1,10,11
 690 1060 690 1060 868.5 1262 c 128,-1,12
 1047 1464 1047 1464 1387 1464 c 256,13,14
 1692 1464 1692 1464 1848 1301.5 c 128,-1,15
 2004 1139 2004 1139 2004 854 c 256,16,17
 2004 454 2004 454 1790 212 c 128,-1,18
 1576 -30 1576 -30 1236 -30 c 256,19,20
 931 -30 931 -30 775 132.5 c 128,-1,21
 619 295 619 295 619 580 c 256,22,23
 619 623 619 623 621 664 c 1,24,-1
 395 664 l 1,25,-1
 255 55 l 2,26,27
 242 0 242 0 192 0 c 2,28,-1
 100 0 l 2,0,1
824 556 m 256,29,30
 824 351 824 351 930.5 238.5 c 128,-1,31
 1037 126 1037 126 1247 126 c 256,32,33
 1467 126 1467 126 1633 309.5 c 128,-1,34
 1799 493 1799 493 1799 878 c 256,35,36
 1799 1083 1799 1083 1692.5 1195.5 c 128,-1,37
 1586 1308 1586 1308 1376 1308 c 256,38,39
 1156 1308 1156 1308 990 1124.5 c 128,-1,40
 824 941 824 941 824 556 c 256,29,30
EndSplineSet
EndChar

StartChar: M
Encoding: 77 77 108
Width: 1708
Flags: W
HStem: 0 21G<75 217 656 812 1251 1393> 1414 20G<406 651 1455 1724>
DStem2: 50.3022 0 242.302 0 0.224951 0.97437<33.6777 1257.74> 675 1374 517 1184 0.0974854 -0.995237<173.692 1169.54> 832 331 869 61 0.488083 0.872797<-135.766 1069.07> 1226.3 0 1418.3 0 0.224951 0.97437<33.6777 1215.45>
LayerCount: 2
Back
SplineSet
100 0 m 2,0,1
 50 0 50 0 63 55 c 2,2,-1
 368 1379 l 2,3,4
 381 1434 381 1434 431 1434 c 2,5,-1
 644 1434 l 2,6,7
 682 1434 682 1434 687 1374 c 2,8,-1
 766 477 l 2,9,10
 778 339 778 339 779.5 310.5 c 128,-1,11
 781 282 781 282 779 206 c 1,12,-1
 785 206 l 1,13,14
 817 282 817 282 831.5 310.5 c 128,-1,15
 846 339 846 339 922 477 c 2,16,-1
 1415 1374 l 2,17,18
 1448 1434 1448 1434 1486 1434 c 2,19,-1
 1699 1434 l 2,20,21
 1749 1434 1749 1434 1736 1379 c 2,22,-1
 1431 55 l 2,23,24
 1418 0 1418 0 1368 0 c 2,25,-1
 1276 0 l 2,26,27
 1226 0 1226 0 1239 55 c 2,28,-1
 1481 1104 l 2,29,30
 1490 1144 1490 1144 1501 1184 c 9,31,-1
 1497 1184 l 25,32,-1
 869 61 l 2,33,34
 835 0 835 0 789 0 c 2,35,-1
 679 0 l 2,36,37
 633 0 633 0 627 61 c 2,38,-1
 517 1184 l 25,39,-1
 513 1184 l 17,40,41
 506 1144 506 1144 497 1104 c 2,42,-1
 255 55 l 2,43,44
 242 0 242 0 192 0 c 2,45,-1
 100 0 l 2,0,1
EndSplineSet
Fore
SplineSet
100 0 m 2,0,1
 50 0 50 0 63 55 c 2,2,-1
 368 1379 l 2,3,4
 381 1434 381 1434 431 1434 c 2,5,-1
 632 1434 l 2,6,7
 670 1434 670 1434 675 1374 c 2,8,-1
 754 477 l 2,9,10
 761 395 761 395 764 330.5 c 128,-1,11
 767 266 767 266 767 206 c 1,12,-1
 773 206 l 1,13,14
 800 269 800 269 832 331 c 128,-1,15
 864 393 864 393 910 477 c 2,16,-1
 1403 1374 l 2,17,18
 1436 1434 1436 1434 1474 1434 c 2,19,-1
 1699 1434 l 2,20,21
 1749 1434 1749 1434 1736 1379 c 2,22,-1
 1431 55 l 2,23,24
 1418 0 1418 0 1368 0 c 2,25,-1
 1276 0 l 2,26,27
 1226 0 1226 0 1239 55 c 2,28,-1
 1481 1104 l 2,29,30
 1491 1149 1491 1149 1501 1184 c 9,31,-1
 1497 1184 l 25,32,-1
 869 61 l 2,33,34
 835 0 835 0 789 0 c 2,35,-1
 679 0 l 2,36,37
 633 0 633 0 627 61 c 2,38,-1
 517 1184 l 25,39,-1
 513 1184 l 17,40,41
 505 1140 505 1140 497 1104 c 2,42,-1
 255 55 l 2,43,44
 242 0 242 0 192 0 c 2,45,-1
 100 0 l 2,0,1
EndSplineSet
EndChar

StartChar: Z
Encoding: 90 90 109
Width: 1216
Flags: W
HStem: 0 164<253 1040.42> 1270 164<298.578 1028>
DStem2: 17 182 254 166 0.674749 0.738047<148.107 1483.02>
LayerCount: 2
Fore
SplineSet
0 0 m 2,0,1
 -55 0 -55 0 -45 45 c 2,2,-1
 -34 93 l 2,3,4
 -24 138 -24 138 17 182 c 2,5,-1
 1027 1268 l 9,6,-1
 1028 1272 l 25,7,8
 987 1270 987 1270 947 1270 c 2,9,-1
 325 1270 l 2,10,11
 271 1270 271 1270 281 1315 c 2,12,-1
 298 1389 l 2,13,14
 308 1434 308 1434 363 1434 c 2,15,-1
 1285 1434 l 2,16,17
 1340 1434 1340 1434 1330 1389 c 2,18,-1
 1323 1358 l 2,19,20
 1316 1328 1316 1328 1288 1297 c 2,21,-1
 254 166 l 9,22,-1
 253 162 l 17,23,24
 281 164 281 164 334 164 c 2,25,-1
 1014 164 l 2,26,27
 1068 164 1068 164 1058 119 c 2,28,-1
 1041 45 l 2,29,30
 1031 0 1031 0 976 0 c 2,31,-1
 0 0 l 2,0,1
EndSplineSet
EndChar

StartChar: afii10026
Encoding: 1048 1048 110
Width: 1452
Flags: W
HStem: 0 21G<75 263.5 995 1137> 1414 20G<406 548 1280 1468>
DStem2: 50.3022 0 240.048 0 0.224951 0.97437<340.312 1481.08> 311 290 340 50 0.63235 0.774682<0 1243.97> 970.302 0 1162.3 0 0.224951 0.97437<33.6777 1174.45>
LayerCount: 2
Back
SplineSet
100 0 m 2,0,1
 50 0 50 0 63 55 c 2,2,-1
 368 1379 l 2,3,4
 381 1434 381 1434 431 1434 c 2,5,-1
 523 1434 l 2,6,7
 573 1434 573 1434 560 1379 c 2,8,-1
 320 340 l 2,9,10
 311 300 311 300 300 260 c 25,11,-1
 304 260 l 17,12,-1
 1204 1384 l 2,13,14
 1243 1434 1243 1434 1315 1434 c 2,15,-1
 1443 1434 l 2,16,17
 1493 1434 1493 1434 1480 1379 c 2,18,-1
 1175 55 l 2,19,20
 1162 0 1162 0 1112 0 c 2,21,-1
 1020 0 l 2,22,23
 970 0 970 0 983 55 c 2,24,-1
 1223 1094 l 2,25,26
 1232 1134 1232 1134 1243 1174 c 9,27,-1
 1239 1174 l 17,28,-1
 340 50 l 2,29,30
 300 0 300 0 228 0 c 2,31,-1
 100 0 l 2,0,1
EndSplineSet
Fore
SplineSet
100 0 m 2,0,1
 50 0 50 0 63 55 c 2,2,-1
 368 1379 l 2,3,4
 381 1434 381 1434 431 1434 c 2,5,-1
 523 1434 l 2,6,7
 573 1434 573 1434 560 1379 c 2,8,-1
 327 370 l 2,9,10
 317 325 317 325 307 290 c 25,11,-1
 311 290 l 17,12,-1
 1204 1384 l 2,13,14
 1245 1434 1245 1434 1315 1434 c 2,15,-1
 1443 1434 l 2,16,17
 1493 1434 1493 1434 1480 1379 c 2,18,-1
 1175 55 l 2,19,20
 1162 0 1162 0 1112 0 c 2,21,-1
 1020 0 l 2,22,23
 970 0 970 0 983 55 c 2,24,-1
 1216 1064 l 2,25,26
 1226 1109 1226 1109 1236 1144 c 9,27,-1
 1232 1144 l 17,28,-1
 340 50 l 2,29,30
 299 0 299 0 228 0 c 2,31,-1
 100 0 l 2,0,1
EndSplineSet
EndChar

StartChar: afii10049
Encoding: 1071 1071 111
Width: 1363
Flags: W
HStem: 0 21G<-13.5 183.5 906 1048> 613 164<755.203 1023> 1270 164<631.229 1174>
VStem: 266 205<852.438 1141.72>
DStem2: 15 66 240 39 0.672262 0.740313<38.775 792.551> 881.302 0 1073.3 0 0.224951 0.97437<33.6777 629.164 797.284 1303.29>
LayerCount: 2
Back
SplineSet
18 0 m 2,0,1
 -47 0 -47 0 15.2373 66 c 2,2,-1
 351.119 425 l 2,3,4
 373.66 449 373.66 449 460.591 524.5 c 128,-1,5
 547.521 600 547.521 600 616.832 636 c 1,6,-1
 617.294 638 l 1,7,8
 452.911 658 452.911 658 344.613 752 c 128,-1,9
 236.314 846 236.314 846 276.717 1021 c 256,10,11
 325.66 1233 325.66 1233 478.362 1333.5 c 128,-1,12
 631.065 1434 631.065 1434 920.065 1434 c 2,13,-1
 1364.06 1434 l 2,14,15
 1414.06 1434 1414.06 1434 1401.37 1379 c 2,16,-1
 1095.7 55 l 2,17,18
 1083 0 1083 0 1033 0 c 2,19,-1
 941 0 l 2,20,21
 891 0 891 0 903.697 55 c 2,22,-1
 1032.52 613 l 1,23,-1
 931.522 613 l 2,24,25
 801.522 613 801.522 613 707.554 546 c 128,-1,26
 613.586 479 613.586 479 531.577 388 c 2,27,-1
 216.004 39 l 2,28,29
 181 0 181 0 137 0 c 2,30,-1
 18 0 l 2,0,1
489.104 1053 m 256,31,32
 451.011 888 451.011 888 543.197 832.5 c 128,-1,33
 635.385 777 635.385 777 830.385 777 c 2,34,-1
 1070.38 777 l 1,35,-1
 1184.2 1270 l 1,36,-1
 896.202 1270 l 2,37,38
 731.202 1270 731.202 1270 625.16 1226.5 c 128,-1,39
 519.117 1183 519.117 1183 489.104 1053 c 256,31,32
EndSplineSet
Fore
SplineSet
18 0 m 2,0,1
 -45 0 -45 0 15 66 c 2,2,-1
 341 425 l 2,3,4
 360 446 360 446 448 526 c 128,-1,5
 536 606 536 606 607 636 c 1,6,-1
 607 638 l 1,7,8
 472 662 472 662 369 753 c 128,-1,9
 266 844 266 844 266 974 c 256,10,11
 266 1200 266 1200 439 1317 c 128,-1,12
 612 1434 612 1434 890 1434 c 2,13,-1
 1354 1434 l 2,14,15
 1404 1434 1404 1434 1391 1379 c 2,16,-1
 1086 55 l 2,17,18
 1073 0 1073 0 1023 0 c 2,19,-1
 931 0 l 2,20,21
 881 0 881 0 894 55 c 2,22,-1
 1023 613 l 1,23,-1
 922 613 l 2,24,25
 810 613 810 613 715.5 544 c 128,-1,26
 621 475 621 475 546 388 c 2,27,-1
 240 39 l 2,28,29
 206 0 206 0 161 0 c 2,30,-1
 18 0 l 2,0,1
471 996 m 256,31,32
 471 888 471 888 534 832.5 c 128,-1,33
 597 777 597 777 840 777 c 2,34,-1
 1060 777 l 1,35,-1
 1174 1270 l 1,36,-1
 866 1270 l 2,37,38
 700 1270 700 1270 585.5 1204 c 128,-1,39
 471 1138 471 1138 471 996 c 256,31,32
EndSplineSet
EndChar

StartChar: S
Encoding: 83 83 112
Width: 1217
Flags: W
LayerCount: 2
Fore
SplineSet
84 112 m 256,0,1
 34 161 34 161 64 198 c 2,2,-1
 121 268 l 2,3,4
 152 306 152 306 207 255 c 256,5,6
 272 194 272 194 348 160 c 128,-1,7
 424 126 424 126 542 126 c 256,8,9
 642 126 642 126 711 154.5 c 128,-1,10
 780 183 780 183 833.5 237.5 c 128,-1,11
 887 292 887 292 887 373 c 256,12,13
 887 416 887 416 874.5 462 c 128,-1,14
 862 508 862 508 822.5 543 c 128,-1,15
 783 578 783 578 735 597 c 256,16,17
 680 619 680 619 618 639.5 c 128,-1,18
 556 660 556 660 480 698 c 256,19,20
 416 730 416 730 370 779 c 128,-1,21
 324 828 324 828 297 896 c 128,-1,22
 270 964 270 964 270 1041 c 256,23,24
 270 1182 270 1182 360 1291.5 c 128,-1,25
 450 1401 450 1401 561 1432.5 c 128,-1,26
 672 1464 672 1464 767 1464 c 256,27,28
 900 1464 900 1464 990 1431 c 152,-1,29
 1080 1398 1080 1398 1154 1341 c 256,30,31
 1203 1303 1203 1303 1171 1261 c 26,32,-1
 1113 1186 l 18,33,34
 1090 1156 1090 1156 1044 1194 c 256,35,36
 1008 1224 1008 1224 926 1259 c 128,-1,37
 844 1294 844 1294 755 1294 c 256,38,39
 698 1294 698 1294 632 1275 c 128,-1,40
 566 1256 566 1256 514 1197.5 c 128,-1,41
 462 1139 462 1139 462 1055 c 256,42,43
 462 1011 462 1011 474 970.5 c 128,-1,44
 486 930 486 930 518.5 900 c 128,-1,45
 551 870 551 870 588 852 c 256,46,47
 646 824 646 824 707.5 804 c 128,-1,48
 769 784 769 784 819 764 c 256,49,50
 899 732 899 732 965.5 681 c 128,-1,51
 1032 630 1032 630 1061 552.5 c 128,-1,52
 1090 475 1090 475 1090 405 c 256,53,54
 1090 264 1090 264 1014 169 c 128,-1,55
 938 74 938 74 827 22 c 128,-1,56
 716 -30 716 -30 526 -30 c 256,57,58
 362 -30 362 -30 255 10 c 152,-1,59
 148 50 148 50 84 112 c 256,0,1
EndSplineSet
EndChar

StartChar: afii10025
Encoding: 1047 1047 113
Width: 1272
Flags: W
HStem: -30 156<341.889 780.246> 675 158<482.973 835.846> 1308 156<517.061 924.654>
VStem: 943 205<283.668 574.634> 1032 195<965.712 1217.96>
LayerCount: 2
Back
SplineSet
42.1689 148 m 256,0,1
 11.7119 198 11.7119 198 43.4834 223 c 2,2,-1
 131.413 292 l 2,3,4
 177.725 328 177.725 328 208.258 274 c 256,5,6
 213.949 264 213.949 264 287.52 195 c 128,-1,7
 361.09 126 361.09 126 516.09 126 c 256,8,9
 686.09 126 686.09 126 795.019 188.5 c 128,-1,10
 903.948 251 903.948 251 943.195 421 c 256,11,12
 974.362 556 974.362 556 901.1 615.5 c 128,-1,13
 827.836 675 827.836 675 690.836 675 c 2,14,-1
 510.836 675 l 2,15,16
 455.836 675 455.836 675 465.764 718 c 2,17,-1
 481.924 788 l 2,18,19
 492.313 833 492.313 833 547.313 833 c 2,20,-1
 681.313 833 l 2,21,22
 843.313 833 843.313 833 937.437 911.5 c 128,-1,23
 1031.56 990 1031.56 990 1055.11 1092 c 256,24,25
 1081.43 1206 1081.43 1206 1014.2 1257 c 128,-1,26
 946.976 1308 946.976 1308 792.976 1308 c 256,27,28
 690.976 1308 690.976 1308 590.472 1269 c 128,-1,29
 489.968 1230 489.968 1230 434.886 1182 c 256,30,31
 381.035 1135 381.035 1135 359.423 1167 c 2,32,-1
 311.046 1239 l 2,33,34
 287.126 1274 287.126 1274 353.208 1322 c 256,35,36
 451.83 1394 451.83 1394 580.41 1429 c 128,-1,37
 708.991 1464 708.991 1464 833.991 1464 c 256,38,39
 1108.99 1464 1108.99 1464 1197.21 1354.5 c 128,-1,40
 1285.43 1245 1285.43 1245 1250.11 1092 c 256,41,42
 1221.02 966 1221.02 966 1127.24 882.5 c 128,-1,43
 1033.46 799 1033.46 799 904.076 767 c 1,44,-1
 903.152 763 l 1,45,46
 1028.38 751 1028.38 751 1107.1 667.5 c 128,-1,47
 1185.83 584 1185.83 584 1142.65 397 c 256,48,49
 1094.63 189 1094.63 189 918.854 79.5 c 128,-1,50
 743.074 -30 743.074 -30 473.074 -30 c 256,51,52
 288.074 -30 288.074 -30 180.734 33.5 c 128,-1,53
 73.3945 97 73.3945 97 42.1689 148 c 256,0,1
31 0 m 2,0,1
 -19 0 -19 0 -6 55 c 2,2,-1
 299 1379 l 2,3,4
 312 1434 312 1434 362 1434 c 2,5,-1
 732 1434 l 2,6,7
 1005 1434 1005 1434 1111 1333.5 c 128,-1,8
 1217 1233 1217 1233 1217 1084 c 256,9,10
 1217 945 1217 945 1121.5 862.5 c 128,-1,11
 1026 780 1026 780 884 750 c 1,12,-1
 884 747 l 1,13,14
 987 726 987 726 1067.5 646.5 c 128,-1,15
 1148 567 1148 567 1148 431 c 256,16,17
 1148 264 1148 264 997 132 c 128,-1,18
 846 0 846 0 501 0 c 2,19,-1
 31 0 l 2,0,1
211 164 m 1,20,-1
 507 164 l 2,21,22
 717 164 717 164 830 235 c 128,-1,23
 943 306 943 306 943 439 c 256,24,25
 943 560 943 560 840.5 612 c 128,-1,26
 738 664 738 664 562 664 c 2,27,-1
 326 664 l 1,28,-1
 211 164 l 1,20,-1
360 808 m 1,29,-1
 631 808 l 2,30,31
 773 808 773 808 897.5 884 c 128,-1,32
 1022 960 1022 960 1022 1076 c 256,33,34
 1022 1179 1022 1179 949 1224.5 c 128,-1,35
 876 1270 876 1270 697 1270 c 2,36,-1
 466 1270 l 1,37,-1
 360 808 l 1,29,-1
55 191 m 256,0,1
 20 247 20 247 63 276 c 258,2,-1
 138 327 l 258,3,4
 181 356 181 356 210 309 c 256,5,6
 243 255 243 255 325.5 190.5 c 128,-1,7
 408 126 408 126 570 126 c 256,8,9
 752 126 752 126 908 252 c 128,-1,10
 1064 378 1064 378 1115 668 c 257,11,-1
 422 668 l 2,12,13
 366 668 366 668 377 713 c 2,14,-1
 395 787 l 2,15,16
 406 832 406 832 460 832 c 2,17,-1
 1130 832 l 257,18,19
 1156 1038 1156 1038 1052 1173 c 128,-1,20
 948 1308 948 1308 738 1308 c 256,21,22
 606 1308 606 1308 513 1263 c 128,-1,23
 420 1218 420 1218 375 1173 c 256,24,25
 332 1130 332 1130 304 1156 c 258,26,-1
 243 1211 l 258,27,28
 206 1245 206 1245 255 1296 c 256,29,30
 318 1362 318 1362 438 1413 c 128,-1,31
 558 1464 558 1464 745 1464 c 256,32,33
 1008 1464 1008 1464 1170.5 1319 c 128,-1,34
 1333 1174 1333 1174 1333 828 c 256,35,36
 1333 482 1333 482 1131.5 226 c 128,-1,37
 930 -30 930 -30 570 -30 c 256,38,39
 351 -30 351 -30 232.5 33 c 128,-1,40
 114 96 114 96 55 191 c 256,0,1
EndSplineSet
Fore
SplineSet
49 165 m 256,0,1
 4 212 4 212 40 241 c 2,2,-1
 117 303 l 2,3,4
 154 332 154 332 196 278 c 256,5,6
 231 234 231 234 324 180 c 128,-1,7
 417 126 417 126 584 126 c 256,8,9
 753 126 753 126 848 220.5 c 128,-1,10
 943 315 943 315 943 431 c 256,11,12
 943 546 943 546 864.5 610.5 c 128,-1,13
 786 675 786 675 671 675 c 2,14,-1
 511 675 l 2,15,16
 456 675 456 675 466 718 c 2,17,-1
 482 788 l 2,18,19
 492 833 492 833 547 833 c 2,20,-1
 701 833 l 2,21,22
 863 833 863 833 947.5 917.5 c 128,-1,23
 1032 1002 1032 1002 1032 1096 c 256,24,25
 1032 1206 1032 1206 939 1257 c 128,-1,26
 846 1308 846 1308 734 1308 c 256,27,28
 633 1308 633 1308 527.5 1267.5 c 128,-1,29
 422 1227 422 1227 374 1183 c 256,30,31
 327 1140 327 1140 301 1175 c 2,32,-1
 243 1252 l 2,33,34
 214 1290 214 1290 273 1333 c 256,35,36
 361 1397 361 1397 470 1430.5 c 128,-1,37
 579 1464 579 1464 739 1464 c 256,38,39
 981 1464 981 1464 1104 1359 c 128,-1,40
 1227 1254 1227 1254 1227 1110 c 256,41,42
 1227 957 1227 957 1129.5 868.5 c 128,-1,43
 1032 780 1032 780 903 754 c 1,44,-1
 902 750 l 1,45,46
 1005 729 1005 729 1076.5 642 c 128,-1,47
 1148 555 1148 555 1148 427 c 256,48,49
 1148 261 1148 261 1006 115.5 c 128,-1,50
 864 -30 864 -30 577 -30 c 256,51,52
 369 -30 369 -30 237 37.5 c 128,-1,53
 105 105 105 105 49 165 c 256,0,1
EndSplineSet
EndChar

StartChar: afii10021
Encoding: 1044 1044 114
Width: 1522
Flags: W
HStem: -370 21G<-131 -5 1107 1233> 0 164<100 143.697 314 1006> 1270 164<749 1261>
DStem2: -151.543 -370 14.4566 -370 0.224951 0.97437<27.2804 417.102> 205.008 -370 370.936 -370 0.224951 0.97437<1016.06 1720.34> 882.716 -370 1074.72 -370 0.224951 0.97437<591.237 1683.06> 1086.46 -370 1252.46 -370 0.224951 0.97437<27.2804 379.76>
LayerCount: 2
Fore
SplineSet
-111 -370 m 2,0,1
 -151 -370 -151 -370 -140 -320 c 2,2,-1
 -41 109 l 2,3,4
 -28 164 -28 164 22 164 c 2,5,-1
 104 164 l 1,6,7
 322 369 322 369 406 618 c 128,-1,8
 490 867 490 867 546 1107 c 2,9,-1
 608 1379 l 2,10,11
 621 1434 621 1434 671 1434 c 2,12,-1
 1441 1434 l 2,13,14
 1491 1434 1491 1434 1478 1379 c 2,15,-1
 1198 164 l 1,16,-1
 1326 164 l 2,17,18
 1376 164 1376 164 1363 109 c 2,19,-1
 1264 -320 l 2,20,21
 1253 -370 1253 -370 1213 -370 c 2,22,-1
 1127 -370 l 2,23,24
 1087 -370 1087 -370 1098 -320 c 2,25,-1
 1172 0 l 1,26,-1
 100 0 l 1,27,-1
 26 -320 l 2,28,29
 15 -370 15 -370 -25 -370 c 2,30,-1
 -111 -370 l 2,0,1
314 164 m 1,31,-1
 1006 164 l 1,32,-1
 1261 1270 l 1,33,-1
 749 1270 l 1,34,-1
 699 1051 l 2,35,36
 596 601 596 601 492 410 c 128,-1,37
 388 219 388 219 314 164 c 1,31,-1
EndSplineSet
EndChar

StartChar: afii10047
Encoding: 1069 1069 115
Width: 1352
Flags: MW
HStem: -30 156<355.816 773.37> 668 164<395.8 1115> 1308 156<514.087 941.406>
VStem: 1130 203<828 832>
LayerCount: 2
Back
SplineSet
1317.72 580 m 0,0,1
 1430.98 975 1430.98 975 1290.59 1219.5 c 128,-1,2
 1150.2 1464 1150.2 1464 773.199 1464 c 256,3,4
 589.199 1464 589.199 1464 456.847 1400 c 128,-1,5
 324.495 1336 324.495 1336 247.101 1230 c 256,6,7
 208.903 1177 208.903 1177 247.161 1150 c 258,8,-1
 311.971 1104 l 258,9,10
 334.383 1088 334.383 1088 371.999 1132 c 256,11,12
 417.483 1186 417.483 1186 513.975 1247 c 128,-1,13
 610.467 1308 610.467 1308 745.467 1308 c 256,14,15
 995.467 1308 995.467 1308 1105.99 1125 c 128,-1,16
 1216.52 942 1216.52 942 1106.12 557 c 0,17,18
 1053.93 375 1053.93 375 922.233 250.5 c 128,-1,19
 790.533 126 790.533 126 560.533 126 c 256,20,21
 424.533 126 424.533 126 350.536 197.5 c 152,-1,22
 276.538 269 276.538 269 245.184 341 c 256,23,24
 219.815 399 219.815 399 177.22 376 c 258,25,-1
 70.5889 318 l 258,26,27
 31.5674 297 31.5674 297 55.6494 238 c 256,28,29
 101.673 123 101.673 123 213.737 46.5 c 152,-1,30
 325.801 -30 325.801 -30 542.801 -30 c 256,31,32
 844.801 -30 844.801 -30 1043.26 142.5 c 128,-1,33
 1241.73 315 1241.73 315 1317.72 580 c 0,0,1
-30 580 m 0,0,1
 -30 980 -30 980 184 1222 c 128,-1,2
 398 1464 398 1464 738 1464 c 256,3,4
 1043 1464 1043 1464 1199 1301.5 c 128,-1,5
 1355 1139 1355 1139 1355 854 c 0,6,7
 1355 454 1355 454 1141 212 c 128,-1,8
 927 -30 927 -30 587 -30 c 256,9,10
 282 -30 282 -30 126 132.5 c 128,-1,11
 -30 295 -30 295 -30 580 c 0,0,1
175 556 m 0,12,13
 175 351 175 351 281.5 238.5 c 128,-1,14
 388 126 388 126 598 126 c 256,15,16
 818 126 818 126 984 309.5 c 128,-1,17
 1150 493 1150 493 1150 878 c 0,18,19
 1150 1083 1150 1083 1043.5 1195.5 c 128,-1,20
 937 1308 937 1308 727 1308 c 256,21,22
 507 1308 507 1308 341 1124.5 c 128,-1,23
 175 941 175 941 175 556 c 0,12,13
1192.08 832 m 1,0,-1
 1154.22 668 l 1,1,-1
 441.22 668 l 2,2,3
 386.221 668 386.221 668 396.609 713 c 2,4,5
 413.693 787 l 2,6,7
 424.082 832 424.082 832 479.082 832 c 2,8,-1
 1192.08 832 l 1,0,-1
EndSplineSet
Fore
SplineSet
55 191 m 256,0,1
 20 247 20 247 63 276 c 258,2,-1
 138 327 l 258,3,4
 181 356 181 356 210 309 c 256,5,6
 243 255 243 255 325.5 190.5 c 128,-1,7
 408 126 408 126 570 126 c 256,8,9
 752 126 752 126 908 252 c 128,-1,10
 1064 378 1064 378 1115 668 c 257,11,-1
 422 668 l 2,12,13
 366 668 366 668 377 713 c 2,14,-1
 395 787 l 2,15,16
 406 832 406 832 460 832 c 2,17,-1
 1130 832 l 257,18,19
 1156 1038 1156 1038 1052 1173 c 128,-1,20
 948 1308 948 1308 738 1308 c 256,21,22
 606 1308 606 1308 513 1263 c 128,-1,23
 420 1218 420 1218 375 1173 c 256,24,25
 332 1130 332 1130 304 1156 c 258,26,-1
 243 1211 l 258,27,28
 206 1245 206 1245 255 1296 c 256,29,30
 318 1362 318 1362 438 1413 c 128,-1,31
 558 1464 558 1464 745 1464 c 256,32,33
 1008 1464 1008 1464 1170.5 1319 c 128,-1,34
 1333 1174 1333 1174 1333 828 c 256,35,36
 1333 482 1333 482 1131.5 226 c 128,-1,37
 930 -30 930 -30 570 -30 c 256,38,39
 351 -30 351 -30 232.5 33 c 128,-1,40
 114 96 114 96 55 191 c 256,0,1
EndSplineSet
EndChar

StartChar: afii10037
Encoding: 1059 1059 120
Width: 1316
Flags: W
HStem: -30 157<88.3431 441.909> 1414 20G<273.5 413.5 1302 1473.5>
DStem2: 627 746 262 1368 0.272434 -0.962175<-726.92 277.939> 561 312 781 331 0.538506 0.842621<-222.302 0 204.456 1359.45>
LayerCount: 2
Back
SplineSet
111.463 15 m 256,0,1
 80.9538 35.0831 80.9538 35.0831 100.237 66 c 2,2,-1
 152.63 150 l 2,3,4
 177.673 190.151 177.673 190.151 210.862 164 c 256,5,6
 257.32 127 257.32 127 322.32 127 c 256,7,8
 403.32 127 403.32 127 451.938 153.5 c 0,9,10
 499.621 179.49 499.621 179.49 537.715 224 c 2,11,-1
 578.796 272 l 9,12,-1
 261.828 1368 l 18,13,14
 242.741 1434 242.741 1434 304.065 1434 c 2,15,-1
 390.065 1434 l 2,16,17
 436.795 1434 436.795 1434 450.752 1385 c 10,18,-1
 641.302 716 l 2,19,20
 656.428 662.895 656.428 662.895 674.327 584 c 0,21,22
 690.436 513 690.436 513 695.812 441 c 1,23,-1
 699.812 441 l 1,24,25
 733.82 519 733.82 519 774.712 590 c 0,26,27
 811.567 653.992 811.567 653.992 860.995 732 c 2,28,-1
 1274.75 1385 l 18,29,30
 1305.8 1434 1305.8 1434 1358.06 1434 c 2,31,-1
 1476.06 1434 l 2,32,33
 1530.88 1434 1530.88 1434 1487.83 1368 c 10,34,-1
 811.417 331 l 2,35,36
 693.004 149.463 693.004 149.463 588.853 60 c 0,37,38
 484.074 -30 484.074 -30 309.074 -30 c 256,39,40
 179.074 -30 179.074 -30 111.463 15 c 256,0,1
EndSplineSet
Fore
SplineSet
262 1368 m 18,0,1
 243 1434 243 1434 304 1434 c 2,2,-1
 390 1434 l 2,3,4
 437 1434 437 1434 451 1385 c 10,5,-1
 627 746 l 2,6,7
 644 685 644 685 659 608.5 c 128,-1,8
 674 532 674 532 683 471 c 1,9,-1
 687 471 l 1,10,11
 721 549 721 549 767.5 625.5 c 128,-1,12
 814 702 814 702 852 762 c 2,13,-1
 1245 1385 l 18,14,15
 1276 1434 1276 1434 1328 1434 c 2,16,-1
 1446 1434 l 2,17,18
 1501 1434 1501 1434 1458 1368 c 10,19,-1
 781 331 l 2,20,21
 663 149 663 149 558.5 59.5 c 128,-1,22
 454 -30 454 -30 279 -30 c 256,23,24
 154 -30 154 -30 88 14 c 256,25,26
 60 32 60 32 77 65 c 2,27,-1
 118 147 l 2,28,29
 136 185 136 185 176 161 c 256,30,31
 232 127 232 127 292 127 c 256,32,33
 373 127 373 127 428 161 c 128,-1,34
 483 195 483 195 519 249 c 2,35,-1
 561 312 l 9,36,-1
 262 1368 l 18,0,1
EndSplineSet
EndChar

StartChar: cyrBreve
Encoding: 63185 63185 122
Width: 1452
Flags: W
HStem: 1548 136<841.175 1166.36>
VStem: 632 186<1708.76 1864.7>
LayerCount: 2
Back
SplineSet
340 1819 m 2,0,1
 336 1867 336 1867 388 1867 c 2,2,-1
 469 1867 l 2,3,4
 511 1867 511 1867 518 1819 c 2,5,-1
 523 1783 l 2,6,7
 529 1736 529 1736 582.5 1710 c 128,-1,8
 636 1684 636 1684 726 1684 c 260,9,10
 816 1684 816 1684 869.5 1710 c 128,-1,11
 923 1736 923 1736 929 1783 c 2,12,-1
 934 1819 l 2,13,14
 941 1867 941 1867 983 1867 c 2,15,-1
 1064 1867 l 2,16,17
 1116 1867 1116 1867 1112 1819 c 2,18,-1
 1106 1749 l 2,19,20
 1098 1660 1098 1660 984.5 1604 c 128,-1,21
 871 1548 871 1548 726 1548 c 260,22,23
 581 1548 581 1548 467.5 1604 c 128,-1,24
 354 1660 354 1660 346 1749 c 2,25,-1
 340 1819 l 2,0,1
EndSplineSet
Fore
SplineSet
638 1819 m 2,0,1
 643 1867 643 1867 697 1867 c 2,2,-1
 780 1867 l 2,3,4
 822 1867 822 1867 818 1819 c 2,5,-1
 815 1787 l 2,6,7
 810 1732 810 1732 852 1708 c 128,-1,8
 894 1684 894 1684 975 1684 c 256,9,10
 1106 1684 1106 1684 1188 1742.5 c 128,-1,11
 1270 1801 1270 1801 1309 1855 c 256,12,13
 1334 1890 1334 1890 1362 1871 c 258,14,-1
 1401 1844 l 258,15,16
 1426 1827 1426 1827 1399 1789 c 256,17,18
 1304 1656 1304 1656 1208 1602 c 128,-1,19
 1112 1548 1112 1548 943 1548 c 256,20,21
 788 1548 788 1548 705.5 1609 c 128,-1,22
 623 1670 623 1670 632 1761 c 2,23,-1
 638 1819 l 2,0,1
EndSplineSet
EndChar

StartChar: dieresis
Encoding: 168 168 123
Width: 614
Flags: W
HStem: 1240 176<213.186 368.941 619.186 774.941>
VStem: 193 602
LayerCount: 2
Fore
SplineSet
227 1240 m 2,0,1
 182 1240 182 1240 193 1285 c 2,2,-1
 213 1371 l 2,3,4
 223 1416 223 1416 268 1416 c 2,5,-1
 354 1416 l 2,6,7
 399 1416 399 1416 389 1371 c 2,8,-1
 369 1285 l 2,9,10
 358 1240 358 1240 313 1240 c 2,11,-1
 227 1240 l 2,0,1
633 1240 m 2,12,13
 588 1240 588 1240 599 1285 c 2,14,-1
 619 1371 l 2,15,16
 629 1416 629 1416 674 1416 c 2,17,-1
 760 1416 l 2,18,19
 805 1416 805 1416 795 1371 c 2,20,-1
 775 1285 l 2,21,22
 764 1240 764 1240 719 1240 c 2,23,-1
 633 1240 l 2,12,13
EndSplineSet
EndChar

StartChar: dieresis.cap
Encoding: 63179 63179 125
Width: 820
Flags: W
HStem: 1550 182<349.156 509.695 827.156 987.695>
LayerCount: 2
Fore
SplineSet
363 1550 m 2,0,1
 318 1550 318 1550 328 1595 c 2,2,-1
 349 1687 l 2,3,4
 360 1732 360 1732 405 1732 c 2,5,-1
 497 1732 l 2,6,7
 542 1732 542 1732 531 1687 c 2,8,-1
 510 1595 l 2,9,10
 500 1550 500 1550 455 1550 c 2,11,-1
 363 1550 l 2,0,1
841 1550 m 2,12,13
 796 1550 796 1550 806 1595 c 2,14,-1
 827 1687 l 2,15,16
 838 1732 838 1732 883 1732 c 2,17,-1
 975 1732 l 2,18,19
 1020 1732 1020 1732 1009 1687 c 2,20,-1
 988 1595 l 2,21,22
 978 1550 978 1550 933 1550 c 2,23,-1
 841 1550 l 2,12,13
EndSplineSet
EndChar

StartChar: r
Encoding: 114 114 129
Width: 722
Flags: MW
HStem: 0 21G<44.5 175.5> 937 130<559.426 795.646> 1030 20G<286.5 415.5 792 813.5>
DStem2: 21.6109 0 198.642 0 0.224951 0.97437<29.7767 793.208 906.437 1087.07>
LayerCount: 2
Back
SplineSet
67 0 m 2,0,1
 22 0 22 0 32 45 c 2,2,-1
 254 1005 l 2,3,4
 264 1050 264 1050 309 1050 c 2,5,-1
 393 1050 l 2,6,7
 438 1050 438 1050 428 1005 c 2,8,-1
 400 885 l 1,9,-1
 404 885 l 1,10,11
 473 975 473 975 545.5 1021 c 128,-1,12
 618 1067 618 1067 721 1067 c 256,13,14
 780 1067 780 1067 804 1056 c 256,15,16
 823 1048 823 1048 814 1026 c 2,17,-1
 781 944 l 2,18,19
 774 926 774 926 752 930 c 256,20,21
 718 937 718 937 683 937 c 256,22,23
 574 937 574 937 471 834.5 c 128,-1,24
 368 732 368 732 324 544 c 2,25,-1
 208 45 l 2,26,27
 198 0 198 0 153 0 c 2,28,-1
 67 0 l 2,0,1
EndSplineSet
Fore
SplineSet
67 0 m 2,0,1
 22 0 22 0 32 45 c 2,2,-1
 254 1005 l 2,3,4
 264 1050 264 1050 309 1050 c 2,5,-1
 393 1050 l 2,6,7
 438 1050 438 1050 428 1005 c 2,8,-1
 391 845 l 1,9,-1
 395 845 l 1,10,11
 467 958 467 958 542.5 1012.5 c 128,-1,12
 618 1067 618 1067 721 1067 c 256,13,14
 780 1067 780 1067 804 1056 c 256,15,16
 823 1048 823 1048 814 1026 c 2,17,-1
 781 944 l 2,18,19
 774 926 774 926 752 930 c 256,20,21
 718 937 718 937 683 937 c 256,22,23
 574 937 574 937 462 795.5 c 128,-1,24
 350 654 350 654 315 504 c 2,25,-1
 208 45 l 2,26,27
 198 0 198 0 153 0 c 2,28,-1
 67 0 l 2,0,1
EndSplineSet
EndChar

StartChar: F
Encoding: 70 70 130
Width: 1166
Flags: W
HStem: 0 21G<75 217> 632 164<426 1039.84> 1270 164<535 1272.93>
DStem2: 50.3022 0 242.302 0 0.224951 0.97437<33.6777 691.767 860.112 1346.48>
LayerCount: 2
Fore
SplineSet
100 0 m 2,0,1
 50 0 50 0 63 55 c 2,2,-1
 368 1379 l 2,3,4
 381 1434 381 1434 431 1434 c 2,5,-1
 1246 1434 l 2,6,7
 1301 1434 1301 1434 1291 1389 c 2,8,-1
 1274 1315 l 2,9,10
 1263 1270 1263 1270 1208 1270 c 2,11,-1
 535 1270 l 9,12,-1
 426 796 l 1,13,-1
 1013 796 l 2,14,15
 1068 796 1068 796 1057 751 c 2,16,-1
 1040 677 l 2,17,18
 1030 632 1030 632 975 632 c 2,19,-1
 388 632 l 1,20,-1
 255 55 l 2,21,22
 242 0 242 0 192 0 c 2,23,-1
 100 0 l 2,0,1
EndSplineSet
EndChar

StartChar: colon
Encoding: 58 58 132
Width: 600
Flags: W
HStem: 0 212<118.59 290.41> 838 212<311.59 483.41>
VStem: 89 231 282 231
LayerCount: 2
Back
SplineSet
317 838 m 2,0,1
 272 838 272 838 283 883 c 2,2,-1
 311 1005 l 2,3,4
 321 1050 321 1050 366 1050 c 2,5,-1
 478 1050 l 2,6,7
 523 1050 523 1050 513 1005 c 2,8,-1
 485 883 l 2,9,10
 474 838 474 838 429 838 c 2,11,-1
 317 838 l 2,0,1
124 0 m 2,12,13
 79 0 79 0 89 45 c 2,14,-1
 118 167 l 2,15,16
 128 212 128 212 173 212 c 2,17,-1
 285 212 l 2,18,19
 330 212 330 212 320 167 c 2,20,-1
 291 45 l 2,21,22
 281 0 281 0 236 0 c 2,23,-1
 124 0 l 2,12,13
EndSplineSet
Fore
Refer: 74 46 S 1 0 0 1 193 838 2
Refer: 74 46 N 1 0 0 1 0 0 3
EndChar

StartChar: w
Encoding: 119 119 133
Width: 1444
Flags: MW
HStem: 0 21G<208 366 838 996> 1030 20G<174 309 773.5 898.5 1363 1514>
DStem2: 324 351 156 1001 0.0329608 -0.999457<-168.885 181.835> 364 256.5 415 61 0.443169 0.896438<-94.3334 746.376> 800 722 917 1011 0.0257101 -0.999669<-327.172 151> 944 169 1045 61 0.443395 0.896326<0 842.052> 1327 1011 1510 1001 0.443395 0.896326<-823.55 65.163>
LayerCount: 2
Fore
SplineSet
156 1001 m 2,0,1
 154 1050 154 1050 194 1050 c 2,2,-1
 291 1050 l 2,3,4
 327 1050 327 1050 327 1011 c 2,5,-1
 324 351 l 2,6,7
 324 306 324 306 323 253 c 128,-1,8
 322 200 322 200 322 169 c 1,9,-1
 326 169 l 1,10,11
 337 197 337 197 364 256.5 c 152,-1,12
 391 316 391 316 409 351 c 2,13,-1
 737 1011 l 2,14,15
 756 1050 756 1050 791 1050 c 2,16,-1
 881 1050 l 2,17,18
 916 1050 916 1050 917 1011 c 2,19,-1
 941 351 l 2,20,21
 942 315 942 315 941 266.5 c 152,-1,22
 940 218 940 218 940 169 c 1,23,-1
 944 169 l 1,24,25
 957 198 957 198 985.5 260 c 128,-1,26
 1014 322 1014 322 1028 351 c 2,27,-1
 1327 1011 l 2,28,29
 1345 1050 1345 1050 1381 1050 c 2,30,-1
 1494 1050 l 2,31,32
 1534 1050 1534 1050 1510 1001 c 2,33,-1
 1045 61 l 2,34,35
 1015 0 1015 0 977 0 c 2,36,-1
 857 0 l 2,37,38
 819 -0 819 -0 817 61 c 2,39,-1
 800 722 l 2,40,41
 799 780 799 780 800.5 814 c 128,-1,42
 802 848 802 848 805 873 c 1,43,-1
 803 873 l 1,44,45
 794 848 794 848 777 807 c 128,-1,46
 760 766 760 766 738 722 c 2,47,-1
 415 61 l 2,48,49
 385 0 385 0 347 0 c 2,50,-1
 227 0 l 2,51,52
 189 -0 189 -0 187 61 c 2,53,-1
 156 1001 l 2,0,1
EndSplineSet
EndChar

StartChar: L
Encoding: 76 76 134
Width: 1136
Flags: W
HStem: 0 164<280 969.839> 1414 20G<406 548>
DStem2: 50.3022 0 242.138 0 0.224951 0.97437<211.467 1481.08>
LayerCount: 2
Fore
SplineSet
100 0 m 2,0,1
 50 0 50 0 63 55 c 2,2,-1
 368 1379 l 2,3,4
 381 1434 381 1434 431 1434 c 2,5,-1
 523 1434 l 2,6,7
 573 1434 573 1434 560 1379 c 2,8,-1
 280 164 l 17,9,-1
 943 164 l 2,10,11
 998 164 998 164 987 119 c 2,12,-1
 970 45 l 2,13,14
 960 0 960 0 905 0 c 2,15,-1
 100 0 l 2,0,1
EndSplineSet
EndChar

StartChar: D
Encoding: 68 68 135
Width: 1406
Flags: W
HStem: 0 164<280 808.493> 1272 162<536 996.118>
VStem: 1179 205<583.194 1083.06>
DStem2: 50.3022 0 242.138 0 0.224951 0.97437<211.467 1348.66>
LayerCount: 2
Back
SplineSet
100 0 m 2,0,1
 50 0 50 0 62.6973 55 c 2,2,-1
 368.367 1379 l 2,3,4
 381.065 1434 381.065 1434 431.065 1434 c 2,5,-1
 800.065 1434 l 2,6,7
 1224.06 1434 1224.06 1434 1346.28 1246.5 c 128,-1,8
 1468.49 1059 1468.49 1059 1389.99 719 c 256,9,10
 1311.5 379 1311.5 379 1102.25 189.5 c 128,-1,11
 893 0 893 0 469 0 c 10,12,-1
 100 0 l 2,0,1
276.862 164 m 1,13,-1
 497.862 164 l 2,14,15
 827.862 164 827.862 164 974.684 304 c 128,-1,16
 1121.51 444 1121.51 444 1184.99 719 c 256,17,18
 1248.48 994 1248.48 994 1166.07 1133 c 128,-1,19
 1083.66 1272 1083.66 1272 753.664 1272 c 2,20,-1
 532.664 1272 l 1,21,-1
 276.862 164 l 1,13,-1
EndSplineSet
Fore
SplineSet
100 0 m 2,0,1
 50 0 50 0 63 55 c 2,2,-1
 368 1379 l 2,3,4
 381 1434 381 1434 431 1434 c 2,5,-1
 750 1434 l 2,6,7
 1108 1434 1108 1434 1246 1259 c 128,-1,8
 1384 1084 1384 1084 1384 848 c 256,9,10
 1384 508 1384 508 1174 254 c 128,-1,11
 964 0 964 0 519 0 c 10,12,-1
 100 0 l 2,0,1
280 164 m 1,13,-1
 548 164 l 2,14,15
 880 164 880 164 1029.5 376 c 128,-1,16
 1179 588 1179 588 1179 860 c 256,17,18
 1179 1032 1179 1032 1097.5 1152 c 128,-1,19
 1016 1272 1016 1272 704 1272 c 2,20,-1
 536 1272 l 1,21,-1
 280 164 l 1,13,-1
EndSplineSet
EndChar

StartChar: exclam
Encoding: 33 33 136
Width: 600
Flags: W
HStem: 0 212<118.59 290.41> 1414 20G<433 588>
VStem: 89 511
DStem2: 79.445 0 281.445 0 0.224951 0.97437<35.3504 227.479 438.892 1480.92>
LayerCount: 2
Fore
SplineSet
396 1379 m 2,0,1
 407 1434 407 1434 459 1434 c 2,2,-1
 563 1434 l 2,3,4
 613 1434 613 1434 600 1379 c 2,5,-1
 361 435 l 2,6,7
 350 390 350 390 306 390 c 2,8,-1
 234 390 l 2,9,10
 189 390 189 390 199 435 c 2,11,-1
 396 1379 l 2,0,1
124 0 m 2,12,13
 79 0 79 0 89 45 c 2,14,-1
 118 167 l 2,15,16
 128 212 128 212 173 212 c 2,17,-1
 285 212 l 2,18,19
 330 212 330 212 320 167 c 2,20,-1
 291 45 l 2,21,22
 281 0 281 0 236 0 c 2,23,-1
 124 0 l 2,12,13
EndSplineSet
EndChar

StartChar: one
Encoding: 49 49 137
Width: 827
Flags: W
HStem: 0 21G<353.5 484.5> 1420 20G<694.5 816>
VStem: 302 527
DStem2: 330.611 0 506.611 0 0.224951 0.97437<29.7767 1210.51>
LayerCount: 2
Back
SplineSet
306.729 1151 m 2,0,1
 301.117 1183 301.117 1183 341.35 1197 c 256,2,3
 425.044 1226 425.044 1226 508.82 1290 c 128,-1,4
 592.596 1354 592.596 1354 644.139 1404 c 256,5,6
 681.45 1440 681.45 1440 708.45 1440 c 2,7,-1
 793.45 1440 l 2,8,9
 839.45 1440 839.45 1440 829.062 1395 c 2,10,-1
 517.389 45 l 2,11,12
 507 0 507 0 462 0 c 2,13,-1
 376 0 l 2,14,15
 331 0 331 0 341.389 45 c 2,16,-1
 594.421 1141 l 2,17,18
 601.347 1171 601.347 1171 610.272 1201 c 1,19,-1
 608.272 1201 l 1,20,21
 568.269 1162 568.269 1162 498.804 1121 c 128,-1,22
 429.338 1080 429.338 1080 374.951 1061 c 256,23,24
 327.026 1044 327.026 1044 320.646 1077 c 258,25,-1
 306.729 1151 l 2,0,1
EndSplineSet
Fore
SplineSet
302 1148 m 2,0,1
 291 1178 291 1178 337 1194 c 256,2,3
 407 1218 407 1218 500 1286 c 128,-1,4
 593 1354 593 1354 644 1404 c 256,5,6
 681 1440 681 1440 708 1440 c 2,7,-1
 793 1440 l 2,8,9
 839 1440 839 1440 829 1395 c 2,10,-1
 517 45 l 2,11,12
 507 0 507 0 462 0 c 2,13,-1
 376 0 l 2,14,15
 331 0 331 0 341 45 c 2,16,-1
 589 1119 l 2,17,18
 592 1133 592 1133 605 1179 c 1,19,-1
 601 1179 l 1,20,21
 567 1139 567 1139 494.5 1100 c 128,-1,22
 422 1061 422 1061 376 1048 c 256,23,24
 342 1038 342 1038 331 1068 c 258,25,-1
 302 1148 l 2,0,1
EndSplineSet
EndChar

StartChar: one.tab
Encoding: 65536 -1 138
Width: 1110
Flags: W
HStem: 0 130<108.895 390 566 814.675> 1420 20G<723.5 845>
DStem2: 359.987 0 535.987 0 0.224951 0.97437<173.011 1210.42>
LayerCount: 2
Back
SplineSet
184 1151 m 2,0,1
 171 1183 171 1183 208 1197 c 256,2,3
 285 1226 285 1226 354 1290 c 128,-1,4
 423 1354 423 1354 463 1404 c 256,5,6
 492 1440 492 1440 519 1440 c 2,7,-1
 604 1440 l 2,8,9
 650 1440 650 1440 650 1395 c 2,10,-1
 650 45 l 2,11,12
 650 0 650 0 605 0 c 2,13,-1
 519 0 l 2,14,15
 474 0 474 0 474 45 c 2,16,-1
 474 1141 l 2,17,18
 474 1171 474 1171 476 1201 c 1,19,-1
 474 1201 l 1,20,21
 443 1162 443 1162 383 1121 c 128,-1,22
 323 1080 323 1080 273 1061 c 256,23,24
 229 1044 229 1044 215 1077 c 258,25,-1
 184 1151 l 2,0,1
248 0 m 2,26,27
 204 0 204 0 204 35 c 2,28,-1
 204 95 l 2,29,30
 204 130 204 130 249 130 c 2,31,-1
 875 130 l 2,32,33
 920 130 920 130 920 95 c 2,34,-1
 920 35 l 2,35,36
 920 0 920 0 876 0 c 2,37,-1
 248 0 l 2,26,27
EndSplineSet
Fore
SplineSet
331 1148 m 258,0,1
 320 1178 320 1178 366 1194 c 256,2,3
 437 1219 437 1219 528.5 1286 c 128,-1,4
 620 1353 620 1353 673 1404 c 256,5,6
 710 1440 710 1440 737 1440 c 258,7,-1
 822 1440 l 2,8,9
 868 1440 868 1440 858 1395 c 2,10,-1
 566 130 l 1,11,-1
 790 130 l 2,12,13
 835 130 835 130 827 95 c 2,14,-1
 813 35 l 2,15,16
 805 -0 805 -0 761 0 c 2,17,-1
 133 0 l 2,18,19
 89 0 89 0 97 35 c 2,20,-1
 111 95 l 2,21,22
 119 130 119 130 164 130 c 2,23,-1
 390 130 l 1,24,-1
 618 1119 l 2,25,26
 621 1133 621 1133 634 1179 c 1,27,-1
 630 1179 l 1,28,29
 596 1139 596 1139 523.5 1100 c 128,-1,30
 451 1061 451 1061 405 1048 c 256,31,32
 371 1038 371 1038 360 1068 c 258,33,-1
 331 1148 l 258,0,1
EndSplineSet
EndChar

StartChar: U
Encoding: 85 85 139
Width: 1402
Flags: W
HStem: -30 156<412.386 803.546> 1414 20G<406 548 1276 1418>
DStem2: 42.7891 -30 234.863 -30 0.224951 0.97437<358.505 1512> 912.863 -30 1104.79 -30 0.224951 0.97437<313.51 1511.99>
LayerCount: 2
Back
SplineSet
176 547 m 2,0,-1
 368 1379 l 2,1,2
 381 1434 381 1434 431 1434 c 2,3,-1
 523 1434 l 2,4,5
 573 1434 573 1434 560 1379 c 2,6,-1
 375 577 l 2,7,8
 311 297 311 297 370.5 211.5 c 128,-1,9
 430 126 430 126 610 126 c 256,10,11
 790 126 790 126 889.5 211.5 c 128,-1,12
 989 297 989 297 1053 577 c 2,13,-1
 1238 1379 l 2,14,15
 1251 1434 1251 1434 1301 1434 c 2,16,-1
 1393 1434 l 2,17,18
 1443 1434 1443 1434 1430 1379 c 2,19,-1
 1238 547 l 2,20,21
 1165 230 1165 230 989.5 100 c 128,-1,22
 814 -30 814 -30 574 -30 c 256,23,24
 334 -30 334 -30 218.5 100 c 128,-1,25
 103 230 103 230 176 547 c 2,0,-1
EndSplineSet
Fore
SplineSet
176 547 m 2,0,-1
 368 1379 l 2,1,2
 381 1434 381 1434 431 1434 c 2,3,-1
 523 1434 l 2,4,5
 573 1434 573 1434 560 1379 c 2,6,-1
 375 577 l 2,7,8
 311 297 311 297 370 211.5 c 128,-1,9
 429 126 429 126 610 126 c 256,10,11
 756 126 756 126 872.5 211.5 c 128,-1,12
 989 297 989 297 1053 577 c 2,13,-1
 1238 1379 l 2,14,15
 1251 1434 1251 1434 1301 1434 c 2,16,-1
 1393 1434 l 2,17,18
 1443 1434 1443 1434 1430 1379 c 2,19,-1
 1238 547 l 2,20,21
 1165 230 1165 230 1004 100 c 128,-1,22
 843 -30 843 -30 574 -30 c 256,23,24
 375 -30 375 -30 239 100 c 128,-1,25
 103 230 103 230 176 547 c 2,0,-1
EndSplineSet
EndChar

StartChar: N
Encoding: 78 78 140
Width: 1438
Flags: W
HStem: 0 21G<75 217 981 1123> 1414 20G<406 587.5 1312 1454>
DStem2: 50.3022 0 242.302 0 0.224951 0.97437<33.6777 1248.52> 641 1384 515 1175 0.344622 -0.938741<152.775 1128.78> 958.199 0 1148.3 0 0.224951 0.97437<332.523 1481.91>
LayerCount: 2
Back
SplineSet
100 0 m 2,0,1
 50 0 50 0 63 55 c 2,2,-1
 368 1379 l 2,3,4
 381 1434 381 1434 431 1434 c 2,5,-1
 559 1434 l 2,6,7
 629 1434 629 1434 648 1384 c 2,8,-1
 1031 335 l 9,9,-1
 1035 335 l 17,10,11
 1043 375 1043 375 1052 415 c 2,12,-1
 1274 1379 l 2,13,14
 1287 1434 1287 1434 1337 1434 c 2,15,-1
 1429 1434 l 2,16,17
 1479 1434 1479 1434 1466 1379 c 2,18,-1
 1161 55 l 2,19,20
 1148 0 1148 0 1098 0 c 2,21,-1
 1010 0 l 2,22,23
 940 0 940 0 922 50 c 2,24,-1
 512 1163 l 9,25,-1
 508 1163 l 25,26,27
 501 1123 501 1123 492 1083 c 2,28,-1
 255 55 l 2,29,30
 242 0 242 0 192 0 c 2,31,-1
 100 0 l 2,0,1
527.113 1144 m 2,6,-1
 910.933 95 l 9,7,-1
640.521 1384 m 2,6,-1
 1024.34 335 l 9,7,-1
EndSplineSet
Fore
SplineSet
100 0 m 2,0,1
 50 0 50 0 63 55 c 2,2,-1
 368 1379 l 2,3,4
 381 1434 381 1434 431 1434 c 2,5,-1
 552 1434 l 2,6,7
 623 1434 623 1434 641 1384 c 2,8,-1
 1029 324 l 9,9,-1
 1033 324 l 17,10,11
 1042 370 1042 370 1050 404 c 2,12,-1
 1274 1379 l 2,13,14
 1287 1434 1287 1434 1337 1434 c 2,15,-1
 1429 1434 l 2,16,17
 1479 1434 1479 1434 1466 1379 c 2,18,-1
 1161 55 l 2,19,20
 1148 0 1148 0 1098 0 c 2,21,-1
 1016 0 l 2,22,23
 946 0 946 0 928 50 c 2,24,-1
 515 1175 l 9,25,-1
 511 1175 l 25,26,27
 503 1131 503 1131 495 1095 c 2,28,-1
 255 55 l 2,29,30
 242 0 242 0 192 0 c 2,31,-1
 100 0 l 2,0,1
EndSplineSet
EndChar

StartChar: G
Encoding: 71 71 141
Width: 1470
Flags: W
HStem: -30 156<511.906 988.559> 510 164<872.073 1196> 1308 156<671.95 1098.44>
VStem: 110 205<338.259 898.572>
DStem2: 1071.59 -30 1262.83 -30 0.224951 0.97437<242.188 554.147>
LayerCount: 2
Back
SplineSet
1134.56 245 m 13,14,15
 1195.74 510 l 5,13,-1
110 580 m 0,0,1
 110 975 110 975 320.5 1219.5 c 128,-1,2
 531 1464 531 1464 908 1464 c 256,3,4
 1092 1464 1092 1464 1206 1400 c 128,-1,5
 1320 1336 1320 1336 1367 1230 c 256,6,7
 1390 1177 1390 1177 1344 1150 c 258,8,-1
 1266 1104 l 258,9,10
 1239 1088 1239 1088 1214 1132 c 256,11,12
 1184 1186 1184 1186 1105 1247 c 128,-1,13
 1026 1308 1026 1308 891 1308 c 256,14,15
 641 1308 641 1308 478 1125 c 128,-1,16
 315 942 315 942 315 557 c 0,17,18
 315 375 315 375 411 250.5 c 128,-1,19
 507 126 507 126 737 126 c 256,20,21
 873 126 873 126 967.5 197.5 c 152,-1,22
 1062 269 1062 269 1114 341 c 256,23,24
 1156 399 1156 399 1192 376 c 258,25,-1
 1282 318 l 258,26,27
 1315 297 1315 297 1274 238 c 256,28,29
 1195 123 1195 123 1061 46.5 c 152,-1,30
 927 -30 927 -30 710 -30 c 256,31,32
 408 -30 408 -30 259 142.5 c 128,-1,33
 110 315 110 315 110 580 c 0,0,1
EndSplineSet
Fore
SplineSet
110 580 m 0,0,1
 110 975 110 975 320.5 1219.5 c 128,-1,2
 531 1464 531 1464 916 1464 c 256,3,4
 1110 1464 1110 1464 1224 1398 c 128,-1,5
 1338 1332 1338 1332 1382 1248 c 256,6,7
 1408 1197 1408 1197 1363 1167 c 258,8,-1
 1287 1117 l 258,9,10
 1259 1098 1259 1098 1234 1142 c 256,11,12
 1209 1185 1209 1185 1125 1246.5 c 128,-1,13
 1041 1308 1041 1308 899 1308 c 256,14,15
 642 1308 642 1308 478.5 1125 c 128,-1,16
 315 942 315 942 315 557 c 0,17,18
 315 375 315 375 411 250.5 c 128,-1,19
 507 126 507 126 737 126 c 256,20,21
 867 126 867 126 977 166 c 152,-1,22
 1087 206 1087 206 1139 262 c 9,23,-1
 1196 510 l 1,24,-1
 899 510 l 2,25,26
 844 510 844 510 854 555 c 2,27,-1
 871 629 l 2,28,29
 882 674 882 674 937 674 c 2,30,-1
 1371 674 l 2,31,32
 1426 674 1426 674 1415 629 c 2,33,-1
 1306 157 l 17,34,35
 1164 51 1164 51 1036 10.5 c 152,-1,36
 908 -30 908 -30 710 -30 c 256,37,38
 408 -30 408 -30 259 142.5 c 128,-1,39
 110 315 110 315 110 580 c 0,0,1
EndSplineSet
EndChar

StartChar: J
Encoding: 74 74 142
Width: 824
Flags: W
HStem: -30 156<73.4351 323.582> 1414 20G<698 840>
DStem2: 334.806 -30 527.496 -30 0.224951 0.97437<211.137 1512>
LayerCount: 2
Back
SplineSet
-46 29 m 256,0,1
 -87 54 -87 54 -59 94 c 2,2,-1
 -10 165 l 2,3,4
 23 213 23 213 66 179 c 256,5,6
 135 126 135 126 216 126 c 256,7,8
 313 126 313 126 357 191.5 c 128,-1,9
 401 257 401 257 429 378 c 2,10,-1
 660 1379 l 2,11,12
 673 1434 673 1434 723 1434 c 2,13,-1
 815 1434 l 2,14,15
 865 1434 865 1434 852 1379 c 2,16,-1
 627 401 l 2,17,18
 581 203 581 203 492 86.5 c 128,-1,19
 403 -30 403 -30 175 -30 c 256,20,21
 50 -30 50 -30 -46 29 c 256,0,1
EndSplineSet
Fore
SplineSet
-37 29 m 256,0,1
 -72 50 -72 50 -50 94 c 2,2,-1
 -14 165 l 2,3,4
 12 217 12 217 62 179 c 256,5,6
 132 126 132 126 194 126 c 256,7,8
 291 126 291 126 346 191 c 128,-1,9
 401 256 401 256 429 378 c 2,10,-1
 660 1379 l 2,11,12
 673 1434 673 1434 723 1434 c 2,13,-1
 815 1434 l 2,14,15
 865 1434 865 1434 852 1379 c 2,16,-1
 627 401 l 2,17,18
 587 225 587 225 495 97.5 c 128,-1,19
 403 -30 403 -30 175 -30 c 256,20,21
 59 -30 59 -30 -37 29 c 256,0,1
EndSplineSet
EndChar

StartChar: K
Encoding: 75 75 143
Width: 1328
Flags: W
HStem: 0 21G<75 217 1001.5 1161.5> 1414 20G<406 548 1275 1475.5>
DStem2: 50.3022 0 242.302 0 0.224951 0.97437<33.6777 526.571 795.877 1481.08> 413 734 655 723 0.771007 0.636826<0 179.579 379.191 1153.73> 809 850 655 723 0.411524 -0.911399<52.3729 864.651>
LayerCount: 2
Back
SplineSet
100 0 m 2,0,1
 50 0 50 0 63 55 c 2,2,-1
 368 1379 l 2,3,4
 381 1434 381 1434 431 1434 c 2,5,-1
 523 1434 l 2,6,7
 573 1434 573 1434 560 1379 c 2,8,-1
 425 791 l 2,9,10
 415 751 415 751 404 711 c 1,11,-1
 408 711 l 1,12,-1
 1234 1395 l 2,13,14
 1281 1434 1281 1434 1313 1434 c 2,15,-1
 1434 1434 l 2,16,17
 1517 1434 1517 1434 1437 1368 c 2,18,-1
 809 850 l 1,19,-1
 1163 66 l 2,20,21
 1192 0 1192 0 1130 0 c 2,22,-1
 1008 0 l 2,23,24
 964 0 964 0 947 39 c 2,25,-1
 646 714 l 1,26,-1
 351 471 l 1,27,-1
 255 55 l 2,28,29
 242 0 242 0 192 0 c 2,30,-1
 100 0 l 2,0,1
968.003 26 m 10,29,-1
 602.698 839 l 25,30,-1
1163.24 66 m 10,29,-1
 797.934 879 l 25,30,-1
1231.6 1411 m 2,5,-1
 150.203 517 l 1,6,-1
1436.83 1368 m 2,5,-1
 355.432 474 l 1,6,-1
EndSplineSet
Fore
SplineSet
100 0 m 2,0,1
 50 0 50 0 63 55 c 2,2,-1
 368 1379 l 2,3,4
 381 1434 381 1434 431 1434 c 2,5,-1
 523 1434 l 2,6,7
 573 1434 573 1434 560 1379 c 2,8,-1
 430 814 l 2,9,10
 425 792 425 792 409 734 c 1,11,-1
 413 734 l 1,12,-1
 1212 1395 l 2,13,14
 1259 1434 1259 1434 1291 1434 c 2,15,-1
 1434 1434 l 2,16,17
 1517 1434 1517 1434 1437 1368 c 2,18,-1
 809 850 l 1,19,-1
 1163 66 l 2,20,21
 1193 0 1193 0 1130 0 c 2,22,-1
 1023 0 l 2,23,24
 980 -0 980 -0 962 39 c 2,25,-1
 655 723 l 1,26,-1
 351 471 l 1,27,-1
 255 55 l 2,28,29
 242 0 242 0 192 0 c 2,30,-1
 100 0 l 2,0,1
EndSplineSet
EndChar

StartChar: Q
Encoding: 81 81 144
Width: 1514
Flags: W
HStem: -377 140<871.896 1194.9> -25 151<516.312 625 817 938.456> 1308 156<667.493 1087.43>
VStem: 110 205<331.918 899.608> 625 192<-183.375 -20.7288> 1290 205<534.392 1102.02>
LayerCount: 2
Back
SplineSet
110 580 m 4,0,1
 110 980 110 980 324 1222 c 132,-1,2
 538 1464 538 1464 878 1464 c 260,3,4
 1183 1464 1183 1464 1339 1301.5 c 132,-1,5
 1495 1139 1495 1139 1495 854 c 4,6,7
 1495 454 1495 454 1281 212 c 132,-1,8
 1067 -30 1067 -30 727 -30 c 260,9,10
 422 -30 422 -30 266 132.5 c 132,-1,11
 110 295 110 295 110 580 c 4,0,1
315 556 m 4,12,13
 315 351 315 351 421.5 238.5 c 132,-1,14
 528 126 528 126 738 126 c 260,15,16
 958 126 958 126 1124 309.5 c 132,-1,17
 1290 493 1290 493 1290 878 c 4,18,19
 1290 1083 1290 1083 1183.5 1195.5 c 132,-1,20
 1077 1308 1077 1308 867 1308 c 260,21,22
 647 1308 647 1308 481 1124.5 c 132,-1,23
 315 941 315 941 315 556 c 4,12,13
EndSplineSet
Fore
SplineSet
110 580 m 256,12,13
 110 980 110 980 324 1222 c 128,-1,14
 538 1464 538 1464 878 1464 c 256,15,16
 1183 1464 1183 1464 1339 1301.5 c 128,-1,17
 1495 1139 1495 1139 1495 854 c 256,18,19
 1495 454 1495 454 1281 212 c 0,20,21
 1096 3 1096 3 817 -26 c 1,22,23
 818 -149 818 -149 869.5 -193 c 128,-1,24
 921 -237 921 -237 1036 -237 c 256,25,26
 1087 -237 1087 -237 1152 -224 c 256,27,28
 1192 -217 1192 -217 1195 -239 c 258,29,-1
 1207 -329 l 258,30,31
 1210 -353 1210 -353 1179 -357 c 257,32,33
 1057 -377 1057 -377 1004 -377 c 256,34,35
 799 -377 799 -377 712 -292.5 c 128,-1,36
 625 -208 625 -208 625 -25 c 1,37,38
 395 -2 395 -2 266 132 c 0,39,40
 110 295 110 295 110 580 c 256,12,13
315 556 m 256,0,1
 315 351 315 351 421.5 238.5 c 128,-1,2
 528 126 528 126 738 126 c 256,3,4
 958 126 958 126 1124 309.5 c 128,-1,5
 1290 493 1290 493 1290 878 c 256,6,7
 1290 1083 1290 1083 1183.5 1195.5 c 128,-1,8
 1077 1308 1077 1308 867 1308 c 256,9,10
 647 1308 647 1308 481 1124.5 c 128,-1,11
 315 941 315 941 315 556 c 256,0,1
EndSplineSet
EndChar

StartChar: R
Encoding: 82 82 145
Width: 1384
Flags: W
HStem: 0 21G<75 217 1016 1161.5> 621 164<423 730.386> 1270 164<535 1064.98>
VStem: 1157 195<908.864 1191.39>
DStem2: 50.3022 0 242.302 0 0.224951 0.97437<33.6777 680.374 848.719 1346.48> 1166 66 863 396 0.336174 -0.9418<-594.37 23.1925>
LayerCount: 2
Back
SplineSet
133 0 m 2,0,1
 83 0 83 0 96 55 c 2,2,-1
 401 1379 l 2,3,4
 414 1434 414 1434 464 1434 c 2,5,-1
 874 1434 l 2,6,7
 1108 1434 1108 1434 1229.5 1329 c 128,-1,8
 1351 1224 1351 1224 1351 1045 c 256,9,10
 1351 864 1351 864 1205.5 720 c 128,-1,11
 1060 576 1060 576 706 576 c 2,12,-1
 408 576 l 1,13,-1
 288 55 l 2,14,15
 275 0 275 0 225 0 c 2,16,-1
 133 0 l 2,0,1
446 740 m 1,17,-1
 757 740 l 2,18,19
 964 740 964 740 1060 818.5 c 128,-1,20
 1156 897 1156 897 1156 1025 c 256,21,22
 1156 1161 1156 1161 1081 1215.5 c 128,-1,23
 1006 1270 1006 1270 839 1270 c 2,24,-1
 568 1270 l 1,25,-1
 446 740 l 1,17,-1
100 0 m 2,0,1
 50 0 50 0 62.6973 55 c 2,2,-1
 368.367 1379 l 2,3,4
 381.065 1434 381.065 1434 431.065 1434 c 2,5,-1
 914.065 1434 l 2,6,7
 1203.06 1434 1203.06 1434 1307.63 1326 c 128,-1,8
 1412.2 1218 1412.2 1218 1371.33 1041 c 256,9,10
 1335.32 885 1335.32 885 1206.35 779 c 128,-1,11
 1077.37 673 1077.37 673 880.681 657 c 1,12,-1
 880.219 655 l 1,13,14
 964.673 579 964.673 579 988.554 539.5 c 128,-1,15
 1012.43 500 1012.43 500 1037.97 433 c 2,16,-1
 1179.24 66 l 2,17,18
 1205 0 1205 0 1146 0 c 2,19,-1
 1032 0 l 2,20,21
 985 0 985 0 971.004 39 c 2,22,-1
 845.424 396 l 2,23,24
 818.201 473 818.201 473 751.285 547 c 128,-1,25
 684.369 621 684.369 621 559.369 621 c 2,26,-1
 385.369 621 l 1,27,-1
 254.697 55 l 2,28,29
 242 0 242 0 192 0 c 2,30,-1
 100 0 l 2,0,1
423.231 785 m 1,31,-1
 702.231 785 l 2,32,33
 897.231 785 897.231 785 1014.12 836.5 c 128,-1,34
 1131.01 888 1131.01 888 1169.1 1053 c 256,35,36
 1198.19 1179 1198.19 1179 1112.7 1224.5 c 128,-1,37
 1027.2 1270 1027.2 1270 862.202 1270 c 2,38,-1
 535.202 1270 l 1,39,-1
 423.231 785 l 1,31,-1
EndSplineSet
Fore
SplineSet
100 0 m 2,0,1
 50 0 50 0 63 55 c 2,2,-1
 368 1379 l 2,3,4
 381 1434 381 1434 431 1434 c 2,5,-1
 884 1434 l 2,6,7
 1136 1434 1136 1434 1244 1326 c 128,-1,8
 1352 1218 1352 1218 1352 1056 c 256,9,10
 1352 891 1352 891 1214.5 782 c 128,-1,11
 1077 673 1077 673 881 657 c 1,12,-1
 880 655 l 1,13,14
 965 579 965 579 989 536.5 c 128,-1,15
 1013 494 1013 494 1035 433 c 2,16,-1
 1166 66 l 2,17,18
 1190 0 1190 0 1133 0 c 2,19,-1
 1040 0 l 2,20,21
 992 0 992 0 979 39 c 2,22,-1
 863 396 l 2,23,24
 839 470 839 470 767.5 545.5 c 128,-1,25
 696 621 696 621 559 621 c 2,26,-1
 385 621 l 1,27,-1
 255 55 l 2,28,29
 242 0 242 0 192 0 c 2,30,-1
 100 0 l 2,0,1
423 785 m 1,31,-1
 732 785 l 2,32,33
 912 785 912 785 1034.5 847 c 128,-1,34
 1157 909 1157 909 1157 1038 c 256,35,36
 1157 1182 1157 1182 1067.5 1226 c 128,-1,37
 978 1270 978 1270 832 1270 c 2,38,-1
 535 1270 l 1,39,-1
 423 785 l 1,31,-1
EndSplineSet
EndChar

StartChar: Y
Encoding: 89 89 146
Width: 1302
Flags: MW
HStem: 0 21G<460 602> 1414 20G<257.5 407 1285.5 1467>
DStem2: 602 948 250 1368 0.381407 -0.924407<-544.135 67.6446> 435.302 0 627.302 0 0.224951 0.97437<33.6777 605.404> 866 948 763 590 0.658642 0.752457<-299.412 684.456>
LayerCount: 2
Fore
SplineSet
250 1368 m 18,0,1
 223 1434 223 1434 292 1434 c 2,2,-1
 385 1434 l 2,3,4
 429 1434 429 1434 446 1385 c 10,5,-1
 602 948 l 2,6,7
 616 908 616 908 639.5 838.5 c 128,-1,8
 663 769 663 769 677 709 c 1,9,-1
 681 709 l 1,10,11
 723 769 723 769 763.5 821 c 128,-1,12
 804 873 804 873 866 948 c 2,13,-1
 1224 1385 l 18,14,15
 1264 1434 1264 1434 1307 1434 c 2,16,-1
 1432 1434 l 2,17,18
 1502 1434 1502 1434 1444 1368 c 10,19,-1
 763 590 l 1,20,-1
 640 55 l 2,21,22
 627 0 627 0 577 0 c 2,23,-1
 485 0 l 2,24,25
 435 -0 435 -0 448 55 c 2,26,-1
 571 590 l 1,27,-1
 250 1368 l 18,0,1
EndSplineSet
EndChar

StartChar: W
Encoding: 87 87 147
Width: 1888
Flags: MW
HStem: 0 21G<324.5 501 1157 1334> 1414 20G<258.5 402.5 1045.5 1231.5 1871.5 2040.5>
DStem2: 419 1388 240 1374 0.0423675 -0.999102<-47.4744 776.875> 444 173 566 84 0.427113 0.904198<0 1262.28> 1258 1380 1104 1043 0.0271016 -0.999633<1069.59 1204.8> 1280 173 1399 77 0.438601 0.898682<0 1081.95>
LayerCount: 2
Fore
SplineSet
240 1374 m 2,0,1
 237 1434 237 1434 280 1434 c 2,2,-1
 387 1434 l 2,3,4
 418 1434 418 1434 419 1388 c 2,5,-1
 442 427 l 2,6,7
 443 366 443 366 441 309.5 c 128,-1,8
 439 253 439 253 439 173 c 1,9,-1
 444 173 l 1,10,11
 468 232 468 232 494.5 290 c 152,-1,12
 521 348 521 348 556 426 c 2,13,-1
 995 1380 l 2,14,15
 1020 1434 1020 1434 1071 1434 c 2,16,-1
 1206 1434 l 2,17,18
 1257 1434 1257 1434 1258 1380 c 2,19,-1
 1276 426 l 2,20,21
 1277 377 1277 377 1276 310.5 c 152,-1,22
 1275 244 1275 244 1275 173 c 1,23,-1
 1280 173 l 1,24,25
 1307 233 1307 233 1343 306.5 c 128,-1,26
 1379 380 1379 380 1400 427 c 2,27,-1
 1834 1388 l 2,28,29
 1855 1434 1855 1434 1888 1434 c 2,30,-1
 2020 1434 l 2,31,32
 2061 1434 2061 1434 2032 1374 c 2,33,-1
 1399 77 l 2,34,35
 1361 0 1361 0 1307 0 c 2,36,-1
 1182 0 l 2,37,38
 1132 0 1132 0 1130 84 c 2,39,-1
 1104 1043 l 2,40,41
 1102 1119 1102 1119 1104.5 1160.5 c 128,-1,42
 1107 1202 1107 1202 1107 1259 c 1,43,-1
 1105 1259 l 1,44,45
 1084 1198 1084 1198 1068 1155.5 c 128,-1,46
 1052 1113 1052 1113 1019 1043 c 2,47,-1
 566 84 l 2,48,49
 526 0 526 0 476 0 c 2,50,-1
 351 0 l 2,51,52
 298 -0 298 -0 295 77 c 2,53,-1
 240 1374 l 2,0,1
EndSplineSet
EndChar

StartChar: three
Encoding: 51 51 148
Width: 1110
Flags: W
HStem: -30 150<280.49 625.057> 696 142<450.447 728.524> 1302 150<514.967 850.78>
VStem: 797 196<280.408 624.726> 909 188<995.251 1244.8>
LayerCount: 2
Back
SplineSet
23.1689 148 m 256,0,1
 -6.21191 194 -6.21191 194 24.4834 223 c 2,2,-1
 91.0283 286 l 2,3,4
 134.494 327 134.494 327 167.873 268 c 256,5,6
 204.866 203 204.866 203 271.785 161.5 c 128,-1,7
 338.704 120 338.704 120 422.704 120 c 256,8,9
 587.704 120 587.704 120 675.636 202 c 128,-1,10
 763.566 284 763.566 284 795.195 421 c 256,11,12
 828.672 566 828.672 566 751.678 631 c 128,-1,13
 674.685 696 674.685 696 560.685 696 c 2,14,-1
 472.685 696 l 2,15,16
 427.685 696 427.685 696 435.303 729 c 2,17,-1
 452.387 803 l 2,18,19
 460.468 838 460.468 838 505.468 838 c 2,20,-1
 576.468 838 l 2,21,22
 686.468 838 686.468 838 781.59 910 c 128,-1,23
 876.713 982 876.713 982 905.34 1106 c 256,24,25
 925.195 1192 925.195 1192 874.893 1247 c 128,-1,26
 824.591 1302 824.591 1302 710.591 1302 c 256,27,28
 603.591 1302 603.591 1302 524.277 1253 c 128,-1,29
 444.965 1204 444.965 1204 408.654 1168 c 256,30,31
 360.572 1120 360.572 1120 333.191 1153 c 2,32,-1
 287.351 1210 l 2,33,34
 267.122 1235 267.122 1235 329.513 1293 c 256,35,36
 395.596 1354 395.596 1354 504.408 1403 c 128,-1,37
 613.221 1452 613.221 1452 748.221 1452 c 256,38,39
 955.221 1452 955.221 1452 1041.13 1352 c 128,-1,40
 1127.05 1252 1127.05 1252 1090.34 1093 c 256,41,42
 1061.25 967 1061.25 967 964.241 882.5 c 128,-1,43
 867.232 798 867.232 798 770.615 778 c 1,44,-1
 769.692 774 l 1,45,46
 873.229 759 873.229 759 947.911 658 c 128,-1,47
 1022.59 557 1022.59 557 990.272 417 c 256,48,49
 942.252 209 942.252 209 794.163 89.5 c 128,-1,50
 646.074 -30 646.074 -30 384.074 -30 c 256,51,52
 232.074 -30 232.074 -30 146.811 29.5 c 128,-1,53
 61.5469 89 61.5469 89 23.1689 148 c 256,0,1
EndSplineSet
Fore
SplineSet
39 148 m 256,0,1
 3 197 3 197 30 224 c 2,2,-1
 87 282 l 2,3,4
 117 314 117 314 166 257 c 256,5,6
 222 192 222 192 295.5 156 c 128,-1,7
 369 120 369 120 445 120 c 256,8,9
 591 120 591 120 694 212 c 128,-1,10
 797 304 797 304 797 441 c 256,11,12
 797 570 797 570 746 633 c 128,-1,13
 695 696 695 696 581 696 c 2,14,-1
 473 696 l 2,15,16
 427 696 427 696 435 729 c 2,17,-1
 452 803 l 2,18,19
 460 838 460 838 505 838 c 2,20,-1
 576 838 l 2,21,22
 708 838 708 838 808.5 930.5 c 128,-1,23
 909 1023 909 1023 909 1131 c 256,24,25
 909 1212 909 1212 852 1257 c 128,-1,26
 795 1302 795 1302 689 1302 c 256,27,28
 591 1302 591 1302 514.5 1257 c 128,-1,29
 438 1212 438 1212 399 1170 c 256,30,31
 357 1125 357 1125 326 1161 c 2,32,-1
 272 1223 l 2,33,34
 244 1254 244 1254 302 1303 c 256,35,36
 372 1362 372 1362 478.5 1407 c 128,-1,37
 585 1452 585 1452 702 1452 c 256,38,39
 900 1452 900 1452 998.5 1362 c 128,-1,40
 1097 1272 1097 1272 1097 1118 c 256,41,42
 1097 992 1097 992 982 890.5 c 128,-1,43
 867 789 867 789 771 778 c 1,44,-1
 770 774 l 1,45,46
 870 747 870 747 931.5 657 c 128,-1,47
 993 567 993 567 993 427 c 256,48,49
 993 276 993 276 855 123 c 128,-1,50
 717 -30 717 -30 431 -30 c 256,51,52
 279 -30 279 -30 182.5 27 c 128,-1,53
 86 84 86 84 39 148 c 256,0,1
EndSplineSet
EndChar

StartChar: two
Encoding: 50 50 149
Width: 1110
Flags: W
HStem: 0 164<265 903.422> 1302 150<538.716 856.635>
VStem: 235 146<1034.38 1139.82> 927 196<928.646 1231.76>
DStem2: 45 165 266 166 0.7741 0.633063<171.709 1087.49>
LayerCount: 2
Back
SplineSet
29 0 m 2,0,1
 -26 0 -26 0 -15.6113 45 c 2,2,-1
 -4.5293 93 l 2,3,4
 4.47461 132 4.47461 132 45.0928 165 c 2,5,-1
 528.286 560 l 2,6,7
 742.688 735 742.688 735 819.236 830.5 c 128,-1,8
 895.784 926 895.784 926 924.643 1051 c 256,9,10
 948.884 1156 948.884 1156 904.237 1229 c 128,-1,11
 859.591 1302 859.591 1302 734.591 1302 c 256,12,13
 622.591 1302 622.591 1302 535.431 1245 c 128,-1,14
 448.271 1188 448.271 1188 384.335 1054 c 256,15,16
 357.176 997 357.176 997 315.177 1010 c 2,17,-1
 242.487 1033 l 258,18,19
 213.564 1042 213.564 1042 247.11 1118 c 256,20,21
 306.354 1249 306.354 1249 441.287 1350.5 c 128,-1,22
 576.221 1452 576.221 1452 761.221 1452 c 256,23,24
 996.221 1452 996.221 1452 1077.48 1334 c 128,-1,25
 1158.74 1216 1158.74 1216 1119.26 1045 c 256,26,27
 1080.7 878 1080.7 878 963.268 757 c 128,-1,28
 845.832 636 845.832 636 654.971 485 c 2,29,-1
 252.324 166 l 9,30,-1
 251.4 162 l 17,31,32
 278.862 164 278.862 164 331.862 164 c 2,33,-1
 876.862 164 l 2,34,35
 931.862 164 931.862 164 921.474 119 c 2,36,-1
 904.389 45 l 2,37,38
 894 0 894 0 839 0 c 2,39,-1
 29 0 l 2,0,1
EndSplineSet
Fore
SplineSet
29 0 m 2,0,1
 -26 0 -26 0 -16 45 c 2,2,-1
 -5 93 l 2,3,4
 4 131 4 131 45 165 c 2,5,-1
 528 560 l 2,6,7
 743 736 743 736 835 854 c 128,-1,8
 927 972 927 972 927 1101 c 256,9,10
 927 1179 927 1179 876 1240.5 c 128,-1,11
 825 1302 825 1302 704 1302 c 256,12,13
 579 1302 579 1302 501 1230 c 128,-1,14
 423 1158 423 1158 381 1057 c 256,15,16
 359 1003 359 1003 318 1019 c 2,17,-1
 243 1048 l 258,18,19
 210 1061 210 1061 235 1134 c 256,20,21
 276 1254 276 1254 405 1353 c 128,-1,22
 534 1452 534 1452 706 1452 c 256,23,24
 918 1452 918 1452 1020.5 1357.5 c 128,-1,25
 1123 1263 1123 1263 1123 1104 c 256,26,27
 1123 909 1123 909 989.5 771 c 128,-1,28
 856 633 856 633 669 485 c 2,29,-1
 266 166 l 9,30,-1
 265 162 l 17,31,32
 306 164 306 164 346 164 c 2,33,-1
 877 164 l 2,34,35
 931 164 931 164 921 119 c 2,36,-1
 904 45 l 2,37,38
 894 0 894 0 839 0 c 2,39,-1
 29 0 l 2,0,1
EndSplineSet
EndChar

StartChar: minus
Encoding: 8722 8722 150
Width: 1280
Flags: W
HStem: 665 120<127 1247>
LayerCount: 2
Fore
SplineSet
172 665 m 2,0,1
 127 665 127 665 127 700 c 2,2,-1
 127 750 l 2,3,4
 127 785 127 785 172 785 c 2,5,-1
 1202 785 l 2,6,7
 1247 785 1247 785 1247 750 c 2,8,-1
 1247 700 l 2,9,10
 1247 665 1247 665 1202 665 c 2,11,-1
 172 665 l 2,0,1
EndSplineSet
EndChar

StartChar: five
Encoding: 53 53 151
Width: 1110
Flags: W
HStem: -30 150<289.765 636.126> 736 150<447.708 735.193> 1258 164<498 1112.06>
VStem: 801 196<301.755 669.325>
DStem2: 25.3923 -30 200.835 -30 0.224951 0.97437<895.064 1361.3>
LayerCount: 2
Back
SplineSet
31.6318 163 m 256,0,1
 5.1748 213 5.1748 213 40.1777 239 c 258,2,-1
 114.875 294 l 258,3,4
 155.802 324 155.802 324 188.104 269 c 256,5,6
 207.485 236 207.485 236 262.095 178 c 128,-1,7
 316.704 120 316.704 120 425.704 120 c 256,8,9
 568.704 120 568.704 120 661.521 208 c 128,-1,10
 754.337 296 754.337 296 787.812 441 c 256,11,12
 819.441 578 819.441 578 775.681 657 c 128,-1,13
 731.919 736 731.919 736 607.919 736 c 256,14,15
 530.919 736 530.919 736 476.456 721 c 128,-1,16
 421.993 706 421.993 706 355.911 658 c 256,17,18
 310.293 625 310.293 625 268.293 625 c 2,19,-1
 221.293 625 l 2,20,21
 176.293 625 176.293 625 186.682 670 c 2,22,-1
 349.905 1377 l 2,23,24
 360.295 1422 360.295 1422 405.295 1422 c 2,25,-1
 1095.29 1422 l 2,26,27
 1140.29 1422 1140.29 1422 1129.91 1377 c 2,28,-1
 1112.82 1303 l 2,29,30
 1102.43 1258 1102.43 1258 1057.43 1258 c 2,31,-1
 508.433 1258 l 1,32,-1
 417.239 863 l 2,33,34
 410.313 833 410.313 833 401.387 803 c 1,35,-1
 405.387 803 l 1,36,37
 469.007 849 469.007 849 542.778 867.5 c 128,-1,38
 616.549 886 616.549 886 690.549 886 c 256,39,40
 874.549 886 874.549 886 951.922 762 c 128,-1,41
 1029.29 638 1029.29 638 982.89 437 c 256,42,43
 932.329 218 932.329 218 774.201 94 c 128,-1,44
 616.074 -30 616.074 -30 393.074 -30 c 256,45,46
 230.074 -30 230.074 -30 146.157 37.5 c 128,-1,47
 62.2412 105 62.2412 105 31.6318 163 c 256,0,1
EndSplineSet
Fore
SplineSet
49 169 m 257,0,1
 15 222 15 222 46 245 c 258,2,-1
 113 294 l 257,3,4
 149 322 149 322 189 263 c 256,5,6
 213 227 213 227 277.5 173.5 c 128,-1,7
 342 120 342 120 469 120 c 256,8,9
 618 120 618 120 709.5 228 c 128,-1,10
 801 336 801 336 801 501 c 256,11,12
 801 630 801 630 745.5 683 c 128,-1,13
 690 736 690 736 578 736 c 256,14,15
 531 736 531 736 482.5 722.5 c 128,-1,16
 434 709 434 709 356 658 c 256,17,18
 306 625 306 625 268 625 c 2,19,-1
 221 625 l 2,20,21
 177 625 177 625 187 670 c 2,22,-1
 350 1377 l 2,23,24
 360 1422 360 1422 405 1422 c 2,25,-1
 1095 1422 l 2,26,27
 1140 1422 1140 1422 1130 1377 c 2,28,-1
 1113 1303 l 2,29,30
 1103 1258 1103 1258 1057 1258 c 2,31,-1
 498 1258 l 1,32,-1
 407 863 l 2,33,34
 402 839 402 839 391 803 c 1,35,-1
 395 803 l 1,36,37
 440 846 440 846 509.5 866 c 128,-1,38
 579 886 579 886 633 886 c 256,39,40
 840 886 840 886 918.5 771.5 c 128,-1,41
 997 657 997 657 997 480 c 256,42,43
 997 261 997 261 845 115.5 c 128,-1,44
 693 -30 693 -30 460 -30 c 256,45,46
 282 -30 282 -30 184.5 38.5 c 128,-1,47
 87 107 87 107 49 169 c 257,0,1
EndSplineSet
EndChar

StartChar: quotesingle
Encoding: 39 39 152
Width: 478
Flags: W
HStem: 824 645<359.729 386.997>
VStem: 253 280
DStem2: 242.611 824 376.611 824 0.224951 0.97437<20.0968 671.624>
LayerCount: 2
Back
SplineSet
253 816 m 2,20,-1
 219 815 l 2,21,22
 203 815 203 815 193.5 818 c 128,-1,23
 184 821 184 821 179.5 828.5 c 128,-1,24
 175 836 175 836 174 843 c 128,-1,25
 173 850 173 850 173 862 c 2,26,-1
 173 875 l 1,27,-1
 150 1420 l 2,28,29
 150 1453 150 1453 159 1461 c 0,30,31
 169 1469 169 1469 192 1469 c 2,32,-1
 287 1469 l 2,33,34
 311 1469 311 1469 320 1460.5 c 128,-1,35
 329 1452 329 1452 329 1430 c 2,36,-1
 328 1414 l 1,37,-1
 306 867 l 2,38,39
 306 834 306 834 295.5 825 c 128,-1,40
 285 816 285 816 253 816 c 2,20,-1
EndSplineSet
Fore
SplineSet
357 1414 m 2,0,1
 368 1469 368 1469 406 1469 c 2,2,-1
 510 1469 l 2,3,4
 548 1469 548 1469 533 1414 c 2,5,-1
 387 869 l 2,6,7
 374 824 374 824 341 824 c 2,8,-1
 277 824 l 2,9,10
 244 824 244 824 253 869 c 2,11,-1
 357 1414 l 2,0,1
EndSplineSet
EndChar

StartChar: underscore
Encoding: 95 95 154
Width: 1100
Flags: W
HStem: -390 130<-219 929>
LayerCount: 2
Fore
SplineSet
-174 -390 m 2,0,1
 -219 -390 -219 -390 -219 -355 c 2,2,-1
 -219 -295 l 2,3,4
 -219 -260 -219 -260 -174 -260 c 2,5,-1
 884 -260 l 2,6,7
 929 -260 929 -260 929 -295 c 2,8,-1
 929 -355 l 2,9,10
 929 -390 929 -390 884 -390 c 2,11,-1
 -174 -390 l 2,0,1
EndSplineSet
EndChar

